<svg width="80" height="80" viewBox="0 0 80 80" fill="none" xmlns="http://www.w3.org/2000/svg">
<path d="M75 26.25H46.25V35C46.25 35.3315 46.3817 35.6495 46.6161 35.8839C46.8505 36.1183 47.1685 36.25 47.5 36.25C47.8315 36.25 48.1495 36.1183 48.3839 35.8839C48.6183 35.6495 48.75 35.3315 48.75 35V31.25C48.75 30.9185 48.8817 30.6005 49.1161 30.3661C49.3505 30.1317 49.6685 30 50 30C50.3315 30 50.6495 30.1317 50.8839 30.3661C51.1183 30.6005 51.25 30.9185 51.25 31.25V35C51.25 35.9946 50.8549 36.9484 50.1516 37.6517C49.4484 38.3549 48.4946 38.75 47.5 38.75C46.5054 38.75 45.5516 38.3549 44.8484 37.6517C44.1451 36.9484 43.75 35.9946 43.75 35V26.25H40C39.0058 26.2511 38.0526 26.6465 37.3495 27.3495C36.6465 28.0526 36.2511 29.0058 36.25 30V66.25C36.2508 66.5819 36.3828 66.9 36.6173 67.1349L47.8654 78.3829C48.1003 78.6171 48.4183 78.749 48.75 78.75H75C75.9942 78.7489 76.9474 78.3535 77.6505 77.6505C78.3535 76.9474 78.7489 75.9942 78.75 75V30C78.7489 29.0058 78.3535 28.0526 77.6505 27.3495C76.9474 26.6465 75.9942 26.2511 75 26.25ZM47.5 74.4824L40.5176 67.5H46.25C46.5814 67.5003 46.8992 67.6321 47.1335 67.8665C47.3679 68.1008 47.4997 68.4186 47.5 68.75V74.4824ZM70 68.75H53.75C53.4185 68.75 53.1005 68.6183 52.8661 68.3839C52.6317 68.1495 52.5 67.8315 52.5 67.5C52.5 67.1685 52.6317 66.8505 52.8661 66.6161C53.1005 66.3817 53.4185 66.25 53.75 66.25H70C70.3315 66.25 70.6495 66.3817 70.8839 66.6161C71.1183 66.8505 71.25 67.1685 71.25 67.5C71.25 67.8315 71.1183 68.1495 70.8839 68.3839C70.6495 68.6183 70.3315 68.75 70 68.75ZM70 61.25H45C44.6685 61.25 44.3505 61.1183 44.1161 60.8839C43.8817 60.6495 43.75 60.3315 43.75 60C43.75 59.6685 43.8817 59.3505 44.1161 59.1161C44.3505 58.8817 44.6685 58.75 45 58.75H70C70.3315 58.75 70.6495 58.8817 70.8839 59.1161C71.1183 59.3505 71.25 59.6685 71.25 60C71.25 60.3315 71.1183 60.6495 70.8839 60.8839C70.6495 61.1183 70.3315 61.25 70 61.25ZM70 53.75H45C44.6685 53.75 44.3505 53.6183 44.1161 53.3839C43.8817 53.1495 43.75 52.8315 43.75 52.5C43.75 52.1685 43.8817 51.8505 44.1161 51.6161C44.3505 51.3817 44.6685 51.25 45 51.25H70C70.3315 51.25 70.6495 51.3817 70.8839 51.6161C71.1183 51.8505 71.25 52.1685 71.25 52.5C71.25 52.8315 71.1183 53.1495 70.8839 53.3839C70.6495 53.6183 70.3315 53.75 70 53.75ZM70 46.25H45C44.6685 46.25 44.3505 46.1183 44.1161 45.8839C43.8817 45.6495 43.75 45.3315 43.75 45C43.75 44.6685 43.8817 44.3505 44.1161 44.1161C44.3505 43.8817 44.6685 43.75 45 43.75H70C70.3315 43.75 70.6495 43.8817 70.8839 44.1161C71.1183 44.3505 71.25 44.6685 71.25 45C71.25 45.3315 71.1183 45.6495 70.8839 45.8839C70.6495 46.1183 70.3315 46.25 70 46.25ZM72.5 38.75H66.25C65.9185 38.75 65.6005 38.6183 65.3661 38.3839C65.1317 38.1495 65 37.8315 65 37.5C65 37.1685 65.1317 36.8505 65.3661 36.6161C65.6005 36.3817 65.9185 36.25 66.25 36.25H72.5C72.8315 36.25 73.1495 36.3817 73.3839 36.6161C73.6183 36.8505 73.75 37.1685 73.75 37.5C73.75 37.8315 73.6183 38.1495 73.3839 38.3839C73.1495 38.6183 72.8315 38.75 72.5 38.75ZM72.5 33.75H62.5C62.1685 33.75 61.8505 33.6183 61.6161 33.3839C61.3817 33.1495 61.25 32.8315 61.25 32.5C61.25 32.1685 61.3817 31.8505 61.6161 31.6161C61.8505 31.3817 62.1685 31.25 62.5 31.25H72.5C72.8315 31.25 73.1495 31.3817 73.3839 31.6161C73.6183 31.8505 73.75 32.1685 73.75 32.5C73.75 32.8315 73.6183 33.1495 73.3839 33.3839C73.1495 33.6183 72.8315 33.75 72.5 33.75Z" fill="#01CBF8"/>
<path d="M52.5 1.25C50.275 1.25 48.0999 1.9098 46.2498 3.14597C44.3998 4.38213 42.9578 6.13914 42.1064 8.19481C41.2549 10.2505 41.0321 12.5125 41.4662 14.6948C41.9003 16.8771 42.9717 18.8816 44.5451 20.455C46.1184 22.0283 48.123 23.0998 50.3052 23.5338C52.4875 23.9679 54.7495 23.7451 56.8052 22.8936C58.8609 22.0422 60.6179 20.6002 61.854 18.7502C63.0902 16.9001 63.75 14.725 63.75 12.5C63.7466 9.51735 62.5603 6.65782 60.4512 4.54876C58.3422 2.43971 55.4827 1.25336 52.5 1.25ZM52.5 21.25C50.7694 21.25 49.0777 20.7368 47.6388 19.7754C46.1998 18.8139 45.0783 17.4473 44.4161 15.8485C43.7538 14.2496 43.5805 12.4903 43.9181 10.793C44.2558 9.09563 45.0891 7.53652 46.3128 6.31282C47.5365 5.08911 49.0956 4.25575 50.793 3.91813C52.4903 3.58051 54.2496 3.75379 55.8485 4.41605C57.4473 5.07832 58.8139 6.19983 59.7754 7.63876C60.7368 9.07769 61.25 10.7694 61.25 12.5C61.2473 14.8198 60.3246 17.0438 58.6842 18.6842C57.0438 20.3246 54.8198 21.2473 52.5 21.25Z" fill="#2C2C2C"/>
<path d="M60 41.25H47.5C46.5058 41.2511 45.5526 41.6465 44.8495 42.3495C44.1465 43.0526 43.7511 44.0058 43.75 45V52.5C43.7542 52.9268 43.8322 53.3497 43.9804 53.75H26.25V48.75H37.5C38.4942 48.7489 39.4474 48.3535 40.1505 47.6505C40.8535 46.9474 41.2489 45.9942 41.25 45V22.5C41.2489 21.5058 40.8535 20.5526 40.1505 19.8495C39.4474 19.1465 38.4942 18.7511 37.5 18.75H5C4.00577 18.7511 3.05257 19.1465 2.34955 19.8495C1.64652 20.5526 1.25109 21.5058 1.25 22.5V45C1.25109 45.9942 1.64652 46.9474 2.34955 47.6505C3.05257 48.3535 4.00577 48.7489 5 48.75H16.25V53.75H5C4.00577 53.7511 3.05257 54.1465 2.34955 54.8495C1.64652 55.5526 1.25109 56.5058 1.25 57.5V60C1.25109 60.9942 1.64652 61.9474 2.34955 62.6505C3.05257 63.3535 4.00577 63.7489 5 63.75H60C60.9942 63.7489 61.9474 63.3535 62.6505 62.6505C63.3535 61.9474 63.7489 60.9942 63.75 60V57.5C63.7471 56.5744 63.3994 55.683 62.7747 55C63.3994 54.317 63.7471 53.4256 63.75 52.5V45C63.7489 44.0058 63.3535 43.0526 62.6505 42.3495C61.9474 41.6465 60.9942 41.2511 60 41.25ZM47.5 43.75H60C60.3314 43.7503 60.6492 43.8821 60.8835 44.1165C61.1179 44.3508 61.2497 44.6686 61.25 45V46.25H46.25V45C46.2503 44.6686 46.3821 44.3508 46.6165 44.1165C46.8508 43.8821 47.1686 43.7503 47.5 43.75ZM46.25 52.5V48.75H61.25V52.5C61.2497 52.8314 61.1179 53.1492 60.8835 53.3835C60.6492 53.6179 60.3314 53.7497 60 53.75H47.5C47.1686 53.7497 46.8508 53.6179 46.6165 53.3835C46.3821 53.1492 46.2503 52.8314 46.25 52.5ZM5 21.25H37.5C37.8314 21.2503 38.1492 21.3821 38.3835 21.6165C38.6179 21.8508 38.7497 22.1686 38.75 22.5V40H3.75V22.5C3.75033 22.1686 3.88213 21.8508 4.11648 21.6165C4.35083 21.3821 4.66858 21.2503 5 21.25ZM3.75 45V42.5H38.75V45C38.7497 45.3314 38.6179 45.6492 38.3835 45.8835C38.1492 46.1179 37.8314 46.2497 37.5 46.25H5C4.66858 46.2497 4.35083 46.1179 4.11648 45.8835C3.88213 45.6492 3.75033 45.3314 3.75 45ZM18.75 48.75H23.75V53.75H18.75V48.75ZM61.25 60C61.2497 60.3314 61.1179 60.6492 60.8835 60.8835C60.6492 61.1179 60.3314 61.2497 60 61.25H5C4.66858 61.2497 4.35083 61.1179 4.11648 60.8835C3.88213 60.6492 3.75033 60.3314 3.75 60V57.5C3.75033 57.1686 3.88213 56.8508 4.11648 56.6165C4.35083 56.3821 4.66858 56.2503 5 56.25H60C60.3314 56.2503 60.6492 56.3821 60.8835 56.6165C61.1179 56.8508 61.2497 57.1686 61.25 57.5V60Z" fill="#2C2C2C"/>
<path d="M53.75 11.9824V6.25C53.75 5.91848 53.6183 5.60054 53.3839 5.36612C53.1495 5.1317 52.8315 5 52.5 5C52.1685 5 51.8505 5.1317 51.6161 5.36612C51.3817 5.60054 51.25 5.91848 51.25 6.25V12.5C51.25 12.6641 51.2823 12.8267 51.3452 12.9783C51.408 13.13 51.5001 13.2677 51.6162 13.3837L55.3662 17.1337C55.4819 17.2515 55.6198 17.3452 55.7719 17.4095C55.924 17.4737 56.0873 17.5071 56.2523 17.5079C56.4174 17.5086 56.581 17.4766 56.7337 17.4138C56.8863 17.351 57.025 17.2585 57.1418 17.1418C57.2585 17.0251 57.351 16.8864 57.4138 16.7337C57.4766 16.581 57.5086 16.4174 57.5078 16.2523C57.5071 16.0873 57.4737 15.924 57.4094 15.7719C57.3452 15.6198 57.2515 15.4819 57.1337 15.3663L53.75 11.9824Z" fill="#2C2C2C"/>
</svg>
