<svg width="80" height="80" viewBox="0 0 80 80" fill="none" xmlns="http://www.w3.org/2000/svg">
<path d="M55.1675 51.625L78.6362 54.9775C78.9779 51.3435 78.5567 47.6782 77.3995 44.2165C76.2423 40.7548 74.3746 37.573 71.9162 34.8751L55.1675 51.625Z" fill="#01CBF8"/>
<path d="M70.1501 33.1099C65.1674 28.562 58.6232 26.1099 51.8788 26.2638C45.1344 26.4176 38.7088 29.1655 33.9386 33.9358C29.1684 38.7062 26.4208 45.1318 26.2672 51.8763C26.1136 58.6207 28.5658 65.1648 33.1139 70.1474L70.1501 33.1099Z" fill="#01CBF8"/>
<path d="M52.9575 53.8389L34.8824 71.9127C38.3271 75.0519 42.5464 77.2158 47.1057 78.1817C51.6649 79.1475 56.3993 78.8803 60.8209 77.4075C65.2425 75.9348 69.1915 73.3097 72.261 69.8029C75.3305 66.296 77.4095 62.0341 78.2837 57.4564L52.9575 53.8389Z" fill="#01CBF8"/>
<path d="M16.25 41.25H5C4.00544 41.25 3.05161 41.6451 2.34835 42.3484C1.64509 43.0516 1.25 44.0054 1.25 45V60C1.25 60.9946 1.64509 61.9484 2.34835 62.6516C3.05161 63.3549 4.00544 63.75 5 63.75H16.25C17.2446 63.75 18.1984 63.3549 18.9017 62.6516C19.6049 61.9484 20 60.9946 20 60V45C20 44.0054 19.6049 43.0516 18.9017 42.3484C18.1984 41.6451 17.2446 41.25 16.25 41.25ZM17.5 60C17.5 60.3315 17.3683 60.6495 17.1339 60.8839C16.8995 61.1183 16.5815 61.25 16.25 61.25H5C4.66848 61.25 4.35054 61.1183 4.11612 60.8839C3.8817 60.6495 3.75 60.3315 3.75 60V45C3.75 44.6685 3.8817 44.3505 4.11612 44.1161C4.35054 43.8817 4.66848 43.75 5 43.75H16.25C16.5815 43.75 16.8995 43.8817 17.1339 44.1161C17.3683 44.3505 17.5 44.6685 17.5 45V60Z" fill="#2C2C2C"/>
<path d="M37.5 31.25H26.25C25.2554 31.25 24.3016 31.6451 23.5983 32.3483C22.8951 33.0516 22.5 34.0054 22.5 35V60C22.5 60.9946 22.8951 61.9484 23.5983 62.6516C24.3016 63.3549 25.2554 63.75 26.25 63.75H37.5C38.4946 63.75 39.4484 63.3549 40.1516 62.6516C40.8549 61.9484 41.25 60.9946 41.25 60V35C41.25 34.0054 40.8549 33.0516 40.1516 32.3483C39.4484 31.6451 38.4946 31.25 37.5 31.25ZM38.75 60C38.75 60.3315 38.6183 60.6495 38.3839 60.8839C38.1495 61.1183 37.8315 61.25 37.5 61.25H26.25C25.9185 61.25 25.6005 61.1183 25.3661 60.8839C25.1317 60.6495 25 60.3315 25 60V35C25 34.6685 25.1317 34.3505 25.3661 34.1161C25.6005 33.8817 25.9185 33.75 26.25 33.75H37.5C37.8315 33.75 38.1495 33.8817 38.3839 34.1161C38.6183 34.3505 38.75 34.6685 38.75 35V60Z" fill="#2C2C2C"/>
<path d="M58.75 21.25H47.5C46.5054 21.25 45.5516 21.6451 44.8484 22.3483C44.1451 23.0516 43.75 24.0054 43.75 25V60C43.75 60.9946 44.1451 61.9484 44.8484 62.6516C45.5516 63.3549 46.5054 63.75 47.5 63.75H58.75C59.7446 63.75 60.6984 63.3549 61.4016 62.6516C62.1049 61.9484 62.5 60.9946 62.5 60V25C62.5 24.0054 62.1049 23.0516 61.4016 22.3483C60.6984 21.6451 59.7446 21.25 58.75 21.25ZM60 60C60 60.3315 59.8683 60.6495 59.6339 60.8839C59.3995 61.1183 59.0815 61.25 58.75 61.25H47.5C47.1685 61.25 46.8505 61.1183 46.6161 60.8839C46.3817 60.6495 46.25 60.3315 46.25 60V25C46.25 24.6685 46.3817 24.3505 46.6161 24.1161C46.8505 23.8817 47.1685 23.75 47.5 23.75H58.75C59.0815 23.75 59.3995 23.8817 59.6339 24.1161C59.8683 24.3505 60 24.6685 60 25V60Z" fill="#2C2C2C"/>
<path d="M6.87511 34.835C7.01753 34.9174 7.1748 34.9708 7.3379 34.9923C7.50101 35.0137 7.66675 35.0028 7.82561 34.96C7.98448 34.9173 8.13335 34.8436 8.26368 34.7432C8.39401 34.6428 8.50324 34.5177 8.58511 34.375C13.645 26.7825 20.4408 20.5045 28.4097 16.061C36.3786 11.6174 45.2914 9.13611 54.4101 8.82252L51.6164 11.6163C51.3887 11.852 51.2627 12.1678 51.2655 12.4955C51.2684 12.8233 51.3998 13.1368 51.6316 13.3685C51.8633 13.6003 52.1769 13.7318 52.5046 13.7346C52.8324 13.7375 53.1481 13.6115 53.3839 13.3838L58.3839 8.38377C58.5003 8.26765 58.5926 8.12972 58.6556 7.97785C58.7187 7.82599 58.7511 7.66319 58.7511 7.49877C58.7511 7.33435 58.7187 7.17155 58.6556 7.01968C58.5926 6.86782 58.5003 6.72988 58.3839 6.61377L53.3839 1.61377C53.1481 1.38607 52.8324 1.26008 52.5046 1.26293C52.1769 1.26577 51.8633 1.39723 51.6316 1.629C51.3998 1.86076 51.2684 2.17427 51.2655 2.50202C51.2627 2.82976 51.3887 3.14552 51.6164 3.38127L54.5514 6.31627C44.9723 6.62634 35.606 9.22111 27.2328 13.8844C18.8597 18.5477 11.7222 25.1444 6.41511 33.125C6.33276 33.2674 6.27932 33.4247 6.25787 33.5878C6.23641 33.7509 6.24737 33.9167 6.2901 34.0755C6.33284 34.2344 6.40651 34.3833 6.5069 34.5136C6.60729 34.6439 6.73242 34.7532 6.87511 34.835Z" fill="#2C2C2C"/>
</svg>
