<svg width="80" height="80" viewBox="0 0 80 80" fill="none" xmlns="http://www.w3.org/2000/svg">
<path d="M42.5 60.5088V40H32.5V58.8825C35.9176 58.558 39.3613 59.118 42.5 60.5088Z" fill="#01CBF8"/>
<path d="M62.5 60.5V40H45V60.5C47.7297 59.1856 50.7204 58.5031 53.75 58.5031C56.7796 58.5031 59.7703 59.1856 62.5 60.5Z" fill="#01CBF8"/>
<path d="M65.295 63.125L64.3088 63.625C64.1353 63.7117 63.944 63.7569 63.75 63.7569C63.5561 63.7569 63.3648 63.7117 63.1913 63.625L61.6125 62.835C59.1694 61.6209 56.4782 60.9891 53.75 60.9891C51.0218 60.9891 48.3307 61.6209 45.8875 62.835L44.3088 63.625C44.1353 63.7117 43.944 63.7569 43.75 63.7569C43.5561 63.7569 43.3648 63.7117 43.1913 63.625L42.205 63.125C39.4638 61.7589 36.4125 61.1349 33.355 61.315L43.28 70H64.22L74.145 61.3163C71.0877 61.1357 68.0364 61.7594 65.295 63.125Z" fill="#01CBF8"/>
<path d="M32.5 32.5H75V37.5H32.5V32.5Z" fill="#01CBF8"/>
<path d="M46.1375 72.5L52.9275 78.4412C53.1553 78.6403 53.4475 78.75 53.75 78.75C54.0525 78.75 54.3447 78.6403 54.5725 78.4412L61.3625 72.5H46.1375Z" fill="#01CBF8"/>
<path d="M75 30V16.25C75 14.9239 74.4732 13.6521 73.5355 12.7145C72.5979 11.7768 71.3261 11.25 70 11.25H37.5C36.1739 11.25 34.9021 11.7768 33.9645 12.7145C33.0268 13.6521 32.5 14.9239 32.5 16.25V30H75Z" fill="#01CBF8"/>
<path d="M65 40V60.5088C68.139 59.1191 71.5825 58.5595 75 58.8837V40H65Z" fill="#01CBF8"/>
<path d="M53.75 3.75H41.02C40.7624 3.02136 40.286 2.39011 39.6559 1.94261C39.0258 1.4951 38.2728 1.2532 37.5 1.25H23.75C22.9772 1.2532 22.2242 1.4951 21.5941 1.94261C20.964 2.39011 20.4876 3.02136 20.23 3.75H8.75C7.75544 3.75 6.80161 4.14509 6.09835 4.84835C5.39509 5.55161 5 6.50544 5 7.5V60C5 60.9946 5.39509 61.9484 6.09835 62.6516C6.80161 63.3549 7.75544 63.75 8.75 63.75H53.75C54.7446 63.75 55.6984 63.3549 56.4016 62.6516C57.1049 61.9484 57.5 60.9946 57.5 60V7.5C57.5 6.50544 57.1049 5.55161 56.4016 4.84835C55.6984 4.14509 54.7446 3.75 53.75 3.75ZM23.75 3.75H37.5C37.8315 3.75 38.1495 3.8817 38.3839 4.11612C38.6183 4.35054 38.75 4.66848 38.75 5C38.75 5.33152 38.6183 5.64946 38.3839 5.88388C38.1495 6.1183 37.8315 6.25 37.5 6.25H23.75C23.4185 6.25 23.1005 6.1183 22.8661 5.88388C22.6317 5.64946 22.5 5.33152 22.5 5C22.5 4.66848 22.6317 4.35054 22.8661 4.11612C23.1005 3.8817 23.4185 3.75 23.75 3.75ZM55 60C55 60.3315 54.8683 60.6495 54.6339 60.8839C54.3995 61.1183 54.0815 61.25 53.75 61.25H8.75C8.41848 61.25 8.10054 61.1183 7.86612 60.8839C7.6317 60.6495 7.5 60.3315 7.5 60V7.5C7.5 7.16848 7.6317 6.85054 7.86612 6.61612C8.10054 6.3817 8.41848 6.25 8.75 6.25H20.23C20.4876 6.97864 20.964 7.60989 21.5941 8.05739C22.2242 8.5049 22.9772 8.7468 23.75 8.75H37.5C38.2728 8.7468 39.0258 8.5049 39.6559 8.05739C40.286 7.60989 40.7624 6.97864 41.02 6.25H53.75C54.0815 6.25 54.3995 6.3817 54.6339 6.61612C54.8683 6.85054 55 7.16848 55 7.5V60Z" fill="#2C2C2C"/>
<path d="M48.75 15H13.75C13.087 15 12.4511 15.2634 11.9822 15.7322C11.5134 16.2011 11.25 16.837 11.25 17.5V52.5C11.25 53.163 11.5134 53.7989 11.9822 54.2678C12.4511 54.7366 13.087 55 13.75 55H48.75C49.413 55 50.0489 54.7366 50.5178 54.2678C50.9866 53.7989 51.25 53.163 51.25 52.5V17.5C51.25 16.837 50.9866 16.2011 50.5178 15.7322C50.0489 15.2634 49.413 15 48.75 15ZM32.5 45V40H42.5V45H32.5ZM42.5 47.5V52.5H32.5V47.5H42.5ZM42.5 25V30H32.5V25H42.5ZM32.5 22.5V17.5H42.5V22.5H32.5ZM20 32.5H30V37.5H20V32.5ZM17.5 37.5H13.75V32.5H17.5V37.5ZM32.5 32.5H42.5V37.5H32.5V32.5ZM45 32.5H48.75V37.5H45V32.5ZM45 30V25H48.75V30H45ZM30 30H20V25H30V30ZM17.5 30H13.75V25H17.5V30ZM13.75 40H17.5V45H13.75V40ZM20 40H30V45H20V40ZM45 40H48.75V45H45V40ZM48.75 22.5H45V17.5H48.75V22.5ZM30 17.5V22.5H20V17.5H30ZM17.5 17.5V22.5H13.75V17.5H17.5ZM13.75 47.5H17.5V52.5H13.75V47.5ZM20 52.5V47.5H30V52.5H20ZM45 52.5V47.5H48.75V52.5H45Z" fill="#2C2C2C"/>
</svg>
