<svg width="80" height="80" viewBox="0 0 80 80" fill="none" xmlns="http://www.w3.org/2000/svg">
<path d="M78.3875 32.2375L68.3875 22.2375C68.1492 22.0072 67.8314 21.8774 67.5 21.875H37.5C36.5063 21.8779 35.5542 22.2739 34.8516 22.9766C34.1489 23.6792 33.7529 24.6313 33.75 25.625V73.125C33.7529 74.1187 34.1489 75.0708 34.8516 75.7734C35.5542 76.4761 36.5063 76.8721 37.5 76.875H75C75.9937 76.8721 76.9458 76.4761 77.6484 75.7734C78.3511 75.0708 78.7471 74.1187 78.75 73.125V33.125C78.7476 32.7936 78.6178 32.4758 78.3875 32.2375ZM68.75 26.1375L74.4875 31.875H68.75V26.1375ZM38.75 30.625H63.75C64.0815 30.625 64.3995 30.7567 64.6339 30.9911C64.8683 31.2255 65 31.5435 65 31.875C65 32.2065 64.8683 32.5245 64.6339 32.7589C64.3995 32.9933 64.0815 33.125 63.75 33.125H38.75C38.4185 33.125 38.1005 32.9933 37.8661 32.7589C37.6317 32.5245 37.5 32.2065 37.5 31.875C37.5 31.5435 37.6317 31.2255 37.8661 30.9911C38.1005 30.7567 38.4185 30.625 38.75 30.625ZM73.75 68.125H38.75C38.4185 68.125 38.1005 67.9933 37.8661 67.7589C37.6317 67.5245 37.5 67.2065 37.5 66.875C37.5 66.5435 37.6317 66.2255 37.8661 65.9911C38.1005 65.7567 38.4185 65.625 38.75 65.625H73.75C74.0815 65.625 74.3995 65.7567 74.6339 65.9911C74.8683 66.2255 75 66.5435 75 66.875C75 67.2065 74.8683 67.5245 74.6339 67.7589C74.3995 67.9933 74.0815 68.125 73.75 68.125ZM73.75 59.375H38.75C38.4185 59.375 38.1005 59.2433 37.8661 59.0089C37.6317 58.7745 37.5 58.4565 37.5 58.125C37.5 57.7935 37.6317 57.4755 37.8661 57.2411C38.1005 57.0067 38.4185 56.875 38.75 56.875H73.75C74.0815 56.875 74.3995 57.0067 74.6339 57.2411C74.8683 57.4755 75 57.7935 75 58.125C75 58.4565 74.8683 58.7745 74.6339 59.0089C74.3995 59.2433 74.0815 59.375 73.75 59.375ZM73.75 50.625H38.75C38.4185 50.625 38.1005 50.4933 37.8661 50.2589C37.6317 50.0245 37.5 49.7065 37.5 49.375C37.5 49.0435 37.6317 48.7255 37.8661 48.4911C38.1005 48.2567 38.4185 48.125 38.75 48.125H73.75C74.0815 48.125 74.3995 48.2567 74.6339 48.4911C74.8683 48.7255 75 49.0435 75 49.375C75 49.7065 74.8683 50.0245 74.6339 50.2589C74.3995 50.4933 74.0815 50.625 73.75 50.625ZM73.75 41.875H40C39.6685 41.875 39.3505 41.7433 39.1161 41.5089C38.8817 41.2745 38.75 40.9565 38.75 40.625C38.75 40.2935 38.8817 39.9755 39.1161 39.7411C39.3505 39.5067 39.6685 39.375 40 39.375H73.75C74.0815 39.375 74.3995 39.5067 74.6339 39.7411C74.8683 39.9755 75 40.2935 75 40.625C75 40.9565 74.8683 41.2745 74.6339 41.5089C74.3995 41.7433 74.0815 41.875 73.75 41.875Z" fill="#01CBF8"/>
<path d="M55 48.1252H10C9.66848 48.1252 9.35054 48.2569 9.11612 48.4913C8.8817 48.7257 8.75 49.0437 8.75 49.3752C8.75 49.7067 8.8817 50.0246 9.11612 50.2591C9.35054 50.4935 9.66848 50.6252 10 50.6252C11.6576 50.6252 13.2473 51.2837 14.4194 52.4558C15.5915 53.6279 16.25 55.2176 16.25 56.8752C16.25 58.5328 15.5915 60.1225 14.4194 61.2946C13.2473 62.4667 11.6576 63.1252 10 63.1252C6.97875 63.1252 3.75 61.8117 3.75 58.1252C3.75 56.2331 4.9884 54.3752 6.25 54.3752C8.04931 54.3752 8.75 55.0759 8.75 56.8752C8.75 57.2067 8.8817 57.5247 9.11612 57.7591C9.35054 57.9935 9.66848 58.1252 10 58.1252C10.3315 58.1252 10.6495 57.9935 10.8839 57.7591C11.1183 57.5247 11.25 57.2067 11.25 56.8752C11.3204 56.2013 11.2395 55.5201 11.0132 54.8815C10.7868 54.2428 10.4207 53.6628 9.94156 53.1836C9.46244 52.7045 8.88238 52.3384 8.24372 52.112C7.60506 51.8857 6.92392 51.8047 6.25 51.8752C3.30323 51.8752 1.25 55.1686 1.25 58.1252C1.25 62.6113 4.76625 65.6252 10 65.6252H55C56.1514 65.6288 57.2922 65.4052 58.357 64.9671C59.4218 64.529 60.3896 63.8851 61.2051 63.0722C62.0205 62.2593 62.6675 61.2935 63.109 60.2301C63.5504 59.1667 63.7777 58.0266 63.7777 56.8752C63.7777 55.7238 63.5504 54.5838 63.109 53.5204C62.6675 52.457 62.0205 51.4911 61.2051 50.6783C60.3896 49.8654 59.4218 49.2215 58.357 48.7834C57.2922 48.3453 56.1514 48.1216 55 48.1253V48.1252ZM18.75 56.8752C18.7507 55.7105 18.5182 54.5574 18.0662 53.484C17.6141 52.4106 16.9518 51.4386 16.1182 50.6252H31.25C32.9076 50.6252 34.4973 51.2837 35.6694 52.4558C36.8415 53.6279 37.5 55.2176 37.5 56.8752C37.5 58.5328 36.8415 60.1225 35.6694 61.2946C34.4973 62.4667 32.9076 63.1252 31.25 63.1252H16.1182C16.9518 62.3118 17.6142 61.3398 18.0662 60.2663C18.5182 59.1929 18.7507 58.0398 18.75 56.8751V56.8752ZM55 63.1252H37.3618C38.1967 62.3124 38.8603 61.3407 39.3135 60.2672C39.7666 59.1937 40 58.0404 40 56.8752C40 55.71 39.7666 54.5567 39.3135 53.4832C38.8603 52.4097 38.1967 51.4379 37.3618 50.6252H55C56.6576 50.6252 58.2473 51.2837 59.4194 52.4558C60.5915 53.6279 61.25 55.2176 61.25 56.8752C61.25 58.5328 60.5915 60.1225 59.4194 61.2946C58.2473 62.4667 56.6576 63.1252 55 63.1252Z" fill="#2C2C2C"/>
<path d="M61.2499 30.8555V16.8752C61.2499 16.6353 61.1808 16.4005 61.0509 16.1988C60.921 15.997 60.7359 15.8369 60.5175 15.7376L33.0169 3.23761C32.8546 3.16341 32.6783 3.125 32.4999 3.125C32.3215 3.125 32.1452 3.16341 31.983 3.23761L4.48296 15.7376C4.26473 15.8371 4.07971 15.9972 3.94997 16.199C3.82023 16.4007 3.75125 16.6355 3.75125 16.8753C3.75125 17.1151 3.82023 17.3499 3.94997 17.5516C4.07971 17.7534 4.26473 17.9135 4.48296 18.013L11.2499 21.0888V32.8303C11.2477 33.5272 11.4406 34.2107 11.807 34.8035C12.1733 35.3963 12.6984 35.8746 13.3227 36.1842L31.9408 45.4932C31.9517 45.4987 31.9646 45.4964 31.9756 45.5015C32.1385 45.5828 32.3179 45.6251 32.4999 45.6251C32.6819 45.6251 32.8614 45.5828 33.0242 45.5015C33.0353 45.4964 33.0481 45.4987 33.059 45.4932L51.6772 36.1842C52.3014 35.8746 52.8265 35.3963 53.1928 34.8035C53.5592 34.2107 53.7521 33.5272 53.7499 32.8304V21.0889L58.7499 18.8162V30.8555C58.0208 31.1123 57.3891 31.5885 56.9415 32.2187C56.4939 32.8489 56.2523 33.6022 56.2499 34.3752V36.8751C56.2499 37.8697 56.645 38.8235 57.3483 39.5268C58.0515 40.2301 59.0054 40.6251 59.9999 40.6251C60.9945 40.6251 61.9483 40.2301 62.6516 39.5268C63.3548 38.8235 63.7499 37.8697 63.7499 36.8751V34.3752C63.7475 33.6022 63.506 32.8489 63.0583 32.2187C62.6107 31.5885 61.979 31.1123 61.2499 30.8555ZM13.7499 32.8304V22.2252L31.2499 30.1797V42.3524L14.4408 33.9479C14.2328 33.8448 14.0578 33.6854 13.9357 33.4879C13.8136 33.2904 13.7492 33.0626 13.7499 32.8304ZM51.2499 32.8304C51.2506 33.0626 51.1863 33.2903 51.0642 33.4878C50.942 33.6854 50.7671 33.8447 50.559 33.9479L33.7499 42.3524V30.1799L51.2499 22.2252V32.8304ZM32.4999 28.0019L8.02055 16.8752L32.4999 5.74859L56.9787 16.8752L32.4999 28.0019ZM61.2499 36.8751C61.2499 37.2067 61.1182 37.5246 60.8838 37.759C60.6494 37.9934 60.3314 38.1251 59.9999 38.1251C59.6684 38.1251 59.3505 37.9934 59.116 37.759C58.8816 37.5246 58.7499 37.2067 58.7499 36.8751V34.3751C58.7499 34.0436 58.8816 33.7257 59.116 33.4913C59.3505 33.2568 59.6684 33.1251 59.9999 33.1251C60.3314 33.1251 60.6494 33.2568 60.8838 33.4913C61.1182 33.7257 61.2499 34.0436 61.2499 34.3751V36.8751Z" fill="#2C2C2C"/>
</svg>
