<svg width="215" height="387" viewBox="0 0 215 387" fill="none" xmlns="http://www.w3.org/2000/svg">
<g opacity="0.7" filter="url(#filter0_f)">
<path d="M84.9609 177.484C87.5095 177.484 89.9537 176.472 91.7558 174.67C93.5579 172.868 94.5703 170.424 94.5703 167.875V151.859H88.164V167.875C88.164 168.724 87.8266 169.539 87.2259 170.14C86.6252 170.741 85.8104 171.078 84.9609 171.078C84.1114 171.078 83.2967 170.741 82.696 170.14C82.0953 169.539 81.7578 168.724 81.7578 167.875V151.859H75.3516V167.875C75.3516 170.424 76.364 172.868 78.1661 174.67C79.9682 176.472 82.4124 177.484 84.9609 177.484Z" fill="#01CBF8"/>
<path d="M88.1641 145.453C88.1641 144.603 88.5015 143.789 89.1022 143.188C89.7029 142.587 90.5177 142.25 91.3672 142.25C92.2167 142.25 93.0314 142.587 93.6321 143.188C94.2328 143.789 94.5703 144.603 94.5703 145.453V151.859H100.977V145.453C100.977 142.904 99.9641 140.46 98.162 138.658C96.3599 136.856 93.9157 135.844 91.3672 135.844C88.8186 135.844 86.3744 136.856 84.5723 138.658C82.7702 140.46 81.7578 142.904 81.7578 145.453V151.859H88.1641V145.453Z" fill="#01CBF8"/>
<path d="M-23.2471 250.042L-3.24356 289.299L8.51511 273.117L-23.2471 250.042Z" fill="#01CBF8"/>
<path d="M110.586 151.859H100.977V167.875C100.977 172.122 99.2892 176.196 96.2857 179.2C93.2822 182.203 89.2086 183.89 84.9609 183.89C80.7133 183.89 76.6397 182.203 73.6362 179.2C70.6327 176.196 68.9453 172.122 68.9453 167.875V151.859H-14.3359C-16.8845 151.859 -19.3287 152.872 -21.1308 154.674C-22.9329 156.476 -23.9453 158.92 -23.9453 161.469L-23.9453 241.617L14.8702 269.805C15.2118 270.052 15.5013 270.364 15.7219 270.724C15.9426 271.083 16.09 271.483 16.1558 271.9C16.2215 272.316 16.2044 272.742 16.1052 273.152C16.0061 273.562 15.8269 273.948 15.5781 274.289L2.13133 292.797H110.586C113.135 292.797 115.579 291.784 117.381 289.982C119.183 288.18 120.195 285.736 120.195 283.187V161.469C120.195 158.92 119.183 156.476 117.381 154.674C115.579 152.872 113.135 151.859 110.586 151.859ZM-1.52344 171.078H52.9297C53.7792 171.078 54.5939 171.415 55.1946 172.016C55.7953 172.617 56.1328 173.432 56.1328 174.281C56.1328 175.131 55.7953 175.945 55.1946 176.546C54.5939 177.147 53.7792 177.484 52.9297 177.484H-1.52344C-2.37296 177.484 -3.18769 177.147 -3.78839 176.546C-4.38909 175.945 -4.72656 175.131 -4.72656 174.281C-4.72656 173.432 -4.38909 172.617 -3.78839 172.016C-3.18769 171.415 -2.37296 171.078 -1.52344 171.078ZM-1.52344 190.297H72.1484C72.998 190.297 73.8127 190.634 74.4134 191.235C75.0141 191.836 75.3516 192.65 75.3516 193.5C75.3516 194.349 75.0141 195.164 74.4134 195.765C73.8127 196.365 72.998 196.703 72.1484 196.703H-1.52344C-2.37296 196.703 -3.18769 196.365 -3.78839 195.765C-4.38909 195.164 -4.72656 194.349 -4.72656 193.5C-4.72656 192.65 -4.38909 191.836 -3.78839 191.235C-3.18769 190.634 -2.37296 190.297 -1.52344 190.297ZM97.7734 273.578H40.1172C39.2677 273.578 38.4529 273.24 37.8522 272.64C37.2515 272.039 36.9141 271.224 36.9141 270.375C36.9141 269.525 37.2515 268.711 37.8522 268.11C38.4529 267.509 39.2677 267.172 40.1172 267.172H97.7734C98.623 267.172 99.4377 267.509 100.038 268.11C100.639 268.711 100.977 269.525 100.977 270.375C100.977 271.224 100.639 272.039 100.038 272.64C99.4377 273.24 98.623 273.578 97.7734 273.578ZM97.7734 254.359H40.1172C39.2677 254.359 38.4529 254.022 37.8522 253.421C37.2515 252.82 36.9141 252.006 36.9141 251.156C36.9141 250.307 37.2515 249.492 37.8522 248.891C38.4529 248.29 39.2677 247.953 40.1172 247.953H97.7734C98.623 247.953 99.4377 248.29 100.038 248.891C100.639 249.492 100.977 250.307 100.977 251.156C100.977 252.006 100.639 252.82 100.038 253.421C99.4377 254.022 98.623 254.359 97.7734 254.359ZM97.7734 235.14H-1.52344C-2.37296 235.14 -3.18769 234.803 -3.78839 234.202C-4.38909 233.602 -4.72656 232.787 -4.72656 231.937C-4.72656 231.088 -4.38909 230.273 -3.78839 229.672C-3.18769 229.072 -2.37296 228.734 -1.52344 228.734H97.7734C98.623 228.734 99.4377 229.072 100.038 229.672C100.639 230.273 100.977 231.088 100.977 231.937C100.977 232.787 100.639 233.602 100.038 234.202C99.4377 234.803 98.623 235.14 97.7734 235.14ZM97.7734 215.922H-1.52344C-2.37296 215.922 -3.18769 215.584 -3.78839 214.984C-4.38909 214.383 -4.72656 213.568 -4.72656 212.719C-4.72656 211.869 -4.38909 211.054 -3.78839 210.454C-3.18769 209.853 -2.37296 209.515 -1.52344 209.515H97.7734C98.623 209.515 99.4377 209.853 100.038 210.454C100.639 211.054 100.977 211.869 100.977 212.719C100.977 213.568 100.639 214.383 100.038 214.984C99.4377 215.584 98.623 215.922 97.7734 215.922Z" fill="#01CBF8"/>
<path d="M84.0224 104.2L74.964 95.1416C74.3633 94.5411 73.5487 94.2037 72.6994 94.2037C71.85 94.2037 71.0354 94.5411 70.4348 95.1416L54.8067 110.77L50.1141 106.077C48.3096 104.28 45.8668 103.271 43.3203 103.271C40.7738 103.271 38.331 104.28 36.5265 106.077L27.3047 115.299L22.7754 110.77C20.9454 109.022 18.5122 108.047 15.9816 108.047C13.4511 108.047 11.0178 109.022 9.18778 110.77L-7.10332 127.058C-7.6868 127.662 -8.00965 128.471 -8.00236 129.311C-7.99506 130.15 -7.65818 130.954 -7.0643 131.548C-6.47041 132.142 -5.66703 132.478 -4.82718 132.486C-3.98733 132.493 -3.17822 132.17 -2.5741 131.587L13.7202 115.296C14.3298 114.714 15.1403 114.389 15.9832 114.389C16.8261 114.389 17.6366 114.714 18.2462 115.296L22.7754 119.828L-64.6475 207.251C-65.2482 207.852 -65.5858 208.666 -65.586 209.516V240.221L-74.2569 248.892C-74.8403 249.496 -75.1632 250.305 -75.1559 251.145C-75.1486 251.985 -74.8117 252.788 -74.2178 253.382C-73.6239 253.976 -72.8206 254.313 -71.9807 254.32C-71.1409 254.327 -70.3317 254.004 -69.7276 253.421L-61.0568 244.75H-30.3516C-29.5026 244.748 -28.6887 244.41 -28.087 243.811L73.0869 142.641C73.9794 141.748 74.6874 140.689 75.1704 139.523C75.6534 138.357 75.902 137.107 75.902 135.845C75.902 134.583 75.6534 133.334 75.1704 132.168C74.6874 131.002 73.9794 129.942 73.0869 129.05L68.3944 124.357L84.0224 108.729C84.6229 108.129 84.9603 107.314 84.9603 106.465C84.9603 105.615 84.6229 104.801 84.0224 104.2ZM-59.1797 238.344V217.248L-38.0839 238.344H-59.1797ZM68.5577 133.579C69.1582 134.18 69.4956 134.994 69.4956 135.844C69.4956 136.693 69.1582 137.508 68.5577 138.108L-30.3516 237.018L-41.838 225.531L45.5849 138.108C46.1684 137.504 46.4912 136.695 46.4839 135.855C46.4766 135.015 46.1398 134.212 45.5459 133.618C44.952 133.024 44.1486 132.687 43.3088 132.68C42.4689 132.673 41.6598 132.996 41.0557 133.579L-46.3672 221.002L-57.8536 209.516L41.0557 110.609C41.6564 110.009 42.4709 109.672 43.3203 109.672C44.1697 109.672 44.9842 110.009 45.5849 110.609L68.5577 133.579ZM63.8652 119.828L59.3359 115.299L72.6994 101.935L77.2286 106.465L63.8652 119.828Z" fill="#262B37"/>
</g>
<defs>
<filter id="filter0_f" x="-174" y="-3" width="393" height="393" filterUnits="userSpaceOnUse" color-interpolation-filters="sRGB">
<feFlood flood-opacity="0" result="BackgroundImageFix"/>
<feBlend mode="normal" in="SourceGraphic" in2="BackgroundImageFix" result="shape"/>
<feGaussianBlur stdDeviation="47" result="effect1_foregroundBlur"/>
</filter>
</defs>
</svg>
