<svg width="346" height="581" viewBox="0 0 346 581" fill="none" xmlns="http://www.w3.org/2000/svg">
<g opacity="0.67" filter="url(#filter0_f)">
<path d="M220.33 373.52L249.701 431.161L266.966 407.401L220.33 373.52Z" fill="#01CBF8"/>
<path d="M416.836 229.359H402.727V252.875C402.727 259.111 400.249 265.093 395.839 269.503C391.429 273.913 385.448 276.39 379.211 276.39C372.974 276.39 366.993 273.913 362.583 269.503C358.173 265.093 355.695 259.111 355.695 252.875V229.359H233.414C229.672 229.359 226.083 230.846 223.437 233.492C220.791 236.138 219.305 239.726 219.305 243.469V361.15L276.297 402.538C276.799 402.901 277.224 403.359 277.548 403.887C277.872 404.415 278.088 405.002 278.185 405.614C278.281 406.226 278.256 406.85 278.111 407.452C277.965 408.054 277.702 408.622 277.337 409.122L257.593 436.297H416.836C420.578 436.297 424.167 434.81 426.813 432.164C429.459 429.518 430.945 425.929 430.945 422.187V243.469C430.945 239.726 429.459 236.138 426.813 233.492C424.167 230.846 420.578 229.359 416.836 229.359ZM252.227 257.578H332.18C333.427 257.578 334.623 258.073 335.505 258.955C336.387 259.837 336.883 261.034 336.883 262.281C336.883 263.528 336.387 264.725 335.505 265.607C334.623 266.489 333.427 266.984 332.18 266.984H252.227C250.979 266.984 249.783 266.489 248.901 265.607C248.019 264.725 247.523 263.528 247.523 262.281C247.523 261.034 248.019 259.837 248.901 258.955C249.783 258.073 250.979 257.578 252.227 257.578ZM252.227 285.797H360.398C361.646 285.797 362.842 286.292 363.724 287.174C364.606 288.056 365.102 289.252 365.102 290.5C365.102 291.747 364.606 292.943 363.724 293.825C362.842 294.707 361.646 295.203 360.398 295.203H252.227C250.979 295.203 249.783 294.707 248.901 293.825C248.019 292.943 247.523 291.747 247.523 290.5C247.523 289.252 248.019 288.056 248.901 287.174C249.783 286.292 250.979 285.797 252.227 285.797ZM398.023 408.078H313.367C312.12 408.078 310.924 407.582 310.042 406.7C309.16 405.818 308.664 404.622 308.664 403.375C308.664 402.127 309.16 400.931 310.042 400.049C310.924 399.167 312.12 398.672 313.367 398.672H398.023C399.271 398.672 400.467 399.167 401.349 400.049C402.231 400.931 402.727 402.127 402.727 403.375C402.727 404.622 402.231 405.818 401.349 406.7C400.467 407.582 399.271 408.078 398.023 408.078ZM398.023 379.859H313.367C312.12 379.859 310.924 379.364 310.042 378.482C309.16 377.6 308.664 376.403 308.664 375.156C308.664 373.909 309.16 372.712 310.042 371.83C310.924 370.948 312.12 370.453 313.367 370.453H398.023C399.271 370.453 400.467 370.948 401.349 371.83C402.231 372.712 402.727 373.909 402.727 375.156C402.727 376.403 402.231 377.6 401.349 378.482C400.467 379.364 399.271 379.859 398.023 379.859ZM398.023 351.64H252.227C250.979 351.64 249.783 351.145 248.901 350.263C248.019 349.381 247.523 348.185 247.523 346.937C247.523 345.69 248.019 344.494 248.901 343.612C249.783 342.73 250.979 342.234 252.227 342.234H398.023C399.271 342.234 400.467 342.73 401.349 343.612C402.231 344.494 402.727 345.69 402.727 346.937C402.727 348.185 402.231 349.381 401.349 350.263C400.467 351.145 399.271 351.64 398.023 351.64ZM398.023 323.422H252.227C250.979 323.422 249.783 322.926 248.901 322.044C248.019 321.162 247.523 319.966 247.523 318.718C247.523 317.471 248.019 316.275 248.901 315.393C249.783 314.511 250.979 314.015 252.227 314.015H398.023C399.271 314.015 400.467 314.511 401.349 315.393C402.231 316.275 402.727 317.471 402.727 318.718C402.727 319.966 402.231 321.162 401.349 322.044C400.467 322.926 399.271 323.422 398.023 323.422Z" fill="#01CBF8"/>
<path d="M377.833 159.382L364.533 146.081C363.651 145.199 362.455 144.704 361.207 144.704C359.96 144.704 358.764 145.199 357.882 146.081L334.936 169.028L328.046 162.138C325.396 159.499 321.809 158.018 318.07 158.018C314.331 158.018 310.745 159.499 308.095 162.138L294.555 175.678L287.905 169.028C285.217 166.461 281.645 165.03 277.929 165.03C274.214 165.03 270.641 166.461 267.954 169.028L244.034 192.943C243.177 193.83 242.703 195.018 242.714 196.251C242.724 197.484 243.219 198.664 244.091 199.536C244.963 200.408 246.143 200.903 247.376 200.913C248.609 200.924 249.797 200.45 250.684 199.593L274.609 175.673C275.504 174.818 276.694 174.342 277.932 174.342C279.169 174.342 280.359 174.818 281.254 175.673L287.905 182.328L159.542 310.691C158.66 311.572 158.164 312.768 158.164 314.016V359.1L145.433 371.831C144.576 372.718 144.102 373.906 144.113 375.139C144.123 376.372 144.618 377.552 145.49 378.424C146.362 379.296 147.542 379.791 148.775 379.801C150.008 379.812 151.196 379.338 152.083 378.481L164.814 365.75H209.898C211.145 365.747 212.34 365.251 213.224 364.372L361.777 215.824C363.087 214.514 364.126 212.958 364.836 211.246C365.545 209.534 365.91 207.699 365.91 205.846C365.91 203.993 365.545 202.158 364.836 200.446C364.126 198.734 363.087 197.179 361.777 195.868L354.886 188.978L377.833 166.032C378.715 165.15 379.21 163.954 379.21 162.707C379.21 161.46 378.715 160.264 377.833 159.382ZM167.57 356.344V325.369L198.545 356.344H167.57ZM355.126 202.519C356.008 203.401 356.503 204.597 356.503 205.844C356.503 207.091 356.008 208.287 355.126 209.169L209.898 354.397L193.033 337.531L321.395 209.169C322.252 208.282 322.726 207.094 322.716 205.861C322.705 204.628 322.21 203.448 321.338 202.576C320.466 201.704 319.287 201.209 318.053 201.199C316.82 201.188 315.632 201.662 314.745 202.519L186.383 330.881L169.517 314.016L314.745 168.793C315.627 167.911 316.823 167.415 318.07 167.415C319.317 167.415 320.514 167.911 321.395 168.793L355.126 202.519ZM348.236 182.328L341.586 175.678L361.207 156.056L367.858 162.707L348.236 182.328Z" fill="#262B37"/>
</g>
<defs>
<filter id="filter0_f" x="-7" y="-4" width="589" height="589" filterUnits="userSpaceOnUse" color-interpolation-filters="sRGB">
<feFlood flood-opacity="0" result="BackgroundImageFix"/>
<feBlend mode="normal" in="SourceGraphic" in2="BackgroundImageFix" result="shape"/>
<feGaussianBlur stdDeviation="72" result="effect1_foregroundBlur"/>
</filter>
</defs>
</svg>
