<svg width="126" height="24" viewBox="0 0 126 24" fill="none" xmlns="http://www.w3.org/2000/svg">
<path d="M5.29199 23.1758C3.81738 23.1758 2.67969 22.8047 1.87891 22.0625C1.0293 21.2715 0.604492 20.0557 0.604492 18.415C0.604492 17.7998 0.667969 17.1162 0.794922 16.3643C0.912109 15.6123 1.09277 14.8604 1.33691 14.1084C1.61035 13.2686 1.95703 12.4727 2.37695 11.7207C2.80664 10.9688 3.30469 10.3047 3.87109 9.72852C5.17969 8.40039 6.79102 7.73633 8.70508 7.73633C9.92578 7.73633 10.8145 8.0293 11.3711 8.61523C11.8008 9.07422 12.0156 9.73828 12.0156 10.6074C12.0156 11.457 11.8301 12.2578 11.459 13.0098C11.0879 13.752 10.5752 14.4111 9.9209 14.9873C9.2666 15.5537 8.52441 16.0078 7.69434 16.3496C6.86426 16.6816 6.00488 16.877 5.11621 16.9355C5.06738 17.4434 5.04297 17.8438 5.04297 18.1367C5.04297 19.1133 5.22852 19.7871 5.59961 20.1582C5.92188 20.4902 6.45898 20.6562 7.21094 20.6562C8.29492 20.6562 9.28613 20.3633 10.1846 19.7773C10.5654 19.5332 10.9316 19.2451 11.2832 18.9131C11.6348 18.5713 12.0449 18.1416 12.5137 17.624H13.5391C12.5918 19.2256 11.5029 20.5 10.2725 21.4473C8.75879 22.5996 7.09863 23.1758 5.29199 23.1758ZM5.35059 15.5C5.90723 15.4609 6.44922 15.2998 6.97656 15.0166C7.50391 14.7334 7.97266 14.3623 8.38281 13.9033C8.79297 13.4346 9.11523 12.9121 9.34961 12.3359C9.58398 11.75 9.70117 11.1543 9.70117 10.5488C9.70117 10.1484 9.64258 9.8457 9.52539 9.64062C9.41797 9.42578 9.22754 9.31836 8.9541 9.31836C8.59277 9.31836 8.22656 9.49414 7.85547 9.8457C7.49414 10.1973 7.14258 10.6807 6.80078 11.2959C6.48828 11.8721 6.20508 12.5264 5.95117 13.2588C5.69727 13.9912 5.49707 14.7383 5.35059 15.5ZM23.9389 23.1758C22.6986 23.1758 21.7807 22.8242 21.185 22.1211C20.6674 21.5156 20.4086 20.7393 20.4086 19.792C20.4086 19.3428 20.4623 18.8203 20.5697 18.2246C20.6869 17.6289 20.8578 16.8623 21.0824 15.9248C21.307 14.9678 21.473 14.2061 21.5805 13.6396C21.6977 13.0635 21.7563 12.5654 21.7563 12.1455C21.7563 11.1201 21.3949 10.6074 20.6723 10.6074C20.1645 10.6074 19.6957 10.876 19.266 11.4131C18.9047 11.8721 18.5922 12.5264 18.3285 13.376L16.2924 23H11.9711L15.1498 8H19.4711L19.1488 9.55273C19.7348 8.89844 20.3646 8.43945 21.0385 8.17578C21.5365 7.98047 22.0736 7.88281 22.6498 7.88281C23.6654 7.88281 24.4662 8.14648 25.0521 8.67383C25.6771 9.25 25.9896 10.1143 25.9896 11.2666C25.9896 11.96 25.8627 12.8633 25.6088 13.9766C25.5404 14.2988 25.4281 14.7822 25.2719 15.4268C24.9887 16.5107 24.7836 17.375 24.6566 18.0195C24.5785 18.4297 24.5395 18.7617 24.5395 19.0156C24.5395 19.416 24.6273 19.7285 24.8031 19.9531C24.9887 20.168 25.3012 20.2754 25.7406 20.2754C26.3363 20.2754 26.8393 20.0312 27.2494 19.543C27.5619 19.1719 27.8988 18.5322 28.2602 17.624H29.5199C28.7777 19.8213 27.8402 21.3594 26.7074 22.2383C25.9066 22.8633 24.9838 23.1758 23.9389 23.1758ZM31.8338 23.1758C30.8768 23.1758 30.1199 22.8926 29.5633 22.3262C28.9383 21.7012 28.6258 20.7881 28.6258 19.5869C28.6258 19.0205 28.7039 18.3662 28.8602 17.624L30.6619 9.20117H29.6658L29.9148 8H30.8963L31.8045 3.85449L36.243 3.25391L35.2176 8H37.0193L36.785 9.20117H34.9832L33.0643 18.1953C32.9861 18.4492 32.9471 18.7715 32.9471 19.1621C32.9471 19.5723 33.0398 19.8604 33.2254 20.0264C33.4207 20.1924 33.7332 20.2754 34.1629 20.2754C34.4559 20.2754 34.7391 20.2119 35.0125 20.085C35.2957 19.9482 35.5545 19.7627 35.7889 19.5283C36.2674 19.0498 36.6287 18.415 36.8729 17.624H38.1326C37.5955 19.1377 36.9217 20.3438 36.1111 21.2422C35.4275 21.9746 34.6561 22.502 33.7967 22.8242C33.1717 23.0586 32.5174 23.1758 31.8338 23.1758ZM38.6008 13.9766H44.592L44.0939 16.335H38.0588L38.6008 13.9766ZM51.3736 4.2793H48.5318L48.8834 2.90234C49.9869 2.90234 51.0123 2.78027 51.9596 2.53613C53.4537 2.14551 54.9723 1.48633 56.5152 0.558594L51.7398 23H47.4186L51.3736 4.2793ZM64.3809 16.54L63.7803 16.3643C63.0576 16.1494 62.4521 15.9932 61.9639 15.8955C61.4854 15.7881 60.9824 15.7344 60.4551 15.7344C59.8496 15.7344 59.2832 15.7783 58.7559 15.8662C58.2285 15.9541 57.7158 16.1201 57.2178 16.3643H57.1006L56.4707 15.1924V15.0459C58.4824 12.6533 59.9961 10.6025 61.0117 8.89355C62.3594 6.6084 63.0332 4.57715 63.0332 2.7998C63.0332 2.14551 62.9551 1.52539 62.7988 0.939453C63.2383 0.8125 63.7363 0.749023 64.293 0.749023C65.1914 0.749023 65.8994 0.998047 66.417 1.49609C66.6514 1.73047 66.832 2.00879 66.959 2.33105C67.0859 2.64355 67.1494 2.98047 67.1494 3.3418C67.1494 4.25 66.7246 5.36816 65.875 6.69629C65.1621 7.80957 64.1855 9.02051 62.9453 10.3291C61.7734 11.5498 60.6846 12.5508 59.6787 13.332L59.708 13.4199C60.0693 13.2734 60.4893 13.1465 60.9678 13.0391C61.4561 12.9316 61.9248 12.8779 62.374 12.8779C62.7158 12.8779 63.0674 12.9072 63.4287 12.9658C63.7998 13.0146 64.3027 13.0977 64.9375 13.2148L65.4941 13.3174L67.9258 6.31543H69.8447L68.3652 13.2881C69.0293 13.0342 69.6641 12.5605 70.2695 11.8672L70.3574 11.9258C70.6797 12.4727 70.8408 13.0195 70.8408 13.5664C70.8408 14.3574 70.5381 15.0557 69.9326 15.6611C69.3271 16.2568 68.5557 16.6426 67.6182 16.8184L66.3145 23H62.1396L64.3809 16.54ZM78.6332 23.3076C76.4359 23.3076 74.8393 22.5801 73.8432 21.125C73.0033 19.8945 72.5834 18.1221 72.5834 15.8076C72.5834 14.4404 72.6908 13.1025 72.9057 11.7939C73.1303 10.4854 73.4525 9.25488 73.8725 8.10254C74.2924 6.9502 74.8051 5.90039 75.4105 4.95312C76.016 3.99609 76.6947 3.18066 77.4467 2.50684C78.2182 1.80371 79.0531 1.2666 79.9516 0.895508C80.85 0.524414 81.7973 0.338867 82.7934 0.338867C84.7172 0.338867 86.1771 0.998047 87.1732 2.31641C87.6322 2.94141 87.9789 3.69824 88.2133 4.58691C88.4477 5.47559 88.5648 6.4668 88.5648 7.56055C88.5648 9.13281 88.3939 10.7686 88.0521 12.4678C87.6713 14.3818 87.1098 16.1006 86.3676 17.624C85.518 19.3721 84.4975 20.7197 83.3061 21.667C81.9096 22.7607 80.352 23.3076 78.6332 23.3076ZM79.0287 21.0371C79.5072 21.0371 79.976 20.8467 80.435 20.4658C80.9037 20.0752 81.348 19.5234 81.768 18.8105C82.5883 17.4043 83.2475 15.5879 83.7455 13.3613C84.2436 11.0762 84.4926 8.79102 84.4926 6.50586C84.4926 5.26562 84.3559 4.24023 84.0824 3.42969C83.7699 2.56055 83.3256 2.12598 82.7494 2.12598C82.2807 2.12598 81.8119 2.32617 81.3432 2.72656C80.8842 3.11719 80.4398 3.66895 80.0102 4.38184C79.5902 5.09473 79.1996 5.91992 78.8383 6.85742C78.477 7.78516 78.1693 8.78125 77.9154 9.8457C77.349 12.1406 77.0658 14.377 77.0658 16.5547C77.0658 17.8926 77.1928 18.9229 77.4467 19.6455C77.7592 20.5732 78.2865 21.0371 79.0287 21.0371ZM91.3475 23.1172C91.0252 23.1172 90.7176 23.0586 90.4246 22.9414C90.1316 22.8145 89.8777 22.6436 89.6629 22.4287C89.448 22.2139 89.2771 21.96 89.1502 21.667C89.033 21.374 88.9744 21.0664 88.9744 20.7441C88.9744 20.4219 89.033 20.1143 89.1502 19.8213C89.2771 19.5283 89.448 19.2744 89.6629 19.0596C89.8777 18.8447 90.1316 18.6738 90.4246 18.5469C90.7176 18.4199 91.0252 18.3564 91.3475 18.3564C91.6697 18.3564 91.9773 18.4199 92.2703 18.5469C92.5633 18.6738 92.8221 18.8447 93.0467 19.0596C93.2713 19.2744 93.4422 19.5283 93.5594 19.8213C93.6863 20.1143 93.7498 20.4219 93.7498 20.7441C93.7498 21.0664 93.6863 21.374 93.5594 21.667C93.4422 21.96 93.2713 22.2139 93.0467 22.4287C92.8221 22.6436 92.5633 22.8145 92.2703 22.9414C91.9773 23.0586 91.6697 23.1172 91.3475 23.1172ZM107.841 23.1758C106.601 23.1758 105.658 22.8828 105.014 22.2969C104.379 21.7109 104.062 20.8662 104.062 19.7627C104.062 19.2842 104.12 18.7617 104.238 18.1953L104.487 17.0234C104.565 16.7207 104.604 16.3545 104.604 15.9248C104.604 15.4561 104.521 15.0996 104.355 14.8555C104.189 14.6016 103.91 14.4746 103.52 14.4746C103.197 14.4746 102.861 14.5674 102.509 14.7529C102.157 14.9385 101.757 15.2168 101.308 15.5879L99.7404 23H95.4191L99.7697 2.59473L104.208 1.99414L101.967 12.5557L107.753 8H110.727L104.721 12.1748C105.063 12.0869 105.395 12.043 105.717 12.043C106.264 12.043 106.742 12.1357 107.153 12.3213C107.572 12.4971 107.924 12.751 108.207 13.083C108.471 13.3955 108.671 13.7666 108.808 14.1963C108.945 14.6162 109.013 15.0703 109.013 15.5586C109.013 16.0176 108.974 16.3984 108.896 16.7012L108.559 18.1953C108.461 18.5176 108.412 18.8398 108.412 19.1621C108.412 19.5039 108.5 19.7773 108.676 19.9824C108.852 20.1777 109.154 20.2754 109.584 20.2754C110.18 20.2754 110.683 20.0312 111.093 19.543C111.405 19.1719 111.742 18.5322 112.104 17.624H113.363C112.631 19.8408 111.669 21.3936 110.478 22.2822C109.696 22.8779 108.818 23.1758 107.841 23.1758ZM120.365 9.62598H118.695C118.158 9.62598 117.767 9.65039 117.523 9.69922C117.201 9.75781 117.04 9.88965 117.04 10.0947C117.04 10.1436 117.059 10.1729 117.098 10.1826C117.176 10.2021 117.25 10.2705 117.318 10.3877C117.347 10.4561 117.362 10.5781 117.362 10.7539C117.362 11.2812 117.196 11.6865 116.864 11.9697C116.551 12.2236 116.18 12.3506 115.751 12.3506C115.399 12.3506 115.087 12.2383 114.813 12.0137C114.52 11.7695 114.374 11.4424 114.374 11.0322C114.374 10.7197 114.457 10.3877 114.623 10.0361C114.789 9.6748 115.018 9.34766 115.311 9.05469C115.624 8.73242 115.995 8.47852 116.424 8.29297C116.864 8.09766 117.338 8 117.845 8H125.565L118.212 20.6855C118.309 20.6953 118.651 20.7295 119.237 20.7881C119.647 20.8467 120.062 20.876 120.482 20.876C120.892 20.876 121.219 20.832 121.463 20.7441C121.708 20.6562 121.854 20.5 121.903 20.2754C121.708 20.2559 121.561 20.1924 121.463 20.085C121.376 19.9678 121.332 19.8213 121.332 19.6455C121.332 19.499 121.366 19.3525 121.434 19.2061C121.512 19.0498 121.62 18.9082 121.756 18.7812C122.088 18.498 122.504 18.3564 123.002 18.3564C123.451 18.3564 123.783 18.4883 123.998 18.752C124.222 19.0156 124.335 19.3623 124.335 19.792C124.335 20.1436 124.252 20.5098 124.086 20.8906C123.92 21.2617 123.68 21.6035 123.368 21.916C123.036 22.248 122.64 22.5117 122.181 22.707C121.732 22.9023 121.229 23 120.672 23H112.718L120.365 9.62598Z" fill="white"/>
</svg>
