<svg width="238" height="238" viewBox="0 0 238 238" fill="none" xmlns="http://www.w3.org/2000/svg">
<g opacity="0.7" clip-path="url(#clip0)">
<path d="M215.752 139.445C217.175 133.981 217.493 128.287 216.685 122.699C215.877 117.111 213.96 111.741 211.047 106.904C208.135 102.067 204.284 97.8605 199.723 94.5325C195.162 91.2046 189.981 88.8218 184.486 87.5242C178.991 86.2267 173.292 86.0405 167.724 86.9766C162.156 87.9128 156.831 89.9523 152.062 92.9755C147.293 95.9987 143.177 99.9445 139.954 104.581C136.732 109.218 134.469 114.452 133.298 119.975C140.474 115.61 148.662 113.188 157.057 112.947C165.452 112.707 173.765 114.655 181.179 118.601C188.593 122.548 194.852 128.356 199.341 135.455C203.829 142.553 206.393 150.698 206.779 159.088L222.858 159.678C223.408 159.697 223.953 159.566 224.434 159.299C224.915 159.033 225.315 158.64 225.59 158.163C225.865 157.687 226.005 157.144 225.996 156.594C225.986 156.044 225.827 155.507 225.535 155.04L215.752 139.445Z" fill="#01CBF8"/>
<path d="M147.407 120.445C140.24 122.355 133.699 126.113 128.441 131.345C123.183 136.576 119.39 143.097 117.444 150.255C115.497 157.413 115.465 164.956 117.35 172.13C119.235 179.304 122.971 185.858 128.184 191.134L127.509 209.532C127.49 210.082 127.621 210.626 127.888 211.108C128.155 211.589 128.547 211.988 129.024 212.264C129.5 212.539 130.043 212.679 130.593 212.669C131.143 212.66 131.68 212.501 132.147 212.209L147.742 202.426C154.024 204.057 160.595 204.224 166.951 202.914C173.307 201.604 179.278 198.853 184.403 194.871C189.528 190.89 193.67 185.786 196.511 179.951C199.352 174.116 200.816 167.708 200.79 161.218C200.763 154.729 199.247 148.332 196.358 142.521C193.47 136.709 189.286 131.639 184.128 127.7C178.971 123.761 172.978 121.058 166.612 119.8C160.245 118.542 153.675 118.763 147.407 120.445L147.407 120.445ZM139.049 147.774L168.31 139.933C169.086 139.725 169.913 139.834 170.609 140.236C171.305 140.638 171.812 141.299 172.02 142.075C172.228 142.852 172.119 143.678 171.718 144.374C171.316 145.07 170.654 145.578 169.878 145.786L140.617 153.626C139.841 153.834 139.014 153.725 138.318 153.323C137.623 152.922 137.115 152.26 136.907 151.484C136.699 150.708 136.808 149.881 137.21 149.185C137.611 148.49 138.273 147.982 139.049 147.774ZM177.719 175.047L148.458 182.887C147.682 183.095 146.855 182.986 146.159 182.585C145.463 182.183 144.955 181.521 144.748 180.745C144.54 179.969 144.648 179.142 145.05 178.446C145.452 177.751 146.114 177.243 146.89 177.035L176.151 169.194C176.927 168.987 177.754 169.095 178.449 169.497C179.145 169.899 179.653 170.561 179.861 171.337C180.069 172.113 179.96 172.939 179.558 173.635C179.156 174.331 178.495 174.839 177.719 175.047ZM182.577 158.064L135.759 170.609C134.983 170.817 134.156 170.708 133.46 170.306C132.765 169.904 132.257 169.243 132.049 168.467C131.841 167.691 131.95 166.864 132.352 166.168C132.753 165.472 133.415 164.965 134.191 164.757L181.009 152.212C181.785 152.004 182.612 152.113 183.307 152.514C184.003 152.916 184.511 153.578 184.719 154.354C184.927 155.13 184.818 155.957 184.416 156.653C184.015 157.348 183.353 157.856 182.577 158.064Z" fill="#01CBF8"/>
<g filter="url(#filter0_b)">
<path d="M40.8169 85.4656C38.4771 86.0745 36.3709 87.3646 34.7654 89.1722C33.1599 90.9799 32.1274 93.2236 31.7989 95.6189C31.4704 98.0142 31.8607 100.453 32.9202 102.626C33.9798 104.799 35.6609 106.609 37.7503 107.825C39.8397 109.042 42.2433 109.61 44.6562 109.458C47.0692 109.307 49.3827 108.442 51.3035 106.974C53.2242 105.505 54.6656 103.5 55.4448 101.211C56.224 98.9222 56.3059 96.4537 55.6802 94.1184C54.8537 91.0017 52.8246 88.3403 50.038 86.7181C47.2515 85.0958 43.9352 84.6454 40.8169 85.4656ZM45.5552 103.149C44.3898 103.47 43.1552 103.438 42.0081 103.057C40.861 102.676 39.853 101.962 39.1119 101.007C38.3709 100.052 37.9301 98.8984 37.8456 97.6925C37.7612 96.4866 38.0367 95.2828 38.6374 94.2337C39.238 93.1846 40.1367 92.3376 41.2194 91.8C42.3022 91.2624 43.5202 91.0585 44.719 91.2141C45.9177 91.3698 47.0433 91.8779 47.9529 92.6742C48.8625 93.4704 49.5151 94.5188 49.8279 95.6865C50.2487 97.2426 50.0352 98.9021 49.2342 100.301C48.4333 101.7 47.1102 102.724 45.5552 103.149Z" fill="#262B37"/>
</g>
<g filter="url(#filter1_b)">
<path d="M84.9412 86.2779C84.3053 83.971 83.0005 81.9041 81.1915 80.3377C79.3825 78.7713 77.1503 77.7755 74.7762 77.476C72.4021 77.1765 69.9924 77.5866 67.8511 78.6546C65.7097 79.7226 63.9325 81.4007 62.7435 83.4773C61.5545 85.5539 61.0069 87.9361 61.1699 90.3235C61.3328 92.7108 62.199 94.9965 63.6591 96.8923C65.1192 98.7881 67.108 100.209 69.3746 100.976C71.6412 101.743 74.0842 101.822 76.3956 101.203C79.5062 100.354 82.153 98.306 83.7551 95.5078C85.3573 92.7097 85.7838 89.3902 84.9412 86.2779ZM74.8162 95.3086C73.6508 95.6298 72.4163 95.5978 71.2692 95.2164C70.1221 94.8351 69.1141 94.1216 68.373 93.1665C67.6319 92.2115 67.1912 91.0579 67.1067 89.852C67.0222 88.6461 67.2978 87.4423 67.8984 86.3932C68.4991 85.3441 69.3978 84.4971 70.4805 83.9595C71.5632 83.4219 72.7812 83.218 73.98 83.3737C75.1788 83.5293 76.3044 84.0374 77.2139 84.8337C78.1235 85.6299 78.7761 86.6783 79.089 87.846C79.5098 89.4021 79.2963 91.0616 78.4953 92.4606C77.6943 93.8595 76.3712 94.8837 74.8162 95.3086Z" fill="#262B37"/>
</g>
<g filter="url(#filter2_b)">
<path d="M105.657 93.3626C107.996 92.7536 110.103 91.4635 111.708 89.6559C113.314 87.8483 114.346 85.6045 114.675 83.2092C115.003 80.814 114.613 78.3751 113.553 76.2019C112.494 74.0288 110.813 72.2193 108.723 71.0029C106.634 69.7865 104.23 69.2181 101.817 69.3697C99.4044 69.5213 97.0908 70.3861 95.1701 71.8545C93.2494 73.3228 91.808 75.3285 91.0288 77.6172C90.2496 79.9059 90.1677 82.3745 90.7934 84.7098C91.6198 87.8264 93.649 90.4879 96.4355 92.1101C99.2221 93.7323 102.538 94.1828 105.657 93.3626ZM100.918 75.6791C102.084 75.3578 103.318 75.3899 104.465 75.7713C105.613 76.1526 106.621 76.8661 107.362 77.8211C108.103 78.7762 108.543 79.9298 108.628 81.1357C108.712 82.3416 108.437 83.5454 107.836 84.5945C107.236 85.6435 106.337 86.4906 105.254 87.0282C104.171 87.5657 102.953 87.7696 101.755 87.614C100.556 87.4584 99.4303 86.9502 98.5207 86.154C97.6111 85.3578 96.9585 84.3093 96.6456 83.1417C96.2249 81.5856 96.4384 79.9261 97.2393 78.5271C98.0403 77.1282 99.3634 76.104 100.918 75.6791Z" fill="#262B37"/>
</g>
<g filter="url(#filter3_b)">
<path d="M156.402 66.2941L127.374 69.0736L117.272 31.3734C116.936 30.0926 116.323 28.9007 115.479 27.8806C114.634 26.8606 113.577 26.037 112.382 25.4673C111.186 24.8975 109.881 24.5953 108.556 24.5817C107.232 24.5681 105.921 24.8434 104.714 25.3885L15.2905 66.1986C13.3241 67.0962 11.7413 68.6643 10.8255 70.6223C9.90966 72.5802 9.72053 74.8002 10.292 76.8849L24.7482 130.836C25.3682 133.174 26.8901 135.169 28.98 136.386C31.0698 137.603 33.5569 137.941 35.8956 137.326L50.5262 133.406L55.2644 151.089C55.5504 152.18 56.1352 153.169 56.9529 153.946C57.7707 154.722 58.7889 155.255 59.893 155.484C60.9972 155.714 62.1434 155.63 63.2027 155.243C64.262 154.857 65.1923 154.182 65.8889 153.295L67.7578 150.897L69.338 156.795C69.958 159.132 71.4799 161.128 73.5698 162.344C75.6596 163.561 78.1467 163.899 80.4854 163.284L120.477 152.569L156.131 167.021C157.177 167.442 158.321 167.562 159.432 167.367C160.543 167.173 161.578 166.672 162.42 165.921C163.262 165.17 163.877 164.199 164.197 163.117C164.516 162.036 164.527 160.886 164.229 159.798L159.49 142.115L174.121 138.195C176.454 137.558 178.439 136.022 179.64 133.923C180.842 131.824 181.162 129.335 180.53 127.001L166.074 73.0495C165.526 70.9584 164.253 69.1304 162.48 67.8926C160.708 66.6549 158.554 66.0883 156.402 66.2941ZM61.1166 149.521L55.5886 128.89C55.4869 128.504 55.31 128.142 55.0682 127.824C54.8263 127.506 54.5242 127.239 54.1791 127.038C53.834 126.837 53.4527 126.707 53.057 126.653C52.6612 126.6 52.2589 126.625 51.8728 126.727L34.3162 131.431C33.5366 131.637 32.7074 131.524 32.0107 131.118C31.314 130.713 30.8068 130.047 30.6004 129.268L16.1442 75.3168C15.9536 74.6222 16.0163 73.8824 16.3213 73.2299C16.6262 72.5773 17.1534 72.0546 17.8086 71.7552L107.232 30.9451C107.634 30.7624 108.072 30.6698 108.514 30.6739C108.956 30.678 109.391 30.7787 109.79 30.9688C110.189 31.159 110.542 31.4341 110.824 31.7749C111.105 32.1156 111.309 32.5138 111.42 32.9415L130.088 102.61C130.299 103.389 130.192 104.219 129.792 104.918C129.391 105.618 128.729 106.13 127.952 106.342L86.9861 117.318C86.3526 117.488 85.792 117.861 85.3897 118.379L61.1166 149.521ZM174.678 128.569C174.889 129.347 174.782 130.177 174.382 130.876C173.981 131.576 173.319 132.088 172.541 132.3L154.985 137.004C154.599 137.109 154.238 137.288 153.922 137.533C153.606 137.777 153.342 138.081 153.143 138.427C152.945 138.774 152.817 139.156 152.766 139.552C152.715 139.948 152.743 140.35 152.848 140.736L158.376 161.366L121.784 146.533C121.177 146.285 120.505 146.243 119.872 146.413L78.906 157.39C78.1264 157.595 77.2972 157.482 76.6005 157.077C75.9038 156.671 75.3966 156.006 75.1902 155.226L72.4256 144.909L89.5399 122.952L155.866 105.18C156.643 104.966 157.303 104.453 157.703 103.754C158.104 103.055 158.211 102.226 158.003 101.448C157.794 100.67 157.287 100.006 156.59 99.601C155.894 99.1958 155.066 99.0823 154.287 99.2853L136.191 104.134C136.285 103.097 136.2 102.051 135.94 101.042L133.571 92.2006L151.128 87.4963C151.904 87.2824 152.565 86.77 152.965 86.071C153.365 85.372 153.473 84.543 153.265 83.7649C153.056 82.9868 152.548 82.3228 151.852 81.9175C151.156 81.5123 150.328 81.3988 149.548 81.6018L131.992 86.3061L128.975 75.0487L156.999 72.3653C157.716 72.297 158.434 72.4861 159.025 72.8988C159.615 73.3114 160.039 73.9207 160.222 74.6176L174.678 128.569Z" fill="#262B37"/>
</g>
<g filter="url(#filter4_b)">
<path d="M159.025 116.969L88.7983 135.786C88.0217 136 87.3612 136.512 86.9609 137.211C86.5606 137.91 86.4529 138.739 86.6614 139.517C86.8699 140.295 87.3776 140.959 88.0738 141.365C88.77 141.77 89.5981 141.883 90.3777 141.68L160.604 122.863C161.381 122.649 162.041 122.137 162.442 121.438C162.842 120.739 162.95 119.91 162.741 119.132C162.533 118.354 162.025 117.69 161.329 117.284C160.633 116.879 159.804 116.766 159.025 116.969Z" fill="#262B37"/>
</g>
</g>
<defs>
<filter id="filter0_b" x="26.6857" y="80.0651" width="34.4103" height="34.4173" filterUnits="userSpaceOnUse" color-interpolation-filters="sRGB">
<feFlood flood-opacity="0" result="BackgroundImageFix"/>
<feGaussianBlur in="BackgroundImage" stdDeviation="2.5"/>
<feComposite in2="SourceAlpha" operator="in" result="effect1_backgroundBlur"/>
<feBlend mode="normal" in="SourceGraphic" in2="effect1_backgroundBlur" result="shape"/>
</filter>
<filter id="filter1_b" x="56.1418" y="72.3807" width="34.2225" height="34.2352" filterUnits="userSpaceOnUse" color-interpolation-filters="sRGB">
<feFlood flood-opacity="0" result="BackgroundImageFix"/>
<feGaussianBlur in="BackgroundImage" stdDeviation="2.5"/>
<feComposite in2="SourceAlpha" operator="in" result="effect1_backgroundBlur"/>
<feBlend mode="normal" in="SourceGraphic" in2="effect1_backgroundBlur" result="shape"/>
</filter>
<filter id="filter2_b" x="85.3775" y="64.3457" width="34.4103" height="34.4173" filterUnits="userSpaceOnUse" color-interpolation-filters="sRGB">
<feFlood flood-opacity="0" result="BackgroundImageFix"/>
<feGaussianBlur in="BackgroundImage" stdDeviation="2.5"/>
<feComposite in2="SourceAlpha" operator="in" result="effect1_backgroundBlur"/>
<feBlend mode="normal" in="SourceGraphic" in2="effect1_backgroundBlur" result="shape"/>
</filter>
<filter id="filter3_b" x="4.96814" y="19.5812" width="180.879" height="152.877" filterUnits="userSpaceOnUse" color-interpolation-filters="sRGB">
<feFlood flood-opacity="0" result="BackgroundImageFix"/>
<feGaussianBlur in="BackgroundImage" stdDeviation="2.5"/>
<feComposite in2="SourceAlpha" operator="in" result="effect1_backgroundBlur"/>
<feBlend mode="normal" in="SourceGraphic" in2="effect1_backgroundBlur" result="shape"/>
</filter>
<filter id="filter4_b" x="81.5574" y="111.87" width="86.2876" height="34.9086" filterUnits="userSpaceOnUse" color-interpolation-filters="sRGB">
<feFlood flood-opacity="0" result="BackgroundImageFix"/>
<feGaussianBlur in="BackgroundImage" stdDeviation="2.5"/>
<feComposite in2="SourceAlpha" operator="in" result="effect1_backgroundBlur"/>
<feBlend mode="normal" in="SourceGraphic" in2="effect1_backgroundBlur" result="shape"/>
</filter>
<clipPath id="clip0">
<rect width="193.877" height="193.877" fill="white" transform="translate(0 50.1792) rotate(-15)"/>
</clipPath>
</defs>
</svg>
