<svg width="40" height="40" viewBox="0 0 40 40" fill="none" xmlns="http://www.w3.org/2000/svg">
<path d="M29.6 40H10.4C4.65624 40 0 35.3438 0 29.6V10.4C0 4.65624 4.65624 0 10.4 0H29.6C35.3438 0 40 4.65624 40 10.4V29.6C40 35.3438 35.3438 40 29.6 40Z" fill="white"/>
<path d="M25.0008 10.3999H14.9992C12.4632 10.3999 10.4 12.4801 10.4 14.9601V25.0397C10.4 27.5197 12.4632 29.5999 14.9992 29.5999H25.0008C27.5368 29.5999 29.6 27.5197 29.6 25.0397V14.9601C29.6 12.4801 27.5368 10.3999 25.0008 10.3999ZM28.3888 25.0397C28.3888 26.8797 26.8688 28.3999 25.0008 28.3999H14.9992C13.1312 28.3999 11.6112 26.8797 11.6112 25.0397V14.9601C11.6112 13.1201 13.1312 11.5999 14.9992 11.5999H25.0008C26.8688 11.5999 28.3888 13.1201 28.3888 14.9601V25.0397Z" fill="#262B37"/>
<path d="M20 15.2798C17.4048 15.2798 15.2943 17.4401 15.2943 20.0001C15.2943 22.5601 17.4048 24.7204 20 24.7204C22.5952 24.7204 24.7064 22.5601 24.7064 20.0001C24.7064 17.4401 22.5952 15.2798 20 15.2798ZM20 23.5204C18.0728 23.5204 16.5047 21.9201 16.5047 20.0001C16.5047 18.0801 18.0728 16.4798 20 16.4798C21.9272 16.4798 23.4943 18.0801 23.4943 20.0001C23.4943 21.9201 21.9272 23.5204 20 23.5204Z" fill="#262B37"/>
</svg>
