<svg width="40" height="40" viewBox="0 0 40 40" fill="none" xmlns="http://www.w3.org/2000/svg">
<path d="M29.6 40H10.4C4.65624 40 0 35.3438 0 29.6V10.4C0 4.65624 4.65624 0 10.4 0H29.6C35.3438 0 40 4.65624 40 10.4V29.6C40 35.3438 35.3438 40 29.6 40Z" fill="white"/>
<g clip-path="url(#clip0)">
<path d="M29.4299 29.9985C29.7467 29.986 30 29.725 30 29.4052C29.9449 28.1685 29.9693 26.9183 29.993 25.7088C30.0883 20.8346 30.1707 16.6213 24.9824 16.6213C23.7656 16.6213 22.7907 17.0272 22.0798 17.5702L29.4299 29.9985ZM29.4299 29.9985C29.4288 29.9701 29.408 29.9489 29.4076 29.9489L29.4074 29.9489L29.4074 29.9489L29.4299 29.9985ZM29.3851 29.9989C29.3846 29.9839 29.3897 29.967 29.4062 29.9501V29.9989L29.3851 29.9989ZM29.943 25.707C29.9193 26.9164 29.8949 28.1682 29.95 29.4063C29.9494 29.7057 29.7062 29.9487 29.4067 29.9489C29.4065 29.9489 29.4064 29.9489 29.4062 29.9489L29.4029 29.9489L29.379 29.9489L29.2742 29.949L28.8753 29.949L27.6225 29.9493L25.717 29.9497C25.5891 29.9497 25.4929 29.9272 25.4193 29.8828C25.3463 29.8389 25.2906 29.7707 25.2489 29.6698C25.1636 29.4637 25.1411 29.1338 25.1463 28.6395C25.149 28.3842 25.159 28.0873 25.1705 27.7446C25.2033 26.7689 25.2486 25.4228 25.1733 23.6155C25.1733 22.734 25.1262 22.0847 24.9315 21.6555C24.8332 21.4387 24.6964 21.2761 24.5082 21.1684C24.3207 21.0612 24.0865 21.011 23.7972 21.011C23.2788 21.011 22.854 21.1125 22.5631 21.4882C22.2756 21.8593 22.1276 22.4878 22.1275 23.5157C22.0518 25.36 22.0979 26.7301 22.1312 27.7211C22.1428 28.0663 22.1529 28.3655 22.1557 28.6228C22.1612 29.1239 22.1389 29.4578 22.0534 29.6663C22.0116 29.7683 21.9557 29.8373 21.8825 29.8815C21.8087 29.9262 21.7121 29.9489 21.5837 29.9489H17.8946C17.7573 29.9489 17.6576 29.9293 17.5824 29.8805C17.5084 29.8324 17.4505 29.751 17.4077 29.6106C17.3646 29.4694 17.3382 29.2734 17.3243 29.0029C17.3104 28.733 17.309 28.3921 17.3146 27.9624C17.3192 27.6106 17.3284 27.2 17.3392 26.7212C17.381 24.8613 17.4459 21.9731 17.3508 17.513C17.3511 17.2136 17.5938 16.9706 17.8931 16.9698C18.616 17.0128 19.2363 17.005 19.7598 16.9872C19.9415 16.981 20.1109 16.9737 20.2688 16.9669C20.5675 16.954 20.8247 16.9429 21.0441 16.9449C21.3809 16.9479 21.6137 16.9824 21.7626 17.0791C21.9052 17.1716 21.9802 17.3285 21.9802 17.6085V17.7115L22.0612 17.6479C22.7678 17.0922 23.749 16.6713 24.9824 16.6713C26.5929 16.6713 27.6847 17.0792 28.425 17.7804C29.1662 18.4824 29.5621 19.485 29.7664 20.6891C29.9707 21.8932 29.9823 23.2926 29.9597 24.7828C29.9551 25.0874 29.9491 25.3958 29.943 25.707ZM20.99 28.8614H21.04V28.8114C21.04 28.0293 21.0219 27.2732 21.0047 26.5554C20.9943 26.1194 20.9842 25.6976 20.9787 25.2927C20.9641 24.2193 20.9818 23.263 21.1097 22.4646C21.2377 21.666 21.4751 21.032 21.8947 20.5976C22.3126 20.1648 22.918 19.9235 23.7972 19.9235C24.5662 19.9235 25.0975 20.126 25.4669 20.5095C25.8379 20.8948 26.0526 21.4698 26.1716 22.2297C26.2906 22.9892 26.3132 23.9262 26.3057 25.0292C26.3027 25.4752 26.2947 25.9487 26.2863 26.4483C26.274 27.1818 26.2608 27.9715 26.2608 28.8122V28.8622H26.3108H28.8125H28.8625V28.8122V22.8723C28.8625 21.0246 28.6033 19.7443 27.9844 18.9261C27.3625 18.1039 26.3861 17.7588 24.9824 17.7588C23.3954 17.7588 22.3671 18.6336 21.9694 19.3887C21.8313 19.6503 21.5652 19.7187 21.328 19.6539C21.0887 19.5885 20.8927 19.3916 20.8927 19.1349V18.1073V18.0573H20.8427H18.4883H18.4383V18.1073V28.8114V28.8614H18.4883H20.99Z" fill="#262B37" stroke="#A6A6A6" stroke-width="0.1"/>
<path d="M14.9876 28.8626H15.0376V28.8126V18.1085V18.0585H14.9876H12.482H12.432V18.1085V28.8126V28.8626H12.482H14.9876ZM11.3445 29.4069C11.4395 24.9422 11.3752 22.0533 11.3338 20.194C11.3231 19.7145 11.3139 19.3035 11.3094 18.9516C11.304 18.5224 11.3054 18.1821 11.3193 17.9129C11.3333 17.6431 11.3596 17.4478 11.4026 17.3072C11.4454 17.1674 11.5031 17.0866 11.5769 17.0389C11.6516 16.9906 11.7505 16.9712 11.8867 16.971C12.858 17.0311 13.6755 16.9976 14.3237 16.971C14.6094 16.9592 14.8622 16.9489 15.0809 16.9485C15.4424 16.9478 15.705 16.9743 15.8766 17.0587C15.9607 17.1001 16.0216 17.1548 16.0621 17.2266C16.1028 17.2988 16.125 17.3922 16.1251 17.5142C16.0301 21.9789 16.0944 24.8679 16.1358 26.7272C16.1465 27.2067 16.1556 27.6177 16.1601 27.9696C16.1656 28.3987 16.1642 28.7391 16.1503 29.0083C16.1363 29.2781 16.11 29.4734 16.067 29.614C16.0242 29.7537 15.9665 29.8346 15.8927 29.8823C15.8177 29.9308 15.7183 29.9501 15.5814 29.9501H11.8882C11.5883 29.9501 11.3448 29.7068 11.3445 29.4069Z" fill="#262B37" stroke="#A6A6A6" stroke-width="0.1"/>
<path d="M13.7332 16.4355C12.8469 16.4355 12.1843 16.0984 11.7423 15.5954C11.2995 15.0913 11.0758 14.4178 11.0745 13.7426C11.0731 13.0674 11.2941 12.394 11.7361 11.8901C12.1773 11.3871 12.8412 11.05 13.7332 11.05C14.6261 11.05 15.2904 11.3871 15.7315 11.8901C16.1736 12.394 16.3942 13.0674 16.3925 13.7426C16.3907 14.4178 16.1666 15.0913 15.7236 15.5953C15.2814 16.0984 14.6189 16.4355 13.7332 16.4355ZM13.7332 12.1375C13.2064 12.1375 12.8089 12.3376 12.544 12.6406C12.2799 12.9426 12.1501 13.3436 12.1513 13.7429C12.1525 14.1421 12.2848 14.5431 12.5493 14.8449C12.8148 15.1477 13.211 15.348 13.7332 15.348C14.2546 15.348 14.6506 15.1477 14.9162 14.8449C15.1809 14.5431 15.3137 14.1422 15.3153 13.7429C15.317 13.3437 15.1876 12.9426 14.9236 12.6406C14.6587 12.3376 14.2609 12.1375 13.7332 12.1375Z" fill="#262B37" stroke="#A6A6A6" stroke-width="0.1"/>
</g>
<defs>
<clipPath id="clip0">
<rect width="19" height="19" fill="white" transform="translate(11 11)"/>
</clipPath>
</defs>
</svg>
