<svg width="90" height="90" viewBox="0 0 90 90" fill="none" xmlns="http://www.w3.org/2000/svg">
<path d="M84.375 29.5312H22.5C21.3811 29.5313 20.3081 29.9757 19.5169 30.7669C18.7257 31.5581 18.2812 32.6311 18.2812 33.75V67.5C18.2812 68.6189 18.7257 69.6919 19.5169 70.4831C20.3081 71.2743 21.3811 71.7187 22.5 71.7187H45.8606L40.853 86.7431C40.7351 87.0974 40.7628 87.484 40.93 87.8179C41.0972 88.1518 41.3902 88.4056 41.7445 88.5234C42.0988 88.6413 42.4855 88.6136 42.8193 88.4464C43.1532 88.2792 43.407 87.9862 43.5248 87.6319L48.8264 71.7187H58.0486L63.353 87.6319C63.4708 87.9862 63.7246 88.2792 64.0585 88.4464C64.3923 88.6136 64.779 88.6413 65.1333 88.5234C65.4876 88.4056 65.7806 88.1518 65.9478 87.8179C66.115 87.484 66.1427 87.0974 66.0248 86.7431L61.0144 71.7187H84.375C85.4939 71.7187 86.5669 71.2743 87.3581 70.4831C88.1493 69.6919 88.5938 68.6189 88.5938 67.5V33.75C88.5938 32.6311 88.1493 31.5581 87.3581 30.7669C86.5669 29.9757 85.4939 29.5313 84.375 29.5312ZM49.2188 53.4375C49.2188 54.5564 48.7743 55.6294 47.9831 56.4206C47.1919 57.2118 46.1189 57.6562 45 57.6562H32.3438C31.2249 57.6562 30.1518 57.2118 29.3606 56.4206C28.5695 55.6294 28.125 54.5564 28.125 53.4375V47.8125C28.125 46.6936 28.5695 45.6206 29.3606 44.8294C30.1518 44.0382 31.2249 43.5937 32.3438 43.5937H45C46.1189 43.5937 47.1919 44.0382 47.9831 44.8294C48.7743 45.6206 49.2188 46.6936 49.2188 47.8125V53.4375ZM77.3438 57.6562H59.0625C58.6895 57.6562 58.3319 57.5081 58.0681 57.2444C57.8044 56.9806 57.6562 56.623 57.6562 56.25C57.6562 55.877 57.8044 55.5193 58.0681 55.2556C58.3319 54.9919 58.6895 54.8437 59.0625 54.8437H77.3438C77.7167 54.8437 78.0744 54.9919 78.3381 55.2556C78.6018 55.5193 78.75 55.877 78.75 56.25C78.75 56.623 78.6018 56.9806 78.3381 57.2444C78.0744 57.5081 77.7167 57.6562 77.3438 57.6562ZM77.3438 46.4062H59.0625C58.6895 46.4062 58.3319 46.2581 58.0681 45.9944C57.8044 45.7306 57.6562 45.373 57.6562 45C57.6562 44.627 57.8044 44.2694 58.0681 44.0056C58.3319 43.7419 58.6895 43.5937 59.0625 43.5937H77.3438C77.7167 43.5937 78.0744 43.7419 78.3381 44.0056C78.6018 44.2694 78.75 44.627 78.75 45C78.75 45.373 78.6018 45.7306 78.3381 45.9944C78.0744 46.2581 77.7167 46.4062 77.3438 46.4062Z" fill="#01CBF8"/>
<path d="M52.0312 26.7188C52.031 22.3796 50.9152 18.1133 48.7911 14.3296C46.667 10.5458 43.6059 7.37164 39.9016 5.11176C36.1974 2.85189 31.9743 1.58221 27.638 1.42463C23.3017 1.26705 18.9976 2.22685 15.1391 4.21189C11.2806 6.19693 7.99714 9.14055 5.604 12.7601C3.21086 16.3797 1.78838 20.5538 1.47314 24.8815C1.1579 29.2092 1.96049 33.5453 3.80383 37.4735C5.64718 41.4017 8.4694 44.7901 11.9995 47.3133C10.609 49.0522 9.84908 51.2111 9.84376 53.4375V67.5C9.84376 68.6189 10.2882 69.692 11.0794 70.4832C11.8706 71.2743 12.9436 71.7188 14.0625 71.7188H39.375C40.4939 71.7188 41.5669 71.2743 42.3581 70.4832C43.1493 69.692 43.5938 68.6189 43.5938 67.5V53.4375C43.5885 51.1994 42.8207 49.0298 41.4169 47.2866C44.6962 44.9514 47.3704 41.8666 49.2166 38.289C51.0629 34.7115 52.0279 30.7447 52.0312 26.7188ZM30.9375 28.125C30.9375 27.7521 31.0857 27.3944 31.3494 27.1307C31.6131 26.867 31.9708 26.7188 32.3438 26.7188H37.9688C38.3417 26.7188 38.6994 26.867 38.9631 27.1307C39.2268 27.3944 39.375 27.7521 39.375 28.125V30.9375C39.375 31.3105 39.2268 31.6682 38.9631 31.9319C38.6994 32.1956 38.3417 32.3438 37.9688 32.3438H32.3438C31.9708 32.3438 31.6131 32.1956 31.3494 31.9319C31.0857 31.6682 30.9375 31.3105 30.9375 30.9375V28.125ZM37.9688 23.9063H32.3438C31.2249 23.9063 30.1518 24.3508 29.3606 25.1419C28.5695 25.9331 28.125 27.0062 28.125 28.125H25.3125C25.3119 27.0239 24.8792 25.9671 24.1073 25.1818C27.8366 23.8236 31.1914 21.6021 33.8977 18.699C38.2417 22.025 43.5482 23.8508 49.0191 23.9021C49.1481 24.8355 49.2148 25.7765 49.2188 26.7188C49.2188 27.1941 49.1766 27.6582 49.147 28.125H42.1875C42.1875 27.0062 41.743 25.9331 40.9519 25.1419C40.1607 24.3508 39.0876 23.9063 37.9688 23.9063ZM4.21876 26.7188C4.21947 25.8598 4.26924 25.0015 4.36782 24.1482C6.65646 25.2666 9.10168 26.0309 11.6198 26.415C11.3777 26.9527 11.2517 27.5354 11.25 28.125H4.30032C4.27219 27.6568 4.21876 27.1913 4.21876 26.7188ZM14.0625 28.125C14.0625 27.7521 14.2107 27.3944 14.4744 27.1307C14.7381 26.867 15.0958 26.7188 15.4688 26.7188H21.0938C21.4667 26.7188 21.8244 26.867 22.0881 27.1307C22.3518 27.3944 22.5 27.7521 22.5 28.125V30.9375C22.5 31.3105 22.3518 31.6682 22.0881 31.9319C21.8244 32.1956 21.4667 32.3438 21.0938 32.3438H15.4688C15.0958 32.3438 14.7381 32.1956 14.4744 31.9319C14.2107 31.6682 14.0625 31.3105 14.0625 30.9375V28.125ZM48.4706 21.0797C43.86 20.9249 39.409 19.3536 35.723 16.5797C37.5579 14.1177 38.9389 11.348 39.8011 8.40098C44.0775 11.4904 47.1432 15.9738 48.4706 21.0797ZM26.7188 4.21879C30.4079 4.21993 34.0407 5.12473 37.2994 6.85411C36.4757 10.1736 34.9049 13.2611 32.7067 15.8813C30.5086 18.5014 27.7411 20.5851 24.6154 21.9732C21.4896 23.3614 18.0882 24.0174 14.6704 23.8913C11.2526 23.7653 7.90872 22.8604 4.89376 21.2457C6.09872 16.3731 8.90489 12.0462 12.8624 8.95877C16.8199 5.87132 21.6994 4.20212 26.7188 4.21879ZM40.7813 53.4375V67.5C40.7813 67.873 40.6331 68.2307 40.3694 68.4944C40.1057 68.7581 39.748 68.9063 39.375 68.9063H35.1563V61.875C35.1563 61.5021 35.0081 61.1444 34.7444 60.8807C34.4807 60.617 34.123 60.4688 33.75 60.4688C33.377 60.4688 33.0194 60.617 32.7556 60.8807C32.4919 61.1444 32.3438 61.5021 32.3438 61.875V68.9063H21.0938V61.875C21.0938 61.5021 20.9456 61.1444 20.6819 60.8807C20.4181 60.617 20.0605 60.4688 19.6875 60.4688C19.3145 60.4688 18.9569 60.617 18.6931 60.8807C18.4294 61.1444 18.2813 61.5021 18.2813 61.875V68.9063H14.0625C13.6895 68.9063 13.3319 68.7581 13.0681 68.4944C12.8044 68.2307 12.6563 67.873 12.6563 67.5V53.4375C12.6597 51.7472 13.2712 50.1145 14.3789 48.8377C18.1502 50.9366 22.3957 52.0359 26.7117 52.0313C31.0277 52.0266 35.2708 50.918 39.0375 48.811C40.1587 50.0918 40.7781 51.7353 40.7813 53.4375ZM26.7188 49.2188C21.6658 49.2311 16.7567 47.5376 12.786 44.4125C8.8154 41.2874 6.01574 36.9136 4.84032 31.9993C4.75594 31.6519 4.71798 31.2961 4.65048 30.9375H11.25C11.25 32.0564 11.6945 33.1295 12.4856 33.9207C13.2768 34.7118 14.3499 35.1563 15.4688 35.1563H21.0938C22.2126 35.1563 23.2857 34.7118 24.0769 33.9207C24.868 33.1295 25.3125 32.0564 25.3125 30.9375H28.125C28.125 32.0564 28.5695 33.1295 29.3606 33.9207C30.1518 34.7118 31.2249 35.1563 32.3438 35.1563H37.9688C39.0876 35.1563 40.1607 34.7118 40.9519 33.9207C41.743 33.1295 42.1875 32.0564 42.1875 30.9375H48.8081C47.8221 36.0758 45.0783 40.7106 41.0476 44.0464C37.0169 47.3822 31.9508 49.211 26.7188 49.2188Z" fill="#262B37"/>
</svg>
