<svg width="90" height="90" viewBox="0 0 90 90" fill="none" xmlns="http://www.w3.org/2000/svg">
<path d="M84.375 29.5312H22.5C21.3811 29.5313 20.3081 29.9757 19.5169 30.7669C18.7257 31.5581 18.2812 32.6311 18.2812 33.75V67.5C18.2812 68.6189 18.7257 69.6919 19.5169 70.4831C20.3081 71.2743 21.3811 71.7188 22.5 71.7188H84.375C85.4939 71.7188 86.5669 71.2743 87.3581 70.4831C88.1493 69.6919 88.5938 68.6189 88.5938 67.5V33.75C88.5938 32.6311 88.1493 31.5581 87.3581 30.7669C86.5669 29.9757 85.4939 29.5313 84.375 29.5312ZM53.4375 64.6875C52.8812 64.6875 52.3375 64.5226 51.875 64.2135C51.4124 63.9045 51.052 63.4652 50.8391 62.9513C50.6262 62.4374 50.5705 61.8719 50.679 61.3263C50.7876 60.7807 51.0554 60.2796 51.4488 59.8863C51.8421 59.4929 52.3432 59.2251 52.8888 59.1165C53.4344 59.008 53.9999 59.0637 54.5138 59.2766C55.0277 59.4895 55.467 59.8499 55.776 60.3125C56.0851 60.775 56.25 61.3187 56.25 61.875C56.25 62.6209 55.9537 63.3363 55.4262 63.8637C54.8988 64.3912 54.1834 64.6875 53.4375 64.6875Z" fill="#01CBF8"/>
<path d="M60.1608 74.5312H46.7142L44.5092 83.3512C44.3536 83.9733 44.3419 84.6227 44.4749 85.25C44.6078 85.8773 44.8821 86.466 45.2767 86.9714C45.6714 87.4768 46.1761 87.8856 46.7524 88.1667C47.3287 88.4479 47.9616 88.5939 48.6028 88.5938H58.2722C58.9134 88.5939 59.5463 88.4479 60.1226 88.1667C60.6989 87.8856 61.2036 87.4768 61.5982 86.9714C61.9929 86.466 62.2671 85.8773 62.4001 85.25C62.5331 84.6227 62.5214 83.9733 62.3658 83.3512L60.1608 74.5312Z" fill="#01CBF8"/>
<path d="M52.0312 26.7188C52.0316 22.3793 50.9164 18.1127 48.7926 14.3285C46.6689 10.5442 43.6079 7.36953 39.9037 5.10918C36.1994 2.84883 31.9763 1.57874 27.6397 1.42085C23.3032 1.26296 18.9989 2.22258 15.14 4.20756C11.2812 6.19255 7.99751 9.13625 5.60419 12.756C3.21087 16.3758 1.78832 20.55 1.47312 24.878C1.15792 29.206 1.96067 33.5423 3.80427 37.4706C5.64788 41.3989 8.47044 44.7874 12.0009 47.3105C10.6093 49.0499 9.84884 51.2099 9.84376 53.4375V67.5C9.84376 68.6189 10.2882 69.692 11.0794 70.4831C11.8706 71.2743 12.9436 71.7188 14.0625 71.7188H39.375C40.4939 71.7188 41.5669 71.2743 42.3581 70.4831C43.1493 69.692 43.5938 68.6189 43.5938 67.5V53.4375C43.5885 51.1994 42.8207 49.0298 41.4169 47.2866C44.6961 44.9512 47.3701 41.8664 49.2163 38.2888C51.0625 34.7113 52.0276 30.7446 52.0312 26.7188ZM26.7188 4.21877C31.4855 4.19276 36.1356 5.69239 39.9891 8.49837C43.8426 11.3043 46.6973 15.2695 48.1359 19.8141C40.2469 20.6297 37.9125 16.425 37.8141 16.2422C37.6839 15.9875 37.4793 15.7786 37.2273 15.6433C36.9754 15.5079 36.6882 15.4526 36.4041 15.4847C36.1199 15.5168 35.8523 15.6347 35.6368 15.8228C35.4214 16.011 35.2685 16.2603 35.1984 16.5375C34.5478 18.8491 34.8148 21.3227 35.9438 23.4422C23.1609 21.0656 19.7438 12.5438 19.6031 12.1641C19.5052 11.8994 19.33 11.6703 19.1002 11.5066C18.8703 11.3429 18.5966 11.2521 18.3145 11.246C18.0323 11.24 17.7549 11.3189 17.5183 11.4726C17.2816 11.6263 17.0967 11.8476 16.9875 12.1078C14.2031 18.6047 7.95938 21.15 4.71094 22.05C5.78397 17.0077 8.55466 12.4862 12.5602 9.24081C16.5657 5.99544 21.5635 4.22272 26.7188 4.21877ZM40.7813 53.4375V67.5C40.7813 67.873 40.6331 68.2307 40.3694 68.4944C40.1056 68.7581 39.748 68.9063 39.375 68.9063H35.1563V61.875C35.1563 61.5021 35.0081 61.1444 34.7444 60.8807C34.4806 60.6169 34.123 60.4688 33.75 60.4688C33.377 60.4688 33.0194 60.6169 32.7556 60.8807C32.4919 61.1444 32.3438 61.5021 32.3438 61.875V68.9063H21.0938V61.875C21.0938 61.5021 20.9456 61.1444 20.6819 60.8807C20.4181 60.6169 20.0605 60.4688 19.6875 60.4688C19.3145 60.4688 18.9569 60.6169 18.6931 60.8807C18.4294 61.1444 18.2813 61.5021 18.2813 61.875V68.9063H14.0625C13.6895 68.9063 13.3319 68.7581 13.0681 68.4944C12.8044 68.2307 12.6563 67.873 12.6563 67.5V53.4375C12.6596 51.746 13.2715 50.1123 14.3803 48.8349C18.1508 50.9351 22.3961 52.0355 26.712 52.0313C31.028 52.0271 35.2711 50.9185 39.0375 48.811C40.1587 50.0918 40.7781 51.7353 40.7813 53.4375ZM26.7188 49.2188C23.7625 49.2241 20.8343 48.6458 18.102 47.517C15.3698 46.3882 12.8873 44.731 10.7969 42.6407C8.70648 40.5503 7.04935 38.0678 5.92052 35.3355C4.7917 32.6032 4.21338 29.675 4.21876 26.7188C4.21876 26.1563 4.23282 25.6078 4.27501 25.0594C7.18594 24.4266 14.2453 22.261 18.3094 15.6656C25.2436 26.3785 39.2344 26.6625 39.375 26.7188C39.6754 26.7164 39.9672 26.618 40.2076 26.4377C40.448 26.2575 40.6244 26.0051 40.7109 25.7173C40.7974 25.4296 40.7894 25.1217 40.6882 24.8388C40.587 24.5559 40.3978 24.3129 40.1484 24.1453C38.9069 23.1832 38.0653 21.7957 37.7859 20.25C39.825 21.7688 43.2703 23.2172 48.8109 22.5703C49.0872 23.9357 49.2238 25.3257 49.2188 26.7188C49.2109 32.6837 46.8379 38.4022 42.62 42.62C38.4021 46.8379 32.6837 49.211 26.7188 49.2188Z" fill="#262B37"/>
</svg>
