<svg width="90" height="90" viewBox="0 0 90 90" fill="none" xmlns="http://www.w3.org/2000/svg">
<path d="M21.0938 88.5938H26.7188C27.0917 88.5938 27.4494 88.4456 27.7131 88.1819C27.9768 87.9181 28.125 87.5605 28.125 87.1875V67.5C28.125 67.127 27.9768 66.7694 27.7131 66.5056C27.4494 66.2419 27.0917 66.0938 26.7188 66.0938C24.8539 66.0938 23.0655 66.8345 21.7469 68.1532C20.4283 69.4718 19.6875 71.2602 19.6875 73.125V87.1875C19.6875 87.5605 19.8357 87.9181 20.0994 88.1819C20.3631 88.4456 20.7208 88.5938 21.0938 88.5938Z" fill="#01CBF8"/>
<path d="M88.5938 88.5938H82.9688C82.5958 88.5938 82.2381 88.4456 81.9744 88.1819C81.7107 87.9181 81.5625 87.5605 81.5625 87.1875V67.5C81.5625 67.127 81.7107 66.7694 81.9744 66.5056C82.2381 66.2419 82.5958 66.0938 82.9688 66.0938C84.8336 66.0938 86.622 66.8345 87.9406 68.1532C89.2592 69.4718 90 71.2602 90 73.125V87.1875C90 87.5605 89.8518 87.9181 89.5881 88.1819C89.3244 88.4456 88.9667 88.5938 88.5938 88.5938Z" fill="#01CBF8"/>
<path d="M70.1241 25.3125L72.9366 20.3906C73.06 20.1769 73.125 19.9344 73.125 19.6875C73.125 19.4407 73.06 19.1982 72.9366 18.9844C72.8132 18.7706 72.6356 18.5931 72.4219 18.4697C72.2081 18.3462 71.9656 18.2813 71.7188 18.2813H60.4688C60.2214 18.2808 59.9784 18.3455 59.7641 18.469C59.5498 18.5924 59.3718 18.7702 59.2481 18.9844L56.8378 23.2031C56.7143 23.4171 56.6493 23.6599 56.6494 23.9069C56.6496 24.154 56.7148 24.3967 56.8385 24.6106C56.9623 24.8244 57.1402 25.0019 57.3544 25.1251C57.5685 25.2484 57.8114 25.313 58.0585 25.3125H70.1241Z" fill="#01CBF8"/>
<path d="M39.5634 25.3125L36.7509 20.3906C36.6275 20.1769 36.5625 19.9344 36.5625 19.6875C36.5625 19.4407 36.6275 19.1982 36.7509 18.9844C36.8743 18.7706 37.0518 18.5931 37.2656 18.4697C37.4794 18.3462 37.7219 18.2813 37.9687 18.2813H49.2187C49.466 18.2808 49.7091 18.3455 49.9234 18.469C50.1377 18.5924 50.3157 18.7702 50.4393 18.9844L54.052 25.3125H39.5634Z" fill="#01CBF8"/>
<path d="M39.375 49.7503C44.1768 52.1556 49.4733 53.4079 54.8438 53.4079C60.2142 53.4079 65.5107 52.1556 70.3125 49.7503V37.9688H39.375V49.7503ZM49.2188 42.1875H60.4688C60.8417 42.1875 61.1994 42.3357 61.4631 42.5994C61.7268 42.8631 61.875 43.2208 61.875 43.5937C61.875 43.9667 61.7268 44.3244 61.4631 44.5881C61.1994 44.8518 60.8417 45 60.4688 45H49.2188C48.8458 45 48.4881 44.8518 48.2244 44.5881C47.9607 44.3244 47.8125 43.9667 47.8125 43.5937C47.8125 43.2208 47.9607 42.8631 48.2244 42.5994C48.4881 42.3357 48.8458 42.1875 49.2188 42.1875Z" fill="#01CBF8"/>
<path d="M70.3125 52.8835C65.4548 55.0929 60.1802 56.236 54.8438 56.236C49.5073 56.236 44.2327 55.0929 39.375 52.8835V80.1563H70.3125V52.8835ZM43.5938 60.4689H66.0938C66.4667 60.4689 66.8244 60.617 67.0881 60.8807C67.3518 61.1445 67.5 61.5021 67.5 61.8751C67.5 62.2481 67.3518 62.6057 67.0881 62.8695C66.8244 63.1332 66.4667 63.2813 66.0938 63.2813H43.5938C43.2208 63.2813 42.8631 63.1332 42.5994 62.8695C42.3357 62.6057 42.1875 62.2481 42.1875 61.8751C42.1875 61.5021 42.3357 61.1445 42.5994 60.8807C42.8631 60.617 43.2208 60.4689 43.5938 60.4689ZM66.0938 74.5313H43.5938C43.2208 74.5313 42.8631 74.3832 42.5994 74.1195C42.3357 73.8557 42.1875 73.498 42.1875 73.1251C42.1875 72.7521 42.3357 72.3944 42.5994 72.1307C42.8631 71.867 43.2208 71.7188 43.5938 71.7188H66.0938C66.4667 71.7188 66.8244 71.867 67.0881 72.1307C67.3518 72.3944 67.5 72.7521 67.5 73.1251C67.5 73.498 67.3518 73.8557 67.0881 74.1195C66.8244 74.3832 66.4667 74.5313 66.0938 74.5313Z" fill="#01CBF8"/>
<path d="M39.375 82.9688H70.3125V88.5938H39.375V82.9688Z" fill="#01CBF8"/>
<path d="M71.7188 28.125H37.9688C36.1046 28.1272 34.3175 28.8687 32.9994 30.1869C31.6812 31.505 30.9397 33.2921 30.9375 35.1562V87.1875C30.9375 87.5605 31.0857 87.9181 31.3494 88.1819C31.6131 88.4456 31.9708 88.5938 32.3438 88.5938H36.5625V36.5625C36.5625 36.1895 36.7107 35.8319 36.9744 35.5681C37.2381 35.3044 37.5958 35.1562 37.9688 35.1562H71.7188C72.0917 35.1562 72.4494 35.3044 72.7131 35.5681C72.9768 35.8319 73.125 36.1895 73.125 36.5625V88.5938H77.3438C77.7167 88.5938 78.0744 88.4456 78.3381 88.1819C78.6018 87.9181 78.75 87.5605 78.75 87.1875V35.1562C78.7478 33.2921 78.0063 31.505 76.6881 30.1869C75.37 28.8687 73.5829 28.1272 71.7188 28.125Z" fill="#01CBF8"/>
<path d="M49.2188 57.6562H42.1875V54.7312C44.5283 54.3934 46.6693 53.224 48.2187 51.4371C49.768 49.6501 50.6222 47.3651 50.625 45V37.8563C52.9658 37.5184 55.1068 36.349 56.6562 34.5621C58.2055 32.7751 59.0597 30.4901 59.0625 28.125V2.8125C59.0625 2.43954 58.9143 2.08185 58.6506 1.81813C58.3869 1.55441 58.0292 1.40625 57.6562 1.40625H23.9062C19.0595 1.41183 14.4128 3.33968 10.9856 6.76687C7.55843 10.1941 5.63058 14.8407 5.625 19.6875V36.5625C5.6291 38.9443 6.4959 41.244 8.06497 43.0359C9.63403 44.8278 11.7991 45.9907 14.1595 46.3092C14.4462 48.4285 15.4152 50.3967 16.9201 51.9163C18.4249 53.4358 20.3836 54.424 22.5 54.7312V57.6562H15.4688C12.1134 57.6603 8.89657 58.9951 6.52395 61.3677C4.15133 63.7403 2.81659 66.9571 2.8125 70.3125C2.8125 70.6855 2.96066 71.0431 3.22438 71.3069C3.4881 71.5706 3.84579 71.7188 4.21875 71.7188H60.4688C60.8417 71.7188 61.1994 71.5706 61.4631 71.3069C61.7268 71.0431 61.875 70.6855 61.875 70.3125C61.8709 66.9571 60.5362 63.7403 58.1635 61.3677C55.7909 58.9951 52.5741 57.6603 49.2188 57.6562ZM14.0625 21.0938V43.4531C12.4754 43.1267 11.0494 42.2632 10.0248 41.008C9.00013 39.7528 8.43955 38.1828 8.4375 36.5625V19.6875C8.44234 15.5864 10.0736 11.6547 12.9735 8.75479C15.8734 5.85488 19.8052 4.22359 23.9062 4.21875H56.25V28.125C56.248 29.7453 55.6874 31.3153 54.6627 32.5705C53.6381 33.8257 52.2121 34.6892 50.625 35.0156V29.5312C50.625 29.1583 50.4768 28.8006 50.2131 28.5369C49.9494 28.2732 49.5917 28.125 49.2188 28.125H40.7812C31.9604 28.1065 23.3803 25.2464 16.3125 19.9688C16.1036 19.8121 15.8551 19.7166 15.595 19.6932C15.3349 19.6697 15.0734 19.7192 14.8399 19.836C14.6063 19.9528 14.4098 20.1323 14.2725 20.3544C14.1352 20.5766 14.0625 20.8326 14.0625 21.0938ZM16.875 45V23.7952C23.9852 28.438 32.2894 30.919 40.7812 30.9375H47.8125V45C47.8103 46.8641 47.0688 48.6512 45.7506 49.9694C44.4325 51.2875 42.6454 52.029 40.7812 52.0312H23.9062C22.0421 52.029 20.255 51.2875 18.9369 49.9694C17.6187 48.6512 16.8772 46.8641 16.875 45ZM39.375 54.8438V58.1934L32.3438 61.7091L25.3125 58.1934V54.8438H39.375ZM5.72484 68.9062C6.06608 66.5646 7.23816 64.4238 9.02707 62.8747C10.816 61.3257 13.1024 60.4717 15.4688 60.4688H23.5744L31.7152 64.5469C31.9103 64.6444 32.1255 64.6952 32.3438 64.6952C32.562 64.6952 32.7772 64.6444 32.9723 64.5469L41.1131 60.4688H49.2188C51.5851 60.4717 53.8715 61.3257 55.6604 62.8747C57.4493 64.4238 58.6214 66.5646 58.9627 68.9062H5.72484Z" fill="#262B37"/>
<path d="M32.3437 47.8124C33.2671 47.8137 34.1816 47.6328 35.0349 47.28C35.8882 46.9272 36.6634 46.4095 37.3162 45.7565C37.5724 45.4913 37.7141 45.136 37.7109 44.7673C37.7077 44.3986 37.5598 44.0459 37.2991 43.7852C37.0384 43.5244 36.6857 43.3765 36.317 43.3733C35.9482 43.3701 35.593 43.5119 35.3278 43.768C34.5355 44.5577 33.4624 45.0012 32.3437 45.0012C31.2251 45.0012 30.152 44.5577 29.3597 43.768C29.0945 43.5119 28.7392 43.3701 28.3705 43.3733C28.0018 43.3765 27.6491 43.5244 27.3884 43.7852C27.1276 44.0459 26.9797 44.3986 26.9765 44.7673C26.9733 45.136 27.1151 45.4913 27.3712 45.7565C28.024 46.4095 28.7993 46.9272 29.6526 47.28C30.5059 47.6328 31.4204 47.8137 32.3437 47.8124Z" fill="#262B37"/>
</svg>
