<svg width="90" height="90" viewBox="0 0 90 90" fill="none" xmlns="http://www.w3.org/2000/svg">
<path d="M87.1875 85.7814H84.375V52.8751L86.272 54.5007C86.557 54.7268 86.9186 54.8336 87.2807 54.7987C87.6428 54.7638 87.9773 54.59 88.2139 54.3136C88.4505 54.0373 88.5709 53.6801 88.5497 53.3169C88.5285 52.9537 88.3673 52.6129 88.1001 52.366L58.5689 27.0535C58.3141 26.8357 57.99 26.7159 57.6548 26.7159C57.3196 26.7159 56.9955 26.8357 56.7407 27.0535L27.2095 52.366C27.0613 52.4836 26.9383 52.6298 26.848 52.7959C26.7576 52.9621 26.7017 53.1447 26.6835 53.333C26.6654 53.5212 26.6854 53.7112 26.7424 53.8916C26.7994 54.0719 26.8922 54.2389 27.0152 54.3825C27.1382 54.5262 27.289 54.6436 27.4584 54.7276C27.6278 54.8117 27.8125 54.8607 28.0013 54.8717C28.1901 54.8827 28.3792 54.8556 28.5573 54.7918C28.7353 54.7281 28.8987 54.6291 29.0376 54.5007L30.9375 52.8751V85.7814H28.125C27.752 85.7814 27.3943 85.9295 27.1306 86.1932C26.8669 86.457 26.7187 86.8146 26.7187 87.1876C26.7187 87.5606 26.8669 87.9183 27.1306 88.182C27.3943 88.4457 27.752 88.5939 28.125 88.5939H87.1875C87.5604 88.5939 87.9181 88.4457 88.1818 88.182C88.4455 87.9183 88.5937 87.5606 88.5937 87.1876C88.5937 86.8146 88.4455 86.457 88.1818 86.1932C87.9181 85.9295 87.5604 85.7814 87.1875 85.7814ZM67.5 84.3751C67.5 84.7481 67.3518 85.1058 67.0881 85.3695C66.8244 85.6332 66.4667 85.7814 66.0937 85.7814C65.7207 85.7814 65.3631 85.6332 65.0993 85.3695C64.8356 85.1058 64.6875 84.7481 64.6875 84.3751V70.3126C64.6875 69.9396 64.5393 69.582 64.2756 69.3182C64.0119 69.0545 63.6542 68.9064 63.2812 68.9064H52.0312C51.6582 68.9064 51.3006 69.0545 51.0368 69.3182C50.7731 69.582 50.625 69.9396 50.625 70.3126V84.3751C50.625 84.7481 50.4768 85.1058 50.2131 85.3695C49.9494 85.6332 49.5917 85.7814 49.2187 85.7814C48.8457 85.7814 48.4881 85.6332 48.2243 85.3695C47.9606 85.1058 47.8125 84.7481 47.8125 84.3751V70.3126C47.8125 69.1937 48.2569 68.1207 49.0481 67.3295C49.8393 66.5383 50.9123 66.0939 52.0312 66.0939H63.2812C64.4001 66.0939 65.4731 66.5383 66.2643 67.3295C67.0555 68.1207 67.5 69.1937 67.5 70.3126V84.3751Z" fill="#01CBF8"/>
<path d="M59.0165 17.3688C60.6308 16.1463 61.8203 14.4479 62.4172 12.5133C63.0141 10.5787 62.9882 8.50562 62.3431 6.58654C61.6981 4.66746 60.4665 2.99932 58.8222 1.81754C57.1779 0.635752 55.2038 0 53.1787 0C51.1535 0 49.1794 0.635752 47.5351 1.81754C45.8908 2.99932 44.6592 4.66746 44.0142 6.58654C43.3692 8.50562 43.3433 10.5787 43.9401 12.5133C44.537 14.4479 45.7265 16.1463 47.3408 17.3688C44.0478 18.8298 41.4089 21.4529 39.9287 24.7366C38.2078 23.3322 36.0545 22.5651 33.8331 22.5651C31.6116 22.5651 29.4583 23.3322 27.7374 24.7366C26.2572 21.4529 23.6184 18.8298 20.3253 17.3688C21.9396 16.1463 23.1291 14.4479 23.726 12.5133C24.3229 10.5787 24.297 8.50562 23.6519 6.58654C23.0069 4.66746 21.7753 2.99932 20.131 1.81754C18.4867 0.635752 16.5126 0 14.4875 0C12.4623 0 10.4882 0.635752 8.84391 1.81754C7.19958 2.99932 5.968 4.66746 5.32298 6.58654C4.67795 8.50562 4.65205 10.5787 5.24893 12.5133C5.8458 14.4479 7.03532 16.1463 8.64961 17.3688C6.07849 18.5042 3.89247 20.3615 2.35702 22.7151C0.821569 25.0687 0.00274954 27.8174 0 30.6273V62.8434C0 64.125 0.509293 65.3541 1.41584 66.2604C2.32239 67.1666 3.55193 67.6758 4.83398 67.6758H62.8418C64.1238 67.6758 65.3534 67.1666 66.2599 66.2604C67.1665 65.3541 67.6758 64.125 67.6758 62.8434V30.6273C67.6722 27.8163 66.852 25.0669 65.3147 22.7132C63.7775 20.3594 61.5894 18.5028 59.0165 17.3688ZM46.7285 9.68683C46.7285 8.41249 47.1065 7.16676 47.8147 6.10717C48.523 5.04759 49.5296 4.22175 50.7073 3.73408C51.885 3.24641 53.181 3.11881 54.4312 3.36742C55.6815 3.61604 56.83 4.22969 57.7313 5.13079C58.6327 6.03189 59.2466 7.17996 59.4953 8.42982C59.744 9.67969 59.6164 10.9752 59.1285 12.1525C58.6407 13.3299 57.8146 14.3362 56.7547 15.0442C55.6947 15.7522 54.4486 16.13 53.1738 16.13C51.4644 16.13 49.825 15.4512 48.6163 14.2429C47.4076 13.0345 46.7285 11.3957 46.7285 9.68683ZM33.8379 25.7949C35.1127 25.7949 36.3588 26.1728 37.4187 26.8808C38.4786 27.5887 39.3048 28.595 39.7926 29.7724C40.2804 30.9497 40.4081 32.2452 40.1594 33.4951C39.9107 34.745 39.2968 35.893 38.3954 36.7941C37.494 37.6952 36.3456 38.3089 35.0953 38.5575C33.845 38.8061 32.5491 38.6785 31.3714 38.1908C30.1937 37.7032 29.187 36.8773 28.4788 35.8177C27.7706 34.7582 27.3926 33.5124 27.3926 32.2381C27.3926 30.5292 28.0716 28.8904 29.2804 27.6821C30.4891 26.4737 32.1285 25.7949 33.8379 25.7949ZM8.05664 9.68683C8.05664 8.41249 8.43465 7.16676 9.14287 6.10717C9.85109 5.04759 10.8577 4.22175 12.0354 3.73408C13.2132 3.24641 14.5091 3.11881 15.7594 3.36742C17.0096 3.61604 18.1581 4.22969 19.0595 5.13079C19.9609 6.03189 20.5747 7.17996 20.8234 8.42982C21.0721 9.67969 20.9445 10.9752 20.4566 12.1525C19.9688 13.3299 19.1427 14.3362 18.0828 15.0442C17.0229 15.7522 15.7767 16.13 14.502 16.13C12.7926 16.13 11.1532 15.4512 9.94443 14.2429C8.7357 13.0345 8.05664 11.3957 8.05664 9.68683ZM3.22266 62.8434V30.6273C3.21827 27.9006 4.20408 25.2651 5.99694 23.2102C7.78981 21.1554 10.2678 19.8209 12.9707 19.4548C15.6736 19.0887 18.4175 19.7158 20.6927 21.2196C22.9679 22.7234 24.6198 25.0017 25.3414 27.6312C24.2385 29.6578 23.8999 32.0128 24.3869 34.268C24.8739 36.5231 26.1543 38.5287 27.9952 39.92C25.4223 41.054 23.2342 42.9107 21.697 45.2644C20.1598 47.6181 19.3395 50.3676 19.3359 53.1785V64.4542H4.83398C4.40663 64.4542 3.99679 64.2845 3.6946 63.9824C3.39242 63.6803 3.22266 63.2706 3.22266 62.8434ZM22.5586 64.4542V53.1785C22.5586 50.1881 23.7469 47.3201 25.8622 45.2055C27.9775 43.0909 30.8464 41.9029 33.8379 41.9029C36.8293 41.9029 39.6983 43.0909 41.8136 45.2055C43.9288 47.3201 45.1172 50.1881 45.1172 53.1785V64.4542H22.5586ZM64.4531 62.8434C64.4531 63.2706 64.2834 63.6803 63.9812 63.9824C63.679 64.2845 63.2691 64.4542 62.8418 64.4542H48.3398V53.1785C48.3363 50.3676 47.516 47.6181 45.9788 45.2644C44.4415 42.9107 42.2535 41.054 39.6806 39.92C41.5215 38.5287 42.8019 36.5231 43.2889 34.268C43.7759 32.0128 43.4372 29.6578 42.3344 27.6312C43.056 25.0017 44.7079 22.7234 46.9831 21.2196C49.2583 19.7158 52.0022 19.0887 54.7051 19.4548C57.4079 19.8209 59.886 21.1554 61.6788 23.2102C63.4717 25.2651 64.4575 27.9006 64.4531 30.6273V62.8434Z" fill="#262B37"/>
</svg>
