<svg width="28" height="28" viewBox="0 0 28 28" fill="none" xmlns="http://www.w3.org/2000/svg">
<g clip-path="url(#clip0)">
<path d="M27.6792 13.2252C27.6789 13.2248 27.6786 13.2245 27.6782 13.2241L21.9632 7.53664C21.535 7.11057 20.8425 7.11215 20.4163 7.54035C19.9902 7.9685 19.9918 8.66101 20.42 9.08714L24.2571 12.9056H1.09375C0.489672 12.9056 0 13.3953 0 13.9994C0 14.6035 0.489672 15.0931 1.09375 15.0931H24.257L20.42 18.9116C19.9919 19.3378 19.9902 20.0303 20.4164 20.4584C20.8426 20.8867 21.5351 20.8881 21.9632 20.4621L27.6783 14.7746C27.6786 14.7743 27.6789 14.7739 27.6793 14.7736C28.1076 14.346 28.1063 13.6513 27.6792 13.2252Z" fill="white"/>
</g>
<defs>
<clipPath id="clip0">
<rect width="28" height="28" fill="white" transform="translate(0 -0.000732422)"/>
</clipPath>
</defs>
</svg>
