<svg width="154" height="154" viewBox="0 0 154 154" fill="none" xmlns="http://www.w3.org/2000/svg">
<g opacity="0.7" clip-path="url(#clip0)">
<path d="M111.011 57.3609C112.514 56.9579 113.797 55.9741 114.575 54.6258C115.353 53.2776 115.564 51.6753 115.161 50.1715L112.629 40.7213L108.849 41.7342L111.381 51.1843C111.516 51.6856 111.445 52.2197 111.186 52.6691C110.926 53.1186 110.499 53.4465 109.998 53.5808C109.497 53.7151 108.962 53.6448 108.513 53.3853C108.064 53.1259 107.736 52.6985 107.601 52.1972L105.069 42.747L101.289 43.7599L103.821 53.2101C104.224 54.7139 105.208 55.996 106.556 56.7745C107.905 57.5529 109.507 57.7638 111.011 57.3609Z" fill="#01CBF8"/>
<path d="M107.836 37.9539C107.702 37.4526 107.772 36.9185 108.032 36.4691C108.291 36.0197 108.719 35.6917 109.22 35.5574C109.721 35.4231 110.255 35.4934 110.705 35.7529C111.154 36.0124 111.482 36.4397 111.616 36.941L112.629 40.7211L116.409 39.7082L115.397 35.9281C114.994 34.4243 114.01 33.1422 112.661 32.3638C111.313 31.5853 109.711 31.3744 108.207 31.7773C106.703 32.1803 105.421 33.1641 104.643 34.5124C103.864 35.8607 103.653 37.4629 104.056 38.9667L105.069 42.7468L108.849 41.734L107.836 37.9539Z" fill="#01CBF8"/>
<path d="M58.6332 117.282L76.6433 137.284L81.0231 125.876L58.6332 117.282Z" fill="#01CBF8"/>
<path d="M122.079 38.1889L116.409 39.7082L118.941 49.1584C119.613 51.6647 119.261 54.3352 117.964 56.5823C116.667 58.8294 114.53 60.4692 112.023 61.1407C109.517 61.8123 106.847 61.4607 104.6 60.1633C102.352 58.866 100.713 56.7291 100.041 54.2227L97.5089 44.7725L48.368 57.9398C46.8642 58.3427 45.582 59.3266 44.8036 60.6748C44.0252 62.0231 43.8142 63.6254 44.2172 65.1292L56.8892 112.422L84.2492 122.917C84.49 123.009 84.7102 123.148 84.8972 123.325C85.0842 123.502 85.2344 123.715 85.3391 123.95C85.4438 124.186 85.5009 124.439 85.5072 124.697C85.5136 124.955 85.469 125.211 85.376 125.451L80.3678 138.498L144.363 121.351C145.866 120.948 147.148 119.964 147.927 118.615C148.705 117.267 148.916 115.665 148.513 114.161L129.269 42.3397C128.866 40.8359 127.882 39.5537 126.534 38.7753C125.186 37.9969 123.583 37.7859 122.079 38.1889ZM58.9667 67.2543L91.0974 58.6449C91.5986 58.5106 92.1327 58.5809 92.5822 58.8404C93.0316 59.0999 93.3595 59.5272 93.4938 60.0285C93.6281 60.5298 93.5578 61.0639 93.2984 61.5133C93.0389 61.9627 92.6115 62.2907 92.1102 62.425L59.9796 71.0344C59.4783 71.1687 58.9442 71.0984 58.4948 70.8389C58.0454 70.5794 57.7174 70.152 57.5831 69.6508C57.4488 69.1495 57.5191 68.6154 57.7786 68.166C58.0381 67.7165 58.4655 67.3886 58.9667 67.2543ZM62.0053 78.5945L105.476 66.9465C105.977 66.8122 106.512 66.8825 106.961 67.142C107.41 67.4015 107.738 67.8289 107.873 68.3301C108.007 68.8314 107.937 69.3655 107.677 69.8149C107.418 70.2644 106.99 70.5923 106.489 70.7266L63.0182 82.3746C62.5169 82.5089 61.9828 82.4386 61.5334 82.1791C61.084 81.9196 60.7561 81.4922 60.6217 80.991C60.4874 80.4897 60.5577 79.9556 60.8172 79.5062C61.0767 79.0568 61.5041 78.7288 62.0053 78.5945ZM133.764 112.036L99.7431 121.152C99.2418 121.286 98.7077 121.216 98.2583 120.956C97.8089 120.697 97.4809 120.269 97.3466 119.768C97.2123 119.267 97.2826 118.733 97.5421 118.283C97.8016 117.834 98.229 117.506 98.7302 117.372L132.751 108.256C133.252 108.122 133.786 108.192 134.236 108.451C134.685 108.711 135.013 109.138 135.147 109.64C135.282 110.141 135.211 110.675 134.952 111.124C134.692 111.574 134.265 111.902 133.764 112.036ZM130.725 100.696L96.7045 109.812C96.2032 109.946 95.6691 109.876 95.2197 109.616C94.7703 109.357 94.4423 108.929 94.308 108.428C94.1737 107.927 94.244 107.393 94.5035 106.943C94.763 106.494 95.1904 106.166 95.6916 106.032L129.712 96.9157C130.214 96.7814 130.748 96.8517 131.197 97.1112C131.647 97.3707 131.974 97.7981 132.109 98.2993C132.243 98.8006 132.173 99.3347 131.913 99.7841C131.654 100.234 131.226 100.561 130.725 100.696ZM127.687 89.3556L69.0954 105.055C68.5941 105.189 68.06 105.119 67.6106 104.86C67.1612 104.6 66.8333 104.173 66.6989 103.671C66.5646 103.17 66.6349 102.636 66.8944 102.187C67.1539 101.737 67.5813 101.409 68.0825 101.275L126.674 85.5755C127.175 85.4412 127.709 85.5115 128.158 85.771C128.608 86.0305 128.936 86.4578 129.07 86.9591C129.204 87.4604 129.134 87.9945 128.875 88.4439C128.615 88.8933 128.188 89.2213 127.687 89.3556ZM124.648 78.0154L66.0568 93.7148C65.5555 93.8491 65.0214 93.7788 64.572 93.5193C64.1226 93.2599 63.7947 92.8325 63.6603 92.3312C63.526 91.8299 63.5963 91.2958 63.8558 90.8464C64.1153 90.397 64.5427 90.069 65.0439 89.9347L123.635 74.2353C124.136 74.101 124.67 74.1713 125.12 74.4308C125.569 74.6902 125.897 75.1176 126.032 75.6189C126.166 76.1202 126.096 76.6542 125.836 77.1037C125.577 77.5531 125.149 77.881 124.648 78.0154Z" fill="#01CBF8"/>
<path d="M98.8702 14.267L92.093 10.3541C91.6436 10.0948 91.1096 10.0245 90.6085 10.1588C90.1073 10.2931 89.68 10.6209 89.4205 11.0702L82.6699 22.7626L79.159 20.7356C77.8102 19.9607 76.2093 19.7517 74.7067 20.1543C73.2041 20.5569 71.9222 21.5384 71.1415 22.8839L67.1581 29.7834L63.7695 27.8269C62.4133 27.085 60.8234 26.8943 59.3302 27.2944C57.837 27.6945 56.5555 28.6546 55.752 29.9752L48.7144 42.1618C48.4657 42.6105 48.4031 43.139 48.5402 43.6334C48.6773 44.1278 49.0031 44.5486 49.4474 44.8051C49.8917 45.0617 50.419 45.1334 50.9157 45.0049C51.4125 44.8764 51.8388 44.558 52.1031 44.1182L59.142 31.9293C59.4096 31.4894 59.8365 31.1696 60.3339 31.0363C60.8312 30.903 61.3608 30.9666 61.8126 31.2137L65.2017 33.172L27.439 98.5789C27.1795 99.0282 27.1091 99.5622 27.2433 100.063L32.0979 118.181L28.3525 124.669C28.1038 125.117 28.0412 125.646 28.1783 126.14C28.3154 126.635 28.6412 127.055 29.0855 127.312C29.5298 127.568 30.0571 127.64 30.5538 127.512C31.0505 127.383 31.4769 127.065 31.7411 126.625L35.4866 120.138L53.6045 115.283C54.1051 115.148 54.532 114.82 54.7923 114.371L98.4953 38.6783C98.8809 38.0106 99.1311 37.2736 99.2318 36.5092C99.3325 35.7448 99.2816 34.9681 99.082 34.2235C98.8825 33.4788 98.5382 32.7807 98.0688 32.169C97.5995 31.5574 97.0142 31.0442 96.3465 30.6588L92.8357 28.6318L99.5863 16.9395C99.8457 16.4901 99.9159 15.9561 99.7816 15.4549C99.6474 14.9538 99.3195 14.5264 98.8702 14.267ZM35.5812 116.061L32.2459 103.613L48.029 112.726L35.5812 116.061ZM94.3901 34.0474C94.8394 34.3069 95.1673 34.7342 95.3016 35.2354C95.4358 35.7366 95.3656 36.2706 95.1062 36.7199L52.3819 110.721L43.7882 105.759L81.5509 40.3521C81.7996 39.9034 81.8622 39.3749 81.7251 38.8805C81.588 38.3861 81.2623 37.9653 80.8179 37.7088C80.3736 37.4522 79.8463 37.3805 79.3496 37.509C78.8529 37.6374 78.4265 37.9559 78.1623 38.3957L40.3996 103.803L31.8058 98.841L74.5306 24.8422C74.7901 24.3929 75.2174 24.0651 75.7186 23.9308C76.2198 23.7965 76.7538 23.8668 77.2031 24.1261L94.3901 34.0474ZM89.4471 26.6754L86.0585 24.719L91.8309 14.7209L95.2195 16.6774L89.4471 26.6754Z" fill="#262B37"/>
</g>
<defs>
<clipPath id="clip0">
<rect width="125.229" height="125.229" fill="white" transform="translate(0 32.4111) rotate(-15)"/>
</clipPath>
</defs>
</svg>
