<?xml version="1.0" standalone="no"?>
<!-- <!DOCTYPE svg PUBLIC "-//W3C//DTD SVG 20010904//EN"
 "http://www.w3.org/TR/2001/REC-SVG-20010904/DTD/svg10.dtd"> -->
<svg version="1.0" xmlns="http://www.w3.org/2000/svg"
 width="512.000000pt" height="512.000000pt" viewBox="0 0 512.000000 512.000000"
 preserveAspectRatio="xMidYMid meet">

<g transform="translate(0.000000,512.000000) scale(0.100000,-0.100000)"
fill="#000000" stroke="none">
<path d="M2380 4954 c-160 -18 -230 -29 -330 -51 -900 -197 -1601 -880 -1820
-1775 -52 -211 -64 -322 -64 -568 0 -246 12 -357 64 -568 324 -1322 1672
-2108 2985 -1740 684 191 1265 700 1544 1351 386 898 203 1915 -473 2626 -87
91 -266 240 -387 321 -306 204 -620 326 -996 385 -93 15 -448 28 -523 19z
m381 -324 c718 -73 1344 -506 1663 -1151 417 -843 210 -1873 -499 -2486 -764
-660 -1883 -683 -2665 -55 -888 714 -1038 1998 -338 2903 427 552 1141 859
1839 789z"/>
<path d="M1490 3295 c-103 -32 -170 -125 -170 -236 0 -75 22 -129 71 -177 47
-47 83 -63 149 -69 79 -8 145 16 198 70 52 53 72 101 72 174 0 112 -70 207
-174 238 -60 18 -87 18 -146 0z"/>
<path d="M3480 3295 c-60 -19 -122 -73 -149 -130 -27 -58 -28 -153 -2 -210 24
-54 100 -119 156 -135 164 -46 314 68 315 238 0 113 -68 206 -174 237 -60 18
-87 18 -146 0z"/>
<path d="M1632 1843 c-36 -7 -100 -77 -108 -117 -13 -73 1 -105 84 -186 182
-176 450 -310 715 -354 128 -22 346 -22 474 0 259 43 521 172 706 344 82 77
103 116 94 181 -11 84 -97 147 -182 135 -33 -5 -59 -22 -127 -80 -195 -167
-396 -255 -632 -275 -308 -26 -597 71 -828 278 -80 72 -122 88 -196 74z"/>
</g>
</svg>
