<?xml version="1.0" standalone="no"?>
<!DOCTYPE svg PUBLIC "-//W3C//DTD SVG 20010904//EN"
 "http://www.w3.org/TR/2001/REC-SVG-20010904/DTD/svg10.dtd">


<svg version="1.0" xmlns="http://www.w3.org/2000/svg"
 width="512.000000pt" height="512.000000pt" viewBox="0 0 512.000000 512.000000"
 preserveAspectRatio="xMidYMid meet">

<g transform="translate(0.000000,512.000000) scale(0.100000,-0.100000)"
fill="#000000" stroke="none">
<path d="M3725 4500 c-82 -12 -165 -39 -250 -83 -78 -39 -108 -68 -1153 -1111
-658 -657 -1088 -1094 -1113 -1130 -60 -90 -83 -176 -77 -299 4 -91 9 -111 41
-180 82 -177 254 -287 446 -287 95 1 148 13 231 52 60 29 149 115 1118 1082
579 578 1060 1063 1068 1078 21 40 17 73 -12 107 -29 35 -80 49 -115 31 -13
-7 -499 -486 -1079 -1065 -1169 -1167 -1078 -1085 -1216 -1085 -117 0 -240 90
-273 200 -6 20 -11 66 -11 101 0 130 -62 61 1118 1240 971 969 1073 1068 1132
1097 359 177 835 -63 976 -493 22 -65 27 -100 28 -190 1 -132 -22 -220 -83
-311 -25 -36 -455 -473 -1113 -1130 -1135 -1133 -1127 -1125 -1303 -1209 -170
-80 -380 -116 -566 -97 -251 27 -467 126 -646 295 -102 97 -164 182 -228 312
-174 354 -148 752 73 1090 34 52 265 289 904 930 l858 861 0 43 c0 58 -41 101
-97 101 -37 0 -58 -21 -881 -842 -464 -464 -865 -870 -892 -903 -116 -145
-208 -339 -251 -530 -29 -131 -32 -396 -5 -520 50 -231 148 -429 291 -593 442
-503 1158 -595 1715 -219 103 69 2239 2199 2306 2299 262 391 85 972 -379
1241 -169 98 -386 143 -562 117z"/>
</g>
</svg>
