<svg width="85" height="29" viewBox="0 0 85 29" fill="none" xmlns="http://www.w3.org/2000/svg">
<path d="M15.1211 16.2109C15.1758 16.3477 15.2214 16.5026 15.2578 16.6758C15.3034 16.849 15.3307 17.0312 15.3398 17.2227C15.349 17.4049 15.3398 17.5827 15.3125 17.7559C15.2852 17.929 15.2396 18.084 15.1758 18.2207C15.0117 18.5488 14.7884 18.8223 14.5059 19.041C14.2324 19.2598 13.8906 19.3691 13.4805 19.3691C13.0977 19.3691 12.7422 19.2962 12.4141 19.1504C12.0859 19.0046 11.7988 18.8086 11.5527 18.5625C11.3158 18.3164 11.1289 18.0293 10.9922 17.7012C10.8555 17.3639 10.7871 17.0039 10.7871 16.6211C10.7871 16.5391 10.7917 16.4206 10.8008 16.2656C10.8099 16.1016 10.819 15.9284 10.8281 15.7461C10.8372 15.5547 10.8464 15.3724 10.8555 15.1992C10.8646 15.026 10.8737 14.8848 10.8828 14.7754C10.8919 14.6751 10.8828 14.6022 10.8555 14.5566C10.8372 14.5111 10.8008 14.4609 10.7461 14.4062C10.4362 14.1055 10.0671 13.7409 9.63867 13.3125C9.21029 12.875 8.75456 12.3965 8.27148 11.877C7.79753 11.3574 7.31445 10.806 6.82227 10.2227C6.33919 9.63021 5.88802 9.02409 5.46875 8.4043C5.41406 8.32227 5.36393 8.28581 5.31836 8.29492C5.27279 8.30404 5.24544 8.3724 5.23633 8.5C5.20898 8.89193 5.19076 9.17904 5.18164 9.36133C5.17253 9.54362 5.16341 9.68945 5.1543 9.79883C5.13607 10.0814 5.11328 10.4323 5.08594 10.8516C5.06771 11.2708 5.04492 11.7266 5.01758 12.2188C4.99023 12.7018 4.96289 13.1986 4.93555 13.709C4.9082 14.2194 4.88086 14.6979 4.85352 15.1445C4.83529 15.5911 4.8125 15.9922 4.78516 16.3477C4.76693 16.694 4.7487 16.9492 4.73047 17.1133C4.71224 17.3594 4.68034 17.5827 4.63477 17.7832C4.59831 17.9746 4.53451 18.1523 4.44336 18.3164C4.36133 18.4714 4.2474 18.6172 4.10156 18.7539C3.96484 18.8906 3.78255 19.0228 3.55469 19.1504C3.48177 19.196 3.39062 19.2324 3.28125 19.2598C3.17188 19.2871 3.05339 19.3099 2.92578 19.3281C2.80729 19.3464 2.68424 19.36 2.55664 19.3691C2.43815 19.3783 2.32422 19.3828 2.21484 19.3828C1.69531 19.3828 1.2487 19.2643 0.875 19.0273C0.510417 18.7995 0.273438 18.4303 0.164062 17.9199C0.127604 17.7559 0.132161 17.6647 0.177734 17.6465C0.223307 17.6283 0.282552 17.6419 0.355469 17.6875C0.455729 17.7513 0.578776 17.8151 0.724609 17.8789C0.879557 17.9336 1.04362 17.9609 1.2168 17.9609C1.46289 17.9609 1.65885 17.9017 1.80469 17.7832C1.95964 17.6647 2.07812 17.4642 2.16016 17.1816C2.20573 17.0085 2.23307 16.8398 2.24219 16.6758C2.26042 16.5117 2.27865 16.3249 2.29688 16.1152C2.29688 16.0605 2.30143 15.9102 2.31055 15.6641C2.32878 15.4089 2.34701 15.0944 2.36523 14.7207C2.38346 14.347 2.40169 13.9323 2.41992 13.4766C2.44727 13.0208 2.47005 12.5605 2.48828 12.0957C2.50651 11.6309 2.52474 11.1842 2.54297 10.7559C2.57031 10.3184 2.5931 9.93555 2.61133 9.60742C2.64779 8.89648 2.69336 8.19466 2.74805 7.50195C2.81185 6.80013 2.86654 6.16211 2.91211 5.58789C2.9668 5.01367 3.01237 4.5306 3.04883 4.13867C3.0944 3.74674 3.1263 3.50065 3.14453 3.40039C3.17188 3.25456 3.20833 3.14062 3.25391 3.05859C3.29948 2.96745 3.38151 2.87174 3.5 2.77148L5.48242 1.21289C5.5918 1.12174 5.66471 1.09896 5.70117 1.14453C5.74674 1.18099 5.76497 1.24023 5.75586 1.32227C5.72852 1.61393 5.71484 1.85091 5.71484 2.0332C5.71484 2.32487 5.72396 2.63932 5.74219 2.97656C5.76953 3.30469 5.82422 3.65104 5.90625 4.01562C5.98828 4.38021 6.11133 4.75391 6.27539 5.13672C6.44857 5.51953 6.68099 5.9069 6.97266 6.29883C7.38281 6.8457 7.76107 7.34701 8.10742 7.80273C8.46289 8.25846 8.79557 8.68685 9.10547 9.08789C9.42448 9.48893 9.72982 9.87174 10.0215 10.2363C10.3132 10.5918 10.6048 10.9473 10.8965 11.3027C11.015 11.4668 11.0833 11.4577 11.1016 11.2754C11.1471 10.6829 11.1836 10.1087 11.2109 9.55273C11.2474 8.99674 11.2884 8.41797 11.334 7.81641C11.3431 7.69792 11.3522 7.52474 11.3613 7.29688C11.3796 7.0599 11.3978 6.80013 11.416 6.51758C11.4342 6.23503 11.4525 5.9388 11.4707 5.62891C11.498 5.31901 11.5208 5.02279 11.5391 4.74023C11.5573 4.45768 11.5755 4.20703 11.5938 3.98828C11.612 3.76042 11.6302 3.58724 11.6484 3.46875C11.7214 2.97656 11.8945 2.55729 12.168 2.21094C12.4414 1.85547 12.806 1.5638 13.2617 1.33594C13.4258 1.25391 13.6126 1.19466 13.8223 1.1582C14.0319 1.12174 14.237 1.10352 14.4375 1.10352C14.6927 1.10352 14.9251 1.1582 15.1348 1.26758C15.3535 1.36784 15.5404 1.50456 15.6953 1.67773C15.8594 1.8418 15.9961 2.03776 16.1055 2.26562C16.2148 2.48438 16.2923 2.71224 16.3379 2.94922C16.3561 3.04948 16.3516 3.11784 16.3242 3.1543C16.2969 3.18164 16.2331 3.15885 16.1328 3.08594C16.0326 3.01302 15.9095 2.9401 15.7637 2.86719C15.6178 2.78516 15.4538 2.74414 15.2715 2.74414C14.916 2.74414 14.6608 2.86263 14.5059 3.09961C14.3509 3.33659 14.2552 3.61458 14.2188 3.93359C14.1732 4.27995 14.1322 4.68555 14.0957 5.15039C14.0592 5.60612 14.0228 6.09375 13.9863 6.61328C13.959 7.1237 13.9271 7.64779 13.8906 8.18555C13.8633 8.71419 13.8359 9.22917 13.8086 9.73047C13.7448 10.8242 13.6901 11.722 13.6445 12.4238C13.6081 13.1257 13.5853 13.5814 13.5762 13.791C13.5762 13.8822 13.5853 13.9505 13.6035 13.9961C13.6217 14.0326 13.6628 14.0872 13.7266 14.1602C13.8815 14.3424 14.0319 14.5293 14.1777 14.7207C14.3236 14.9121 14.4557 15.099 14.5742 15.2812C14.7018 15.4544 14.8112 15.623 14.9023 15.7871C14.9935 15.9512 15.0664 16.0924 15.1211 16.2109ZM13.6172 18.2754C13.7174 18.2754 13.8086 18.2298 13.8906 18.1387C13.9818 18.0475 14.0273 17.9336 14.0273 17.7969C14.0273 17.6419 13.9863 17.487 13.9043 17.332C13.8314 17.1771 13.6901 16.9993 13.4805 16.7988C13.3893 16.7077 13.3346 16.7305 13.3164 16.8672C13.2982 17.0586 13.2799 17.2454 13.2617 17.4277C13.2526 17.61 13.248 17.7422 13.248 17.8242C13.248 17.9974 13.2891 18.1159 13.3711 18.1797C13.4622 18.2435 13.5443 18.2754 13.6172 18.2754ZM23.707 13.2168C23.707 13.5632 23.6432 13.9049 23.5156 14.2422C23.3971 14.5703 23.2057 14.8665 22.9414 15.1309C22.7409 15.3314 22.4993 15.4863 22.2168 15.5957C21.9434 15.7051 21.6471 15.7598 21.3281 15.7598C20.681 15.7598 20.1296 15.6003 19.6738 15.2812C19.2181 14.9622 18.8945 14.502 18.7031 13.9004C18.6576 13.7819 18.6029 13.7819 18.5391 13.9004C18.4206 14.11 18.3477 14.2923 18.3203 14.4473C18.3021 14.6022 18.2884 14.748 18.2793 14.8848C18.2611 15.2767 18.375 15.6139 18.6211 15.8965C18.8763 16.1699 19.2227 16.3796 19.6602 16.5254C19.8971 16.5983 20.1615 16.653 20.4531 16.6895C20.7539 16.7168 21.0729 16.7305 21.4102 16.7305C21.9023 16.7305 22.4082 16.7031 22.9277 16.6484C23.4564 16.5846 23.9531 16.4935 24.418 16.375C24.7005 16.3112 24.9831 16.2246 25.2656 16.1152C25.5482 15.9967 25.8216 15.8646 26.0859 15.7188C26.3503 15.5638 26.5964 15.3906 26.8242 15.1992C27.0521 14.9987 27.2572 14.7799 27.4395 14.543C27.5215 14.4336 27.5853 14.4017 27.6309 14.4473C27.6764 14.4837 27.6901 14.5339 27.6719 14.5977C27.6172 14.9167 27.5215 15.2539 27.3848 15.6094C27.2572 15.9648 27.0931 16.3112 26.8926 16.6484C26.6921 16.9857 26.4596 17.3047 26.1953 17.6055C25.931 17.9062 25.6348 18.1569 25.3066 18.3574C24.9876 18.5671 24.6549 18.7311 24.3086 18.8496C23.9714 18.959 23.6296 19.041 23.2832 19.0957C22.9368 19.1504 22.5859 19.1823 22.2305 19.1914C21.8841 19.2005 21.5378 19.2051 21.1914 19.2051C20.7812 19.2051 20.3893 19.1641 20.0156 19.082C19.6419 19.0091 19.2956 18.9134 18.9766 18.7949C18.6667 18.6764 18.3887 18.5488 18.1426 18.4121C17.9056 18.2663 17.7188 18.1296 17.582 18.002C17.181 17.6374 16.8802 17.2044 16.6797 16.7031C16.4792 16.1927 16.3789 15.6641 16.3789 15.1172C16.3789 14.6341 16.4473 14.1647 16.584 13.709C16.7298 13.2533 16.9303 12.834 17.1855 12.4512C17.5775 11.8678 18.0788 11.4167 18.6895 11.0977C19.3092 10.7786 19.9609 10.6191 20.6445 10.6191C21.0273 10.6191 21.401 10.6693 21.7656 10.7695C22.1393 10.8698 22.4674 11.0247 22.75 11.2344C23.0417 11.444 23.2741 11.7129 23.4473 12.041C23.6204 12.3691 23.707 12.7611 23.707 13.2168ZM19.5645 12.6699C19.5462 12.6973 19.5326 12.7246 19.5234 12.752C19.5234 12.7793 19.5326 12.8158 19.5508 12.8613C19.6146 13.0254 19.6921 13.1895 19.7832 13.3535C19.8743 13.5085 19.9883 13.6543 20.125 13.791C20.2617 13.9186 20.4212 14.0234 20.6035 14.1055C20.7858 14.1784 21 14.2148 21.2461 14.2148C21.5651 14.2148 21.8112 14.1283 21.9844 13.9551C22.1576 13.7819 22.2441 13.5221 22.2441 13.1758C22.2441 12.8294 22.112 12.5514 21.8477 12.3418C21.5924 12.123 21.2734 12.0137 20.8906 12.0137C20.6992 12.0046 20.4805 12.0456 20.2344 12.1367C19.9883 12.2279 19.765 12.4056 19.5645 12.6699ZM30.543 14.3242C30.6615 14.2513 30.7207 14.2741 30.7207 14.3926C30.7207 14.7025 30.7663 15.0124 30.8574 15.3223C30.9486 15.623 31.0898 15.8965 31.2812 16.1426C31.4818 16.3887 31.7324 16.5892 32.0332 16.7441C32.334 16.8991 32.694 16.9766 33.1133 16.9766C33.4049 16.9766 33.6784 16.9401 33.9336 16.8672C34.1888 16.7852 34.4121 16.6667 34.6035 16.5117C34.7949 16.3477 34.9453 16.1517 35.0547 15.9238C35.1641 15.696 35.2188 15.4362 35.2188 15.1445C35.2188 14.707 35.1322 14.3242 34.959 13.9961C34.7949 13.668 34.5625 13.3945 34.2617 13.1758C33.9701 12.9479 33.6237 12.7839 33.2227 12.6836C32.8216 12.5742 32.3887 12.5241 31.9238 12.5332C31.6595 12.5423 31.377 12.5788 31.0762 12.6426C30.7754 12.6973 30.4655 12.7884 30.1465 12.916C29.8366 13.0436 29.5221 13.2168 29.2031 13.4355C28.8841 13.6543 28.5742 13.9232 28.2734 14.2422C28.1732 14.3424 28.1048 14.388 28.0684 14.3789C28.041 14.3698 28.0319 14.3105 28.041 14.2012C28.041 14.1191 28.0501 14.028 28.0684 13.9277C28.0957 13.8184 28.123 13.709 28.1504 13.5996C28.1777 13.4811 28.2096 13.3672 28.2461 13.2578C28.2826 13.1393 28.3236 13.0391 28.3691 12.957C28.5697 12.5378 28.8112 12.1777 29.0938 11.877C29.3763 11.5762 29.6953 11.3346 30.0508 11.1523C30.4062 10.9701 30.7845 10.8379 31.1855 10.7559C31.5957 10.6647 32.0241 10.6191 32.4707 10.6191C33.127 10.6191 33.7285 10.7012 34.2754 10.8652C34.8223 11.0293 35.3236 11.3027 35.7793 11.6855C36.2806 12.0957 36.6862 12.6243 36.9961 13.2715C37.3151 13.9186 37.4746 14.6432 37.4746 15.4453C37.4746 16.0378 37.3698 16.571 37.1602 17.0449C36.9505 17.5189 36.668 17.9245 36.3125 18.2617C35.957 18.5898 35.5469 18.8405 35.082 19.0137C34.6172 19.196 34.1341 19.2871 33.6328 19.2871C33.3685 19.2871 33.0996 19.2643 32.8262 19.2188C32.5618 19.1732 32.3066 19.1003 32.0605 19C31.8145 18.9089 31.582 18.7995 31.3633 18.6719C31.1536 18.5352 30.9759 18.3757 30.8301 18.1934C30.8027 18.1569 30.7708 18.125 30.7344 18.0977C30.707 18.0703 30.6888 18.1204 30.6797 18.248C30.6706 18.5488 30.6569 18.9043 30.6387 19.3145C30.6296 19.7246 30.6204 20.153 30.6113 20.5996C30.6022 21.0553 30.5931 21.5156 30.584 21.9805C30.5749 22.4453 30.5703 22.8828 30.5703 23.293C30.5703 23.7122 30.5703 24.0859 30.5703 24.4141C30.5703 24.7513 30.5749 25.0156 30.584 25.207C30.5931 25.3802 30.6022 25.5488 30.6113 25.7129C30.6296 25.877 30.666 26.0273 30.7207 26.1641C30.7754 26.3099 30.8574 26.4375 30.9668 26.5469C31.0853 26.6562 31.2493 26.7383 31.459 26.793C31.5957 26.8294 31.7552 26.8522 31.9375 26.8613C32.1289 26.8796 32.3522 26.8704 32.6074 26.834C32.6986 26.8158 32.7487 26.8294 32.7578 26.875C32.7669 26.9206 32.7305 26.9661 32.6484 27.0117C32.3841 27.1667 32.0651 27.2988 31.6914 27.4082C31.3177 27.5176 30.8984 27.5723 30.4336 27.5723C30.1146 27.5723 29.8001 27.4902 29.4902 27.3262C29.1895 27.1712 28.9206 26.9479 28.6836 26.6562C28.5286 26.4648 28.4147 26.2507 28.3418 26.0137C28.278 25.7767 28.2415 25.5397 28.2324 25.3027C28.2233 25.0566 28.2142 24.7376 28.2051 24.3457C28.2051 23.9538 28.2051 23.4616 28.2051 22.8691C28.2142 22.2858 28.2279 21.5931 28.2461 20.791C28.2734 19.998 28.3099 19.0729 28.3555 18.0156C28.3737 17.6602 28.3874 17.3047 28.3965 16.9492C28.4147 16.5938 28.4238 16.2428 28.4238 15.8965C28.4238 15.7962 28.4329 15.7142 28.4512 15.6504C28.4785 15.5866 28.5423 15.5228 28.6426 15.459L30.543 14.3242ZM40.6875 14.3242C40.806 14.2513 40.8652 14.2741 40.8652 14.3926C40.8652 14.7025 40.9108 15.0124 41.002 15.3223C41.0931 15.623 41.2344 15.8965 41.4258 16.1426C41.6263 16.3887 41.877 16.5892 42.1777 16.7441C42.4785 16.8991 42.8385 16.9766 43.2578 16.9766C43.5495 16.9766 43.8229 16.9401 44.0781 16.8672C44.3333 16.7852 44.5566 16.6667 44.748 16.5117C44.9395 16.3477 45.0898 16.1517 45.1992 15.9238C45.3086 15.696 45.3633 15.4362 45.3633 15.1445C45.3633 14.707 45.2767 14.3242 45.1035 13.9961C44.9395 13.668 44.707 13.3945 44.4062 13.1758C44.1146 12.9479 43.7682 12.7839 43.3672 12.6836C42.9661 12.5742 42.5332 12.5241 42.0684 12.5332C41.804 12.5423 41.5215 12.5788 41.2207 12.6426C40.9199 12.6973 40.61 12.7884 40.291 12.916C39.9811 13.0436 39.6667 13.2168 39.3477 13.4355C39.0286 13.6543 38.7188 13.9232 38.418 14.2422C38.3177 14.3424 38.2493 14.388 38.2129 14.3789C38.1855 14.3698 38.1764 14.3105 38.1855 14.2012C38.1855 14.1191 38.1947 14.028 38.2129 13.9277C38.2402 13.8184 38.2676 13.709 38.2949 13.5996C38.3223 13.4811 38.3542 13.3672 38.3906 13.2578C38.4271 13.1393 38.4681 13.0391 38.5137 12.957C38.7142 12.5378 38.9557 12.1777 39.2383 11.877C39.5208 11.5762 39.8398 11.3346 40.1953 11.1523C40.5508 10.9701 40.929 10.8379 41.3301 10.7559C41.7402 10.6647 42.1686 10.6191 42.6152 10.6191C43.2715 10.6191 43.873 10.7012 44.4199 10.8652C44.9668 11.0293 45.4681 11.3027 45.9238 11.6855C46.4251 12.0957 46.8307 12.6243 47.1406 13.2715C47.4596 13.9186 47.6191 14.6432 47.6191 15.4453C47.6191 16.0378 47.5143 16.571 47.3047 17.0449C47.0951 17.5189 46.8125 17.9245 46.457 18.2617C46.1016 18.5898 45.6914 18.8405 45.2266 19.0137C44.7617 19.196 44.2786 19.2871 43.7773 19.2871C43.513 19.2871 43.2441 19.2643 42.9707 19.2188C42.7064 19.1732 42.4512 19.1003 42.2051 19C41.959 18.9089 41.7266 18.7995 41.5078 18.6719C41.2982 18.5352 41.1204 18.3757 40.9746 18.1934C40.9473 18.1569 40.9154 18.125 40.8789 18.0977C40.8516 18.0703 40.8333 18.1204 40.8242 18.248C40.8151 18.5488 40.8014 18.9043 40.7832 19.3145C40.7741 19.7246 40.765 20.153 40.7559 20.5996C40.7467 21.0553 40.7376 21.5156 40.7285 21.9805C40.7194 22.4453 40.7148 22.8828 40.7148 23.293C40.7148 23.7122 40.7148 24.0859 40.7148 24.4141C40.7148 24.7513 40.7194 25.0156 40.7285 25.207C40.7376 25.3802 40.7467 25.5488 40.7559 25.7129C40.7741 25.877 40.8105 26.0273 40.8652 26.1641C40.9199 26.3099 41.002 26.4375 41.1113 26.5469C41.2298 26.6562 41.3939 26.7383 41.6035 26.793C41.7402 26.8294 41.8997 26.8522 42.082 26.8613C42.2734 26.8796 42.4967 26.8704 42.752 26.834C42.8431 26.8158 42.8932 26.8294 42.9023 26.875C42.9115 26.9206 42.875 26.9661 42.793 27.0117C42.5286 27.1667 42.2096 27.2988 41.8359 27.4082C41.4622 27.5176 41.043 27.5723 40.5781 27.5723C40.2591 27.5723 39.9447 27.4902 39.6348 27.3262C39.334 27.1712 39.0651 26.9479 38.8281 26.6562C38.6732 26.4648 38.5592 26.2507 38.4863 26.0137C38.4225 25.7767 38.3861 25.5397 38.377 25.3027C38.3678 25.0566 38.3587 24.7376 38.3496 24.3457C38.3496 23.9538 38.3496 23.4616 38.3496 22.8691C38.3587 22.2858 38.3724 21.5931 38.3906 20.791C38.418 19.998 38.4544 19.0729 38.5 18.0156C38.5182 17.6602 38.5319 17.3047 38.541 16.9492C38.5592 16.5938 38.5684 16.2428 38.5684 15.8965C38.5684 15.7962 38.5775 15.7142 38.5957 15.6504C38.623 15.5866 38.6868 15.5228 38.7871 15.459L40.6875 14.3242ZM55.7812 13.2168C55.7812 13.5632 55.7174 13.9049 55.5898 14.2422C55.4714 14.5703 55.2799 14.8665 55.0156 15.1309C54.8151 15.3314 54.5736 15.4863 54.291 15.5957C54.0176 15.7051 53.7214 15.7598 53.4023 15.7598C52.7552 15.7598 52.2038 15.6003 51.748 15.2812C51.2923 14.9622 50.9688 14.502 50.7773 13.9004C50.7318 13.7819 50.6771 13.7819 50.6133 13.9004C50.4948 14.11 50.4219 14.2923 50.3945 14.4473C50.3763 14.6022 50.3626 14.748 50.3535 14.8848C50.3353 15.2767 50.4492 15.6139 50.6953 15.8965C50.9505 16.1699 51.2969 16.3796 51.7344 16.5254C51.9714 16.5983 52.2357 16.653 52.5273 16.6895C52.8281 16.7168 53.1471 16.7305 53.4844 16.7305C53.9766 16.7305 54.4824 16.7031 55.002 16.6484C55.5306 16.5846 56.0273 16.4935 56.4922 16.375C56.7747 16.3112 57.0573 16.2246 57.3398 16.1152C57.6224 15.9967 57.8958 15.8646 58.1602 15.7188C58.4245 15.5638 58.6706 15.3906 58.8984 15.1992C59.1263 14.9987 59.3314 14.7799 59.5137 14.543C59.5957 14.4336 59.6595 14.4017 59.7051 14.4473C59.7507 14.4837 59.7643 14.5339 59.7461 14.5977C59.6914 14.9167 59.5957 15.2539 59.459 15.6094C59.3314 15.9648 59.1673 16.3112 58.9668 16.6484C58.7663 16.9857 58.5339 17.3047 58.2695 17.6055C58.0052 17.9062 57.709 18.1569 57.3809 18.3574C57.0618 18.5671 56.7292 18.7311 56.3828 18.8496C56.0456 18.959 55.7038 19.041 55.3574 19.0957C55.0111 19.1504 54.6602 19.1823 54.3047 19.1914C53.9583 19.2005 53.612 19.2051 53.2656 19.2051C52.8555 19.2051 52.4635 19.1641 52.0898 19.082C51.7161 19.0091 51.3698 18.9134 51.0508 18.7949C50.7409 18.6764 50.4629 18.5488 50.2168 18.4121C49.9798 18.2663 49.793 18.1296 49.6562 18.002C49.2552 17.6374 48.9544 17.2044 48.7539 16.7031C48.5534 16.1927 48.4531 15.6641 48.4531 15.1172C48.4531 14.6341 48.5215 14.1647 48.6582 13.709C48.804 13.2533 49.0046 12.834 49.2598 12.4512C49.6517 11.8678 50.153 11.4167 50.7637 11.0977C51.3835 10.7786 52.0352 10.6191 52.7188 10.6191C53.1016 10.6191 53.4753 10.6693 53.8398 10.7695C54.2135 10.8698 54.5417 11.0247 54.8242 11.2344C55.1159 11.444 55.3483 11.7129 55.5215 12.041C55.6947 12.3691 55.7812 12.7611 55.7812 13.2168ZM51.6387 12.6699C51.6204 12.6973 51.6068 12.7246 51.5977 12.752C51.5977 12.7793 51.6068 12.8158 51.625 12.8613C51.6888 13.0254 51.7663 13.1895 51.8574 13.3535C51.9486 13.5085 52.0625 13.6543 52.1992 13.791C52.3359 13.9186 52.4954 14.0234 52.6777 14.1055C52.86 14.1784 53.0742 14.2148 53.3203 14.2148C53.6393 14.2148 53.8854 14.1283 54.0586 13.9551C54.2318 13.7819 54.3184 13.5221 54.3184 13.1758C54.3184 12.8294 54.1862 12.5514 53.9219 12.3418C53.6667 12.123 53.3477 12.0137 52.9648 12.0137C52.7734 12.0046 52.5547 12.0456 52.3086 12.1367C52.0625 12.2279 51.8392 12.4056 51.6387 12.6699Z" fill="black"/>
<path fill-rule="evenodd" clip-rule="evenodd" d="M71.9569 0C71.7965 0.29872 71.7302 0.638974 71.7667 0.976066C71.8033 1.31316 71.9409 1.63132 72.1615 1.88876C72.5985 2.43568 73.2195 2.80492 73.9086 2.92757C73.4376 3.02121 73.0159 3.28095 72.7203 3.65947C72.5874 3.8359 72.4999 4.04233 72.4656 4.26054C72.4313 4.47875 72.4512 4.70206 72.5235 4.91077C72.5235 4.91077 73.5545 4.16314 74.6248 4.60385C75.6951 5.04456 76.5608 6.28799 76.5608 6.28799C73.9008 5.09177 69.7298 5.20195 67.7544 7.53929C67.7544 7.53929 68.447 8.23183 69.7219 8.37349L71.5005 8.56237C68.9113 9.04242 67.9512 11.907 66.4244 12.8829C65.9365 13.1977 65.3699 13.7801 65 13.8666C65.5509 14.6064 67.0147 15.5193 67.8253 16.4873C68.6359 17.4553 69.2025 18.3209 70.0131 18.6279C70.5601 18.8354 71.1271 18.9857 71.7051 19.0764C71.7051 19.0764 70.7843 19.1158 69.6353 19.7139C68.4863 20.312 68.5729 21.0754 68.5729 21.0754C68.5729 21.0754 70.1783 22.2244 73.0351 22.1535C75.8918 22.0827 76.8283 21.6184 76.8283 21.6184C76.8283 21.6184 76.8126 22.7989 75.2465 23.2789C73.6804 23.759 72.5786 22.9877 72.5786 22.9877C72.5786 22.9877 72.6022 23.8928 72.8698 24.365C73.0664 24.6885 73.3045 24.9848 73.5781 25.2464C73.5781 25.2464 72.9328 25.1834 72.2481 26.3718C71.5634 27.5601 71.7838 28.4573 71.7838 28.4573L80.1258 20.1153C80.1258 20.1153 80.6924 19.5959 80.8734 17.7779C81.0544 15.96 80.5665 14.9684 80.5665 14.9684C80.5665 14.9684 81.322 15.6295 82.6284 15.1888C83.9348 14.748 84.6352 13.9847 84.6352 13.9847C84.6352 13.9847 83.7144 12.6861 82.5654 12.6704C81.9056 12.6516 81.2463 12.7231 80.6059 12.8829C80.6059 12.8829 82.0146 10.0576 80.0707 8.11378L71.9569 0ZM68.0141 14.0161C68.5772 13.8708 69.1175 13.6484 69.6196 13.3551C72.555 11.7103 72.9957 10.0262 72.9957 10.0262C72.9879 10.4918 73.0926 10.9524 73.3008 11.3689C73.5091 11.7854 73.8148 12.1455 74.1919 12.4186C75.4826 13.3787 77.3163 12.757 77.938 11.6316C78.5597 10.5062 78.2764 9.87662 78.2764 9.87662C78.2764 9.87662 77.269 10.9154 76.2066 9.8058C75.1442 8.69615 76.8598 7.2481 78.3 8.43645C79.7402 9.62479 80.0707 10.9154 79.3309 12.1904C78.9079 12.9438 78.3597 13.6198 77.7098 14.1893C77.7098 14.1893 80.4012 15.4642 79.2129 18.3209C78.0246 21.1777 76.2696 19.8477 76.0177 18.9663C75.7659 18.0848 76.6473 17.5025 77.2533 17.5733C77.8593 17.6441 78.2292 18.4232 78.2292 18.4232C78.4624 17.9387 78.5392 17.3936 78.449 16.8634C78.3587 16.3333 78.1059 15.8443 77.7255 15.4642C76.3955 14.0398 74.9789 14.6693 74.1998 15.4012C73.4207 16.1331 73.1689 17.4867 73.1689 17.4867C72.8226 15.6137 69.6117 14.3546 68.0141 14.0161Z" fill="black"/>
</svg>
