<?xml version="1.0" encoding="UTF-8" standalone="no"?>
<svg width="171px" height="31px" viewBox="0 0 171 31" version="1.1" xmlns="http://www.w3.org/2000/svg" xmlns:xlink="http://www.w3.org/1999/xlink">
    <!-- Generator: Sketch 48.2 (47327) - http://www.bohemiancoding.com/sketch -->
    <title>Page 1</title>
    <desc>Created with Sketch.</desc>
    <defs></defs>
    <g id="Trusted-band" stroke="none" stroke-width="1" fill="none" fill-rule="evenodd" transform="translate(-549.000000, -693.000000)" opacity="0.6">
        <g id="Page-1" transform="translate(549.500000, 693.000000)" fill="#C7AF8A">
            <path d="M21.9842313,17.0889437 C21.96195,17.0889437 21.9842313,27.449725 21.9842313,27.449725 C21.9842313,28.751725 20.8624188,29.8900062 19.3967,29.8900062 L17.99395,29.8900062 L17.99395,30.42185 L29.8795438,30.42185 L29.8795438,29.8900062 L28.4748563,29.8900062 C27.03045,29.8900062 25.8902313,28.7313812 25.8902313,27.449725 L25.8902313,16.9261937 L25.8902313,4.370225 C25.8902313,3.10794375 27.0072,1.928975 28.4748563,1.928975 L29.8795438,1.928975 L29.8795438,1.40100625 L17.99395,1.40100625 L17.99395,1.928975 L19.3967,1.928975 C20.8827625,1.928975 21.9842313,3.10794375 21.9842313,4.370225 L21.9842313,15.6222562 L7.89860625,15.6222562 L7.89860625,4.370225 C7.89860625,3.10794375 9.03785625,1.928975 10.4832313,1.928975 L11.8850125,1.928975 L11.8850125,1.40100625 L0.000387500001,1.40100625 L0.000387500001,1.928975 L1.4070125,1.928975 C2.8737,1.928975 3.99260625,3.10794375 3.99260625,4.370225 L3.99260625,16.9261937 L3.99260625,27.449725 C3.99260625,28.7313812 2.8737,29.8900062 1.4070125,29.8900062 L0.000387500001,29.8900062 L0.000387500001,30.42185 L11.8850125,30.42185 L11.8850125,29.8900062 L10.4832313,29.8900062 C9.03785625,29.8900062 7.89860625,28.7313812 7.89860625,27.449725 C7.89860625,27.449725 7.91895,17.0889437 7.89860625,17.0889437 L21.9842313,17.0889437 Z" id="Fill-1"></path>
            <path d="M50.2481906,22.8281094 C50.3528156,24.5331094 49.2959094,27.1187031 47.8253469,28.4458906 C46.4148469,29.7178594 44.4075969,30.8261094 41.7212531,30.8261094 C38.6696906,30.8261094 36.0434094,29.1976406 35.0853156,28.8285469 C34.5060031,28.6076719 33.7484406,28.6347969 33.2950656,28.9137969 C32.7670969,29.2392969 32.4415969,29.7672656 32.3175969,30.7447344 L31.8710031,30.7447344 L31.8710031,20.6881406 L32.3175969,20.6881406 C32.7254406,23.7832969 34.1688781,25.5987344 35.0659406,26.6343281 C36.5316594,28.3218906 39.2993781,29.2790156 41.9663469,28.8527656 C44.0840344,28.5088594 46.4032219,26.2109844 46.1465031,23.3638281 C46.0573781,22.3369531 45.8287531,20.8460469 43.6955656,19.4471719 C42.3548156,18.5704531 40.4521906,17.3304531 38.6474094,16.1321094 C36.3689094,14.6198906 34.3025656,12.9856094 33.7193781,12.3229844 C32.9618156,11.4578906 32.0134094,10.2082031 32.0134094,8.21257812 C32.0134094,6.50467187 32.6624719,4.54973437 34.0487531,3.24870312 C35.4321281,1.94573437 37.3056906,0.969234375 39.9910656,0.969234375 C42.6774094,0.969234375 44.7117844,2.39426562 45.4044406,2.71879687 C46.0970969,3.04332812 46.8614406,2.96679687 47.2964094,2.71879687 C47.7255656,2.47273437 48.0094094,2.10364062 48.1334094,1.13295312 L48.5770969,1.13295312 L48.5770969,10.6538281 L48.1334094,10.6538281 C47.7255656,7.56157812 46.3819094,5.24142187 45.4451281,4.38504687 C44.5083469,3.53157812 42.6774094,2.35164062 39.9513469,2.88348437 C37.3337844,3.38529687 36.0598781,4.57007812 35.8176906,6.66451562 C35.6355656,8.26004687 36.5016281,9.24429687 36.9995656,9.84104687 C38.0186906,11.0636094 44.4754094,14.7216094 47.3981281,17.2490781 C48.9074406,18.5530156 50.0873781,20.1010781 50.2481906,22.8281094" id="Fill-3"></path>
            <path d="M59.7091969,28.7792375 C61.7203219,29.4031125 65.5468844,29.8787687 68.2157906,27.9703312 C71.4155719,25.6792375 72.0907906,20.0827687 67.5715719,17.1658625 C65.7532281,15.9898 61.2156031,16.0731125 59.7091969,16.4247687 L59.7091969,28.7792375 Z M59.7091969,14.7895187 C61.1342281,15.1537687 65.3289156,15.2516125 66.9554469,14.2198937 C69.5051969,12.5982062 70.3886969,10.002925 69.9198219,7.7031125 C69.6369469,6.32458125 68.9055406,5.04970625 67.6471344,4.167175 C65.1632594,2.41664375 61.5827594,2.69855 59.7091969,3.268175 L59.7091969,14.7895187 Z M69.0741031,15.6023 C74.2452906,17.37705 75.7197281,21.0302062 74.7596969,24.789925 C73.6320719,29.2161437 68.6439781,30.1170812 67.0261656,30.3321437 C66.2966969,30.4232062 64.4337906,30.4135187 62.5912281,30.4154562 C59.3013531,30.4212687 55.1425094,30.4096437 51.8022594,30.4096437 L51.8022594,29.8787687 L53.5121031,29.8787687 C54.6000094,29.8787687 55.8438844,28.9623312 55.8438844,27.5779875 L55.8438844,4.41033125 C55.8438844,3.02501875 54.6000094,2.0882375 53.5237281,2.0882375 L51.8138844,2.0882375 L51.8138844,1.55639375 L62.1310719,1.55639375 C64.6149469,1.55639375 65.9624781,1.7976125 66.8324156,1.96908125 C68.2981344,2.25001875 72.5732281,3.5142375 73.5884781,7.50355 C74.3760719,10.5909562 72.8376969,14.4853312 69.0741031,15.6023 L69.0741031,15.6023 Z" id="Fill-5"></path>
            <g id="Group-9" transform="translate(77.500000, 0.899678)">
                <path d="M24.462875,1.00614375 L24.8833125,10.8370187 L24.292375,10.8573625 C24.0065937,8.3734875 23.0736875,6.62101875 21.8918125,5.48564375 C21.548875,5.1553 20.905625,4.4907375 19.9746562,3.90755 C18.4275625,2.9291125 16.1209687,2.0649875 13.3823125,2.5532375 C9.272875,3.2856125 7.15421875,6.003925 6.10021875,8.61858125 C4.79240625,11.8358 3.9699375,17.3295812 6.17578125,21.9718312 C7.97184375,25.7344562 11.4186562,27.3018937 14.0730312,27.7058625 C16.3399062,28.0555812 21.3599687,27.9490187 25.1894375,22.7817062 L25.7987812,23.18955 C22.8285937,27.3832687 18.8770625,30.0705812 14.356875,30.0308625 C8.5811875,29.9756437 4.9503125,26.7962062 3.289875,24.9013312 C1.5364375,22.9076437 0.19665625,19.1217687 0.17825,15.8222062 C0.16565625,12.8917375 0.81084375,9.62801875 1.86290625,7.72055 C3.6754375,4.4481125 7.4613125,1.18826875 12.4465,0.70389375 C16.1790937,0.3348 18.631,1.0691125 20.7293125,2.26745625 C21.781375,2.86905 22.3684375,2.9388 22.94,2.69758125 C23.50575,2.4524875 23.9649375,1.96520625 23.9649375,1.00614375 L24.462875,1.00614375 Z" id="Fill-7"></path>
            </g>
            <polygon id="Fill-10" points="111.951172 15.9242156 126.452391 30.4215594 126.452391 1.42105938"></polygon>
            <polygon id="Fill-12" points="126.452197 30.4215594 155.450759 30.4215594 140.953416 15.9242156"></polygon>
            <polygon id="Fill-14" points="140.953125 15.9242156 155.450469 1.42105938 126.451906 1.42105938"></polygon>
            <polygon id="Fill-16" points="155.45415 1.42144688 155.45415 30.4219469 169.951494 15.9246031"></polygon>
        </g>
    </g>
</svg>