 <svg
                  xmlns="http://www.w3.org/2000/svg"
                  xmlns:xlink="http://www.w3.org/1999/xlink"
                  width="30px"
                  height="22px"
                  viewBox="119 3 30 22"
                  version="1.1"
                  class="cq-dd-image replaced-svg"
                >
                  <!-- Generator: Sketch 39 (31667) - http://www.bohemiancoding.com/sketch -->
                  <desc>Created with Sketch.</desc>
                  <defs>
                    <polygon
                      id="path-1"
                      points="29.9838258 10.6918885 29.9838258 21.3666243 0 21.3666243 0 10.6918885 0 0.0171527337 29.9838258 0.0171527337"
                    ></polygon>
                  </defs>
                  <g
                    id="Page-1"
                    stroke="none"
                    stroke-width="1"
                    fill="none"
                    fill-rule="evenodd"
                    transform="translate(119.000000, 3.000000)"
                  >
                    <polygon
                      id="Fill-1"
                      fill="#000000"
                      points="4.77871295 4.84486572 13.6060764 10.8122702 14.8445375 10.1615324"
                    ></polygon>
                    <g id="Group-5">
                      <mask id="mask-2" fill="white">
                        <use xlink:href="#path-1"></use>
                      </mask>
                      <g id="Clip-4"></g>
                      <path
                        d="M11.8964384,14.6291898 L11.8950587,6.10037035 L19.99682,10.3796386 L11.8964384,14.6291898 Z M29.6844129,4.62286382 C29.6844129,4.62286382 29.3913992,2.53110399 28.4924266,1.60996177 C27.3522505,0.400949609 26.074227,0.394976463 25.4881409,0.324190234 C21.2923386,0.0171527337 14.9984149,0.0171527337 14.9984149,0.0171527337 L14.9853816,0.0171527337 C14.9853816,0.0171527337 8.6916047,0.0171527337 4.49565558,0.324190234 C3.90954012,0.394976463 2.6319863,0.400949609 1.49139922,1.60996177 C0.59239726,2.53110399 0.299853229,4.62286382 0.299853229,4.62286382 C0.299853229,4.62286382 0,7.07925297 0,9.53567184 L0,11.8385422 C0,14.2949017 0.299853229,16.7512908 0.299853229,16.7512908 C0.299853229,16.7512908 0.59239726,18.8430804 1.49139922,19.7642226 C2.6319863,20.973205 4.13022505,20.9349888 4.79753425,21.0617027 C7.19627202,21.2945662 14.9919276,21.3666303 14.9919276,21.3666303 C14.9919276,21.3666303 21.2923386,21.3570316 25.4881409,21.0499644 C26.074227,20.9792079 27.3522505,20.973205 28.4924266,19.7642226 C29.3913992,18.8430804 29.6844129,16.7512908 29.6844129,16.7512908 C29.6844129,16.7512908 29.9838258,14.2949017 29.9838258,11.8385422 L29.9838258,9.53567184 C29.9838258,7.07925297 29.6844129,4.62286382 29.6844129,4.62286382 L29.6844129,4.62286382 Z"
                        id="Fill-3"
                        fill="#FFFFFF"
                        mask="url(#mask-2)"
                      ></path>
                    </g>
                  </g>
                </svg>