<svg xmlns="http://www.w3.org/2000/svg" xmlns:xlink="http://www.w3.org/1999/xlink" width="29px" height="22px" viewBox="0 0 29 24" version="1.1" class="cq-dd-image replaced-svg">
    <!-- Generator: Sketch 39 (31667) - http://www.bohemiancoding.com/sketch -->
    <desc>Created with Sketch.</desc>
    <defs></defs>
    <path d="M25.5827462,3.72672253 C26.8112753,2.99018559 27.7546203,1.82452722 28.1987515,0.435068676 C27.049094,1.11673527 25.7757482,1.61212592 24.4206278,1.87868956 C23.3353988,0.722376844 21.7891172,0 20.0777291,0 C16.7921641,0 14.1280145,2.66386639 14.1280145,5.9494314 C14.1280145,6.41572307 14.1808316,6.86983706 14.2823595,7.30547214 C9.33765704,7.05710421 4.95355247,4.68861724 2.01922842,1.0888399 C1.50698727,1.96775651 1.21359027,2.98968999 1.21359027,4.0801583 C1.21359027,6.1441326 2.26370233,7.9653322 3.86025215,9.03229476 C2.88483455,9.00135497 1.9674733,8.73358773 1.16544597,8.28804059 C1.16487957,8.31296234 1.16487957,8.33788409 1.16487957,8.36301825 C1.16487957,11.245658 3.21589738,13.6501116 5.93753693,14.1969033 C5.43832306,14.3326278 4.91262982,14.4056938 4.37001528,14.4056938 C3.98670173,14.4056938 3.61386663,14.3683112 3.250448,14.2986436 C4.00765865,16.6624577 6.20502097,18.3826959 8.80856539,18.4304862 C6.77220326,20.0265404 4.20682028,20.9776734 1.41933633,20.9776734 C0.938955376,20.9776734 0.465442063,20.9494949 0,20.8941289 C2.6329266,22.5825777 5.76025264,23.5674118 9.12022891,23.5674118 C20.063923,23.5674118 26.0481882,14.5016284 26.0481882,6.63916924 C26.0481882,6.38145566 26.0423826,6.12480408 26.0310545,5.86949771 C27.1937393,5.03072495 28.2023623,3.9828077 29,2.78967876" id="Page-1" stroke="none" fill="#FFFFFF" fill-hover="red" fill-rule="evenodd"></path>
</svg>
