<svg width="87px" height="85px" viewBox="96 0 87 85" version="1.1" xmlns="http://www.w3.org/2000/svg" xmlns:xlink="http://www.w3.org/1999/xlink">
    <!-- Generator: Sketch 39 (31667) - http://www.bohemiancoding.com/sketch -->
    <desc>Created with Sketch.</desc>
    <defs></defs>
    <g id="Group-4" stroke="none" stroke-width="1" fill="none" fill-rule="evenodd" transform="translate(96.000000, 0.000000)">
        <g id="Group" fill="#D9E9FB">
            <path d="M43,84.4725177 C66.7482442,84.4725177 86,65.5627005 86,42.2362589 C86,18.9098172 66.7482442,0 43,0 C19.2517558,0 0,18.9098172 0,42.2362589 C0,65.5627005 19.2517558,84.4725177 43,84.4725177 Z" id="Oval-26"></path>
        </g>
    </g>
    <path d="M134.581208,54.2219731 L122,54.2219731 L122,45.2226037 C122,41.5810496 122.32087,38.7081453 122.962619,36.6038047 C123.604368,34.499464 124.790841,32.6115554 126.522071,30.9400224 C128.253302,29.2684894 130.46208,27.9551617 133.148473,27 L135.610987,32.1936659 C133.103687,33.0294324 131.305324,34.1935183 130.215842,35.6859585 C129.126361,37.1783987 128.55178,39.1633144 128.492082,41.6407651 L134.581208,41.6407651 L134.581208,54.2219731 Z M155.579737,54.2219731 L142.998529,54.2219731 L142.998529,45.2226037 C142.998529,41.5512008 143.319398,38.6708344 143.961148,36.5814182 C144.602897,34.4920019 145.796831,32.6115554 147.542986,30.9400224 C149.289141,29.2684894 151.490458,27.9551617 154.147001,27 L156.609515,32.1936659 C154.102216,33.0294324 152.303852,34.1935183 151.214371,35.6859585 C150.124889,37.1783987 149.550309,39.1633144 149.490611,41.6407651 L155.579737,41.6407651 L155.579737,54.2219731 Z" id="“" stroke="#42484D" stroke-width="1.5" fill="none"></path>
</svg>