<svg width="63" height="17" viewBox="0 0 63 17" fill="none" xmlns="http://www.w3.org/2000/svg">
<path d="M0.487063 7.536C0.487063 6.608 0.673729 5.79733 1.04706 5.104C1.43106 4.41067 1.95906 3.87733 2.63106 3.504C3.31373 3.13067 4.0924 2.944 4.96706 2.944C6.08706 2.944 7.0204 3.23733 7.76706 3.824C8.5244 4.41067 9.0204 5.23733 9.25506 6.304H6.34306C6.09773 5.62133 5.62306 5.28 4.91906 5.28C4.41773 5.28 4.01773 5.47733 3.71906 5.872C3.4204 6.256 3.27106 6.81067 3.27106 7.536C3.27106 8.26133 3.4204 8.82133 3.71906 9.216C4.01773 9.6 4.41773 9.792 4.91906 9.792C5.62306 9.792 6.09773 9.45067 6.34306 8.768H9.25506C9.0204 9.81333 8.5244 10.6347 7.76706 11.232C7.00973 11.8293 6.0764 12.128 4.96706 12.128C4.0924 12.128 3.31373 11.9413 2.63106 11.568C1.95906 11.1947 1.43106 10.6613 1.04706 9.968C0.673729 9.27467 0.487063 8.464 0.487063 7.536ZM13.4546 0.16V12H10.7186V0.16H13.4546ZM14.8933 7.52C14.8933 6.60267 15.064 5.79733 15.4053 5.104C15.7573 4.41067 16.232 3.87733 16.8293 3.504C17.4266 3.13067 18.0933 2.944 18.8293 2.944C19.4586 2.944 20.008 3.072 20.4773 3.328C20.9573 3.584 21.3253 3.92 21.5813 4.336V3.072H24.3173V12H21.5813V10.736C21.3146 11.152 20.9413 11.488 20.4613 11.744C19.992 12 19.4426 12.128 18.8133 12.128C18.088 12.128 17.4266 11.9413 16.8293 11.568C16.232 11.184 15.7573 10.6453 15.4053 9.952C15.064 9.248 14.8933 8.43733 14.8933 7.52ZM21.5813 7.536C21.5813 6.85333 21.3893 6.31467 21.0053 5.92C20.632 5.52533 20.1733 5.328 19.6293 5.328C19.0853 5.328 18.6213 5.52533 18.2373 5.92C17.864 6.304 17.6773 6.83733 17.6773 7.52C17.6773 8.20267 17.864 8.74667 18.2373 9.152C18.6213 9.54667 19.0853 9.744 19.6293 9.744C20.1733 9.744 20.632 9.54667 21.0053 9.152C21.3893 8.75733 21.5813 8.21867 21.5813 7.536ZM29.6887 2.944C30.318 2.944 30.8674 3.072 31.3367 3.328C31.8167 3.584 32.1847 3.92 32.4407 4.336V3.072H35.1767V11.984C35.1767 12.8053 35.0114 13.5467 34.6807 14.208C34.3607 14.88 33.8647 15.4133 33.1927 15.808C32.5314 16.2027 31.7047 16.4 30.7127 16.4C29.39 16.4 28.318 16.0853 27.4967 15.456C26.6754 14.8373 26.206 13.9947 26.0887 12.928H28.7927C28.878 13.2693 29.0807 13.536 29.4007 13.728C29.7207 13.9307 30.1154 14.032 30.5847 14.032C31.15 14.032 31.598 13.8667 31.9287 13.536C32.27 13.216 32.4407 12.6987 32.4407 11.984V10.72C32.174 11.136 31.806 11.4773 31.3367 11.744C30.8674 12 30.318 12.128 29.6887 12.128C28.9527 12.128 28.286 11.9413 27.6887 11.568C27.0914 11.184 26.6167 10.6453 26.2647 9.952C25.9234 9.248 25.7527 8.43733 25.7527 7.52C25.7527 6.60267 25.9234 5.79733 26.2647 5.104C26.6167 4.41067 27.0914 3.87733 27.6887 3.504C28.286 3.13067 28.9527 2.944 29.6887 2.944ZM32.4407 7.536C32.4407 6.85333 32.2487 6.31467 31.8647 5.92C31.4914 5.52533 31.0327 5.328 30.4887 5.328C29.9447 5.328 29.4807 5.52533 29.0967 5.92C28.7234 6.304 28.5367 6.83733 28.5367 7.52C28.5367 8.20267 28.7234 8.74667 29.0967 9.152C29.4807 9.54667 29.9447 9.744 30.4887 9.744C31.0327 9.744 31.4914 9.54667 31.8647 9.152C32.2487 8.75733 32.4407 8.21867 32.4407 7.536ZM48.5481 2.976C49.6574 2.976 50.5374 3.312 51.1881 3.984C51.8494 4.656 52.1801 5.58933 52.1801 6.784V12H49.4601V7.152C49.4601 6.576 49.3054 6.13333 48.9961 5.824C48.6974 5.504 48.2814 5.344 47.7481 5.344C47.2147 5.344 46.7934 5.504 46.4841 5.824C46.1854 6.13333 46.0361 6.576 46.0361 7.152V12H43.3161V7.152C43.3161 6.576 43.1614 6.13333 42.8521 5.824C42.5534 5.504 42.1374 5.344 41.6041 5.344C41.0707 5.344 40.6494 5.504 40.3401 5.824C40.0414 6.13333 39.8921 6.576 39.8921 7.152V12H37.1561V3.072H39.8921V4.192C40.1694 3.81867 40.5321 3.52533 40.9801 3.312C41.4281 3.088 41.9347 2.976 42.5001 2.976C43.1721 2.976 43.7694 3.12 44.2921 3.408C44.8254 3.696 45.2414 4.10667 45.5401 4.64C45.8494 4.14933 46.2707 3.74933 46.8041 3.44C47.3374 3.13067 47.9187 2.976 48.5481 2.976ZM62.5096 7.392C62.5096 7.648 62.4936 7.91467 62.4616 8.192H56.2696C56.3122 8.74667 56.4882 9.17333 56.7976 9.472C57.1176 9.76 57.5069 9.904 57.9656 9.904C58.6482 9.904 59.1229 9.616 59.3896 9.04H62.3016C62.1522 9.62667 61.8802 10.1547 61.4856 10.624C61.1016 11.0933 60.6162 11.4613 60.0296 11.728C59.4429 11.9947 58.7869 12.128 58.0616 12.128C57.1869 12.128 56.4082 11.9413 55.7256 11.568C55.0429 11.1947 54.5096 10.6613 54.1256 9.968C53.7416 9.27467 53.5496 8.464 53.5496 7.536C53.5496 6.608 53.7362 5.79733 54.1096 5.104C54.4936 4.41067 55.0269 3.87733 55.7096 3.504C56.3922 3.13067 57.1762 2.944 58.0616 2.944C58.9256 2.944 59.6936 3.12533 60.3656 3.488C61.0376 3.85067 61.5602 4.368 61.9336 5.04C62.3176 5.712 62.5096 6.496 62.5096 7.392ZM59.7096 6.672C59.7096 6.20267 59.5496 5.82933 59.2296 5.552C58.9096 5.27467 58.5096 5.136 58.0296 5.136C57.5709 5.136 57.1816 5.26933 56.8616 5.536C56.5522 5.80267 56.3602 6.18133 56.2856 6.672H59.7096Z" fill="white"/>
</svg>
