<svg width="15" height="18" viewBox="0 0 15 18" fill="none" xmlns="http://www.w3.org/2000/svg">
<path fill-rule="evenodd" clip-rule="evenodd" d="M12.223 1.68266C9.26087 -0.733839 4.95543 -0.531866 2.21986 2.18734L2.01804 2.39349L1.8562 2.57113C-0.731644 5.50375 -0.60576 9.94129 2.18481 12.7152L7.50144 18L12.8181 12.7152L12.9833 12.5457C15.7376 9.63149 15.6704 5.05748 12.783 2.18734L12.6069 2.01789L12.4167 1.84621L12.223 1.68266ZM3.55312 3.18267C5.73005 1.17108 9.06305 1.10474 11.3186 3.06583L11.4785 3.20973L11.6247 3.35096L11.7776 3.50855L11.9234 3.67023C13.9147 5.96154 13.8245 9.39964 11.65 11.5611L7.50153 15.6837L3.35285 11.5611L3.20145 11.4049C1.13089 9.18897 1.12514 5.74059 3.21342 3.5196L3.39592 3.33333L3.55312 3.18267ZM7.50144 4.87421C8.92551 4.87421 10.0789 6.02074 10.0789 7.43383C10.0789 8.84691 8.92551 9.99345 7.50144 9.99345C6.07736 9.99345 4.92393 8.84691 4.92393 7.43383C4.92393 6.02074 6.07736 4.87421 7.50144 4.87421ZM6.57331 7.43383C6.57331 6.92238 6.9894 6.50878 7.50144 6.50878C8.01347 6.50878 8.42956 6.92238 8.42956 7.43383C8.42956 7.94527 8.01347 8.35888 7.50144 8.35888C6.9894 8.35888 6.57331 7.94527 6.57331 7.43383Z" fill="#B3B1B7"/>
</svg>
