<svg width="16" height="16" viewBox="0 0 16 16" fill="none" xmlns="http://www.w3.org/2000/svg">
<path d="M15.663 8.18765C15.663 7.64553 15.619 7.10047 15.5253 6.56714H8.00293V9.6382H12.3106C12.1319 10.6287 11.5575 11.5049 10.7165 12.0616V14.0543H13.2864C14.7956 12.6653 15.663 10.614 15.663 8.18765Z" fill="#4285F4"/>
<path d="M8.00272 15.9796C10.1536 15.9796 11.9676 15.2734 13.2892 14.0543L10.7192 12.0617C10.0042 12.5481 9.0811 12.8236 8.00565 12.8236C5.92506 12.8236 4.16096 11.4199 3.52799 9.53271H0.875977V11.5869C2.22982 14.28 4.98733 15.9796 8.00272 15.9796Z" fill="#34A853"/>
<path d="M3.52527 9.53274C3.1912 8.54226 3.1912 7.46974 3.52527 6.47926V4.42505H0.876184C-0.254952 6.67853 -0.254952 9.33347 0.876184 11.587L3.52527 9.53274Z" fill="#FBBC04"/>
<path d="M8.00272 3.18539C9.13971 3.16781 10.2386 3.59565 11.0621 4.38099L13.339 2.10407C11.8972 0.750225 9.98367 0.0059028 8.00272 0.029346C4.98733 0.029346 2.22982 1.72898 0.875977 4.42495L3.52506 6.47916C4.1551 4.58905 5.92213 3.18539 8.00272 3.18539Z" fill="#EA4335"/>
</svg>
