<svg width="87" height="32" viewBox="0 0 87 32" fill="none" xmlns="http://www.w3.org/2000/svg">
<rect width="87" height="32" rx="4" fill="#FFA043"/>
<path d="M12.4871 17.536C12.4871 16.608 12.6737 15.7973 13.0471 15.104C13.4311 14.4107 13.9591 13.8773 14.6311 13.504C15.3137 13.1307 16.0924 12.944 16.9671 12.944C18.0871 12.944 19.0204 13.2373 19.7671 13.824C20.5244 14.4107 21.0204 15.2373 21.2551 16.304H18.3431C18.0977 15.6213 17.6231 15.28 16.9191 15.28C16.4177 15.28 16.0177 15.4773 15.7191 15.872C15.4204 16.256 15.2711 16.8107 15.2711 17.536C15.2711 18.2613 15.4204 18.8213 15.7191 19.216C16.0177 19.6 16.4177 19.792 16.9191 19.792C17.6231 19.792 18.0977 19.4507 18.3431 18.768H21.2551C21.0204 19.8133 20.5244 20.6347 19.7671 21.232C19.0097 21.8293 18.0764 22.128 16.9671 22.128C16.0924 22.128 15.3137 21.9413 14.6311 21.568C13.9591 21.1947 13.4311 20.6613 13.0471 19.968C12.6737 19.2747 12.4871 18.464 12.4871 17.536ZM25.4546 10.16V22H22.7186V10.16H25.4546ZM26.8933 17.52C26.8933 16.6027 27.064 15.7973 27.4053 15.104C27.7573 14.4107 28.232 13.8773 28.8293 13.504C29.4266 13.1307 30.0933 12.944 30.8293 12.944C31.4586 12.944 32.008 13.072 32.4773 13.328C32.9573 13.584 33.3253 13.92 33.5813 14.336V13.072H36.3173V22H33.5813V20.736C33.3146 21.152 32.9413 21.488 32.4613 21.744C31.992 22 31.4426 22.128 30.8133 22.128C30.088 22.128 29.4266 21.9413 28.8293 21.568C28.232 21.184 27.7573 20.6453 27.4053 19.952C27.064 19.248 26.8933 18.4373 26.8933 17.52ZM33.5813 17.536C33.5813 16.8533 33.3893 16.3147 33.0053 15.92C32.632 15.5253 32.1733 15.328 31.6293 15.328C31.0853 15.328 30.6213 15.5253 30.2373 15.92C29.864 16.304 29.6773 16.8373 29.6773 17.52C29.6773 18.2027 29.864 18.7467 30.2373 19.152C30.6213 19.5467 31.0853 19.744 31.6293 19.744C32.1733 19.744 32.632 19.5467 33.0053 19.152C33.3893 18.7573 33.5813 18.2187 33.5813 17.536ZM41.6887 12.944C42.318 12.944 42.8674 13.072 43.3367 13.328C43.8167 13.584 44.1847 13.92 44.4407 14.336V13.072H47.1767V21.984C47.1767 22.8053 47.0114 23.5467 46.6807 24.208C46.3607 24.88 45.8647 25.4133 45.1927 25.808C44.5314 26.2027 43.7047 26.4 42.7127 26.4C41.39 26.4 40.318 26.0853 39.4967 25.456C38.6754 24.8373 38.206 23.9947 38.0887 22.928H40.7927C40.878 23.2693 41.0807 23.536 41.4007 23.728C41.7207 23.9307 42.1154 24.032 42.5847 24.032C43.15 24.032 43.598 23.8667 43.9287 23.536C44.27 23.216 44.4407 22.6987 44.4407 21.984V20.72C44.174 21.136 43.806 21.4773 43.3367 21.744C42.8674 22 42.318 22.128 41.6887 22.128C40.9527 22.128 40.286 21.9413 39.6887 21.568C39.0914 21.184 38.6167 20.6453 38.2647 19.952C37.9234 19.248 37.7527 18.4373 37.7527 17.52C37.7527 16.6027 37.9234 15.7973 38.2647 15.104C38.6167 14.4107 39.0914 13.8773 39.6887 13.504C40.286 13.1307 40.9527 12.944 41.6887 12.944ZM44.4407 17.536C44.4407 16.8533 44.2487 16.3147 43.8647 15.92C43.4914 15.5253 43.0327 15.328 42.4887 15.328C41.9447 15.328 41.4807 15.5253 41.0967 15.92C40.7234 16.304 40.5367 16.8373 40.5367 17.52C40.5367 18.2027 40.7234 18.7467 41.0967 19.152C41.4807 19.5467 41.9447 19.744 42.4887 19.744C43.0327 19.744 43.4914 19.5467 43.8647 19.152C44.2487 18.7573 44.4407 18.2187 44.4407 17.536ZM60.5481 12.976C61.6574 12.976 62.5374 13.312 63.1881 13.984C63.8494 14.656 64.1801 15.5893 64.1801 16.784V22H61.4601V17.152C61.4601 16.576 61.3054 16.1333 60.9961 15.824C60.6974 15.504 60.2814 15.344 59.7481 15.344C59.2147 15.344 58.7934 15.504 58.4841 15.824C58.1854 16.1333 58.0361 16.576 58.0361 17.152V22H55.3161V17.152C55.3161 16.576 55.1614 16.1333 54.8521 15.824C54.5534 15.504 54.1374 15.344 53.6041 15.344C53.0707 15.344 52.6494 15.504 52.3401 15.824C52.0414 16.1333 51.8921 16.576 51.8921 17.152V22H49.1561V13.072H51.8921V14.192C52.1694 13.8187 52.5321 13.5253 52.9801 13.312C53.4281 13.088 53.9347 12.976 54.5001 12.976C55.1721 12.976 55.7694 13.12 56.2921 13.408C56.8254 13.696 57.2414 14.1067 57.5401 14.64C57.8494 14.1493 58.2707 13.7493 58.8041 13.44C59.3374 13.1307 59.9187 12.976 60.5481 12.976ZM74.5096 17.392C74.5096 17.648 74.4936 17.9147 74.4616 18.192H68.2696C68.3122 18.7467 68.4882 19.1733 68.7976 19.472C69.1176 19.76 69.5069 19.904 69.9656 19.904C70.6482 19.904 71.1229 19.616 71.3896 19.04H74.3016C74.1522 19.6267 73.8802 20.1547 73.4856 20.624C73.1016 21.0933 72.6162 21.4613 72.0296 21.728C71.4429 21.9947 70.7869 22.128 70.0616 22.128C69.1869 22.128 68.4082 21.9413 67.7256 21.568C67.0429 21.1947 66.5096 20.6613 66.1256 19.968C65.7416 19.2747 65.5496 18.464 65.5496 17.536C65.5496 16.608 65.7362 15.7973 66.1096 15.104C66.4936 14.4107 67.0269 13.8773 67.7096 13.504C68.3922 13.1307 69.1762 12.944 70.0616 12.944C70.9256 12.944 71.6936 13.1253 72.3656 13.488C73.0376 13.8507 73.5602 14.368 73.9336 15.04C74.3176 15.712 74.5096 16.496 74.5096 17.392ZM71.7096 16.672C71.7096 16.2027 71.5496 15.8293 71.2296 15.552C70.9096 15.2747 70.5096 15.136 70.0296 15.136C69.5709 15.136 69.1816 15.2693 68.8616 15.536C68.5522 15.8027 68.3602 16.1813 68.2856 16.672H71.7096Z" fill="white"/>
</svg>
