<svg width="64" height="24" viewBox="0 0 64 24" fill="none" xmlns="http://www.w3.org/2000/svg">
<rect width="64" height="24" rx="2" fill="#FFA15F"/>
<path d="M8.7403 12.652C8.7403 11.956 8.8803 11.348 9.1603 10.828C9.4483 10.308 9.8443 9.908 10.3483 9.628C10.8603 9.348 11.4443 9.208 12.1003 9.208C12.9403 9.208 13.6403 9.428 14.2003 9.868C14.7683 10.308 15.1403 10.928 15.3163 11.728H13.1323C12.9483 11.216 12.5923 10.96 12.0643 10.96C11.6883 10.96 11.3883 11.108 11.1643 11.404C10.9403 11.692 10.8283 12.108 10.8283 12.652C10.8283 13.196 10.9403 13.616 11.1643 13.912C11.3883 14.2 11.6883 14.344 12.0643 14.344C12.5923 14.344 12.9483 14.088 13.1323 13.576H15.3163C15.1403 14.36 14.7683 14.976 14.2003 15.424C13.6323 15.872 12.9323 16.096 12.1003 16.096C11.4443 16.096 10.8603 15.956 10.3483 15.676C9.8443 15.396 9.4483 14.996 9.1603 14.476C8.8803 13.956 8.7403 13.348 8.7403 12.652ZM18.4659 7.12V16H16.4139V7.12H18.4659ZM19.545 12.64C19.545 11.952 19.673 11.348 19.929 10.828C20.193 10.308 20.549 9.908 20.997 9.628C21.445 9.348 21.945 9.208 22.497 9.208C22.969 9.208 23.381 9.304 23.733 9.496C24.093 9.688 24.369 9.94 24.561 10.252V9.304H26.613V16H24.561V15.052C24.361 15.364 24.081 15.616 23.721 15.808C23.369 16 22.957 16.096 22.485 16.096C21.941 16.096 21.445 15.956 20.997 15.676C20.549 15.388 20.193 14.984 19.929 14.464C19.673 13.936 19.545 13.328 19.545 12.64ZM24.561 12.652C24.561 12.14 24.417 11.736 24.129 11.44C23.849 11.144 23.505 10.996 23.097 10.996C22.689 10.996 22.341 11.144 22.053 11.44C21.773 11.728 21.633 12.128 21.633 12.64C21.633 13.152 21.773 13.56 22.053 13.864C22.341 14.16 22.689 14.308 23.097 14.308C23.505 14.308 23.849 14.16 24.129 13.864C24.417 13.568 24.561 13.164 24.561 12.652ZM30.6415 9.208C31.1135 9.208 31.5255 9.304 31.8775 9.496C32.2375 9.688 32.5135 9.94 32.7055 10.252V9.304H34.7575V15.988C34.7575 16.604 34.6335 17.16 34.3855 17.656C34.1455 18.16 33.7735 18.56 33.2695 18.856C32.7735 19.152 32.1535 19.3 31.4095 19.3C30.4175 19.3 29.6135 19.064 28.9975 18.592C28.3815 18.128 28.0295 17.496 27.9415 16.696H29.9695C30.0335 16.952 30.1855 17.152 30.4255 17.296C30.6655 17.448 30.9615 17.524 31.3135 17.524C31.7375 17.524 32.0735 17.4 32.3215 17.152C32.5775 16.912 32.7055 16.524 32.7055 15.988V15.04C32.5055 15.352 32.2295 15.608 31.8775 15.808C31.5255 16 31.1135 16.096 30.6415 16.096C30.0895 16.096 29.5895 15.956 29.1415 15.676C28.6935 15.388 28.3375 14.984 28.0735 14.464C27.8175 13.936 27.6895 13.328 27.6895 12.64C27.6895 11.952 27.8175 11.348 28.0735 10.828C28.3375 10.308 28.6935 9.908 29.1415 9.628C29.5895 9.348 30.0895 9.208 30.6415 9.208ZM32.7055 12.652C32.7055 12.14 32.5615 11.736 32.2735 11.44C31.9935 11.144 31.6495 10.996 31.2415 10.996C30.8335 10.996 30.4855 11.144 30.1975 11.44C29.9175 11.728 29.7775 12.128 29.7775 12.64C29.7775 13.152 29.9175 13.56 30.1975 13.864C30.4855 14.16 30.8335 14.308 31.2415 14.308C31.6495 14.308 31.9935 14.16 32.2735 13.864C32.5615 13.568 32.7055 13.164 32.7055 12.652ZM44.786 9.232C45.618 9.232 46.278 9.484 46.766 9.988C47.262 10.492 47.51 11.192 47.51 12.088V16H45.47V12.364C45.47 11.932 45.354 11.6 45.122 11.368C44.898 11.128 44.586 11.008 44.186 11.008C43.786 11.008 43.47 11.128 43.238 11.368C43.014 11.6 42.902 11.932 42.902 12.364V16H40.862V12.364C40.862 11.932 40.746 11.6 40.514 11.368C40.29 11.128 39.978 11.008 39.578 11.008C39.178 11.008 38.862 11.128 38.63 11.368C38.406 11.6 38.294 11.932 38.294 12.364V16H36.242V9.304H38.294V10.144C38.502 9.864 38.774 9.644 39.11 9.484C39.446 9.316 39.826 9.232 40.25 9.232C40.754 9.232 41.202 9.34 41.594 9.556C41.994 9.772 42.306 10.08 42.53 10.48C42.762 10.112 43.078 9.812 43.478 9.58C43.878 9.348 44.314 9.232 44.786 9.232ZM55.2572 12.544C55.2572 12.736 55.2452 12.936 55.2212 13.144H50.5772C50.6092 13.56 50.7412 13.88 50.9732 14.104C51.2132 14.32 51.5052 14.428 51.8492 14.428C52.3612 14.428 52.7172 14.212 52.9172 13.78H55.1012C54.9892 14.22 54.7852 14.616 54.4892 14.968C54.2012 15.32 53.8372 15.596 53.3972 15.796C52.9572 15.996 52.4652 16.096 51.9212 16.096C51.2652 16.096 50.6812 15.956 50.1692 15.676C49.6572 15.396 49.2572 14.996 48.9692 14.476C48.6812 13.956 48.5372 13.348 48.5372 12.652C48.5372 11.956 48.6772 11.348 48.9572 10.828C49.2452 10.308 49.6452 9.908 50.1572 9.628C50.6692 9.348 51.2572 9.208 51.9212 9.208C52.5692 9.208 53.1452 9.344 53.6492 9.616C54.1532 9.888 54.5452 10.276 54.8252 10.78C55.1132 11.284 55.2572 11.872 55.2572 12.544ZM53.1572 12.004C53.1572 11.652 53.0372 11.372 52.7972 11.164C52.5572 10.956 52.2572 10.852 51.8972 10.852C51.5532 10.852 51.2612 10.952 51.0212 11.152C50.7892 11.352 50.6452 11.636 50.5892 12.004H53.1572Z" fill="white"/>
</svg>
