<svg width="24" height="24" viewBox="0 0 24 24" fill="none" xmlns="http://www.w3.org/2000/svg">
<path d="M6.79803 2.37158H15.498C17.6867 3.92166 19.595 5.83356 21.141 8.02508V21.4066H6.79803V2.37158Z" fill="url(#paint0_linear)"/>
<path d="M6.79803 2.37158H15.498C17.6867 3.92166 19.595 5.83356 21.141 8.02508V21.4066H6.79803V2.37158Z" stroke="#C8C8C8" stroke-width="0.3125"/>
<path d="M15.4966 2.37158C17.6825 3.9254 19.5908 5.83669 21.1411 8.02508C20.6256 7.49535 20.0007 7.08462 19.3099 6.82164C18.6192 6.55865 17.8793 6.44976 17.1421 6.50258C17.2472 5.73057 17.1509 4.9445 16.8626 4.22067C16.5743 3.49685 16.1037 2.85987 15.4966 2.37158Z" fill="url(#paint1_linear)"/>
<path d="M15.4966 2.37158C17.6825 3.9254 19.5908 5.83669 21.1411 8.02508C20.6256 7.49535 20.0007 7.08462 19.3099 6.82164C18.6192 6.55865 17.8793 6.44976 17.1421 6.50258C17.2472 5.73057 17.1509 4.9445 16.8626 4.22067C16.5743 3.49685 16.1037 2.85987 15.4966 2.37158V2.37158Z" stroke="#C8C8C8" stroke-width="0.3125"/>
<path d="M4.00427 4.87207H14.5793V6.89707H4.00427V4.87207Z" stroke="#C8C8C8" stroke-width="2.5"/>
<path d="M11.8642 14.8912C12.2137 14.2057 12.6142 13.434 12.9292 12.6585L13.0552 12.3525C12.6397 10.7715 12.3907 9.50246 12.6134 8.68196C12.6601 8.57147 12.7407 8.47867 12.8436 8.41693C12.9464 8.3552 13.0662 8.32772 13.1857 8.33846H13.3762C13.7392 8.33321 13.9094 8.79446 13.9289 8.97371C13.9317 9.24535 13.8961 9.51602 13.8232 9.7777C13.841 9.49949 13.7999 9.22066 13.7024 8.95946C13.5524 8.63021 13.4092 8.43446 13.2809 8.40221C13.2353 8.43917 13.1982 8.48561 13.1723 8.53832C13.1464 8.59103 13.1323 8.64874 13.1309 8.70745C13.0928 8.94028 13.0735 9.17579 13.0732 9.4117C13.0909 10.1053 13.2001 10.7935 13.3979 11.4585C13.4384 11.3415 13.4729 11.229 13.5029 11.1232C13.5472 10.9567 13.8277 9.85496 13.8277 9.85496C13.8277 9.85496 13.7572 11.322 13.6582 11.7652C13.6372 11.859 13.6139 11.952 13.5892 12.0465C13.9212 12.9986 14.4723 13.8595 15.1979 14.5597C15.483 14.8069 15.7949 15.0213 16.1279 15.1987C16.7528 15.1045 17.3838 15.0571 18.0157 15.057C18.5225 15.0058 19.0323 15.1197 19.4692 15.3817C19.5654 15.4788 19.6223 15.6081 19.6289 15.7447C19.6257 15.816 19.6154 15.8869 19.5982 15.9562C19.6057 15.918 19.6057 15.7312 19.0319 15.5467C18.2682 15.4014 17.4849 15.3905 16.7174 15.5145C17.8919 16.089 19.0372 16.3747 19.3994 16.2037C19.4759 16.1526 19.5425 16.0881 19.5959 16.0132C19.5707 16.1373 19.5341 16.2589 19.4864 16.3762C19.4141 16.468 19.3155 16.5356 19.2037 16.5697C18.6307 16.7197 17.1397 16.3687 15.8399 15.6262C14.3725 15.8515 12.9258 16.1953 11.5139 16.6545C10.2577 18.8565 9.31267 19.8675 8.54467 19.4827L8.26192 19.341C8.21037 19.2994 8.17265 19.2431 8.15377 19.1796C8.13489 19.1162 8.13573 19.0484 8.15617 18.9855C8.24542 18.5475 8.79517 17.8867 9.89917 17.2275C10.0177 17.1525 10.5472 16.8757 10.5472 16.8757C10.5472 16.8757 10.1549 17.2552 10.0634 17.3295C9.18217 18.0517 8.53192 18.96 8.54767 19.3125V19.3432C9.29767 19.2367 10.4189 17.7127 11.8619 14.889L11.8642 14.8912ZM12.3194 15.123C12.0931 15.5463 11.8616 15.9668 11.6249 16.3845C12.8281 15.9023 14.0788 15.5483 15.3562 15.3285C15.1911 15.215 15.0317 15.0936 14.8784 14.9647C14.2198 14.3966 13.6838 13.7002 13.3034 12.918C13.0252 13.6748 12.6952 14.4115 12.3157 15.123" fill="#F91D0A"/>
<path d="M2.8125 3.72607H15.7605V8.07832H2.8125V3.72607Z" fill="url(#paint2_linear)"/>
<path d="M16.0073 8.33934H2.57782V3.46509H16.0073V8.33934ZM15.5251 3.94809H3.06082V7.85484H15.5251V3.94809Z" fill="url(#paint3_linear)"/>
<path d="M6.19653 4.36423H7.13853C7.25748 4.35662 7.37666 4.37487 7.48788 4.41772C7.59909 4.46058 7.6997 4.52702 7.78278 4.61248C7.94431 4.80966 8.02475 5.06091 8.00778 5.31523C8.02474 5.5707 7.94435 5.82312 7.78278 6.02173C7.6995 6.10679 7.5988 6.17282 7.48759 6.21528C7.37639 6.25774 7.25731 6.27564 7.13853 6.26773H6.76353V7.27948H6.19653V4.36423ZM6.76428 4.90873V5.72323H7.07853C7.12626 5.72596 7.17398 5.71786 7.21814 5.69955C7.2623 5.68124 7.30174 5.65318 7.33353 5.61748C7.39784 5.53116 7.4297 5.42495 7.42353 5.31748C7.43042 5.20993 7.39849 5.10348 7.33353 5.01748C7.30178 4.98174 7.26234 4.95366 7.21817 4.93534C7.17401 4.91703 7.12626 4.90896 7.07853 4.91173H6.76428V4.90873ZM8.97603 4.93498V6.71173H9.17928C9.27923 6.71842 9.37934 6.70154 9.47157 6.66246C9.5638 6.62338 9.64557 6.56319 9.71028 6.48673C9.84566 6.29299 9.91076 6.0588 9.89478 5.82298C9.91075 5.58856 9.84619 5.35571 9.71178 5.16298C9.64672 5.08655 9.56468 5.02639 9.47222 4.98732C9.37976 4.94825 9.27944 4.93136 9.17928 4.93798H8.97603V4.93498ZM8.40828 4.36948H9.00828C9.25892 4.35672 9.50987 4.38742 9.75003 4.46023C9.91771 4.52548 10.0637 4.63643 10.1715 4.78048C10.2769 4.91601 10.355 5.07059 10.4018 5.23573C10.4543 5.42596 10.4795 5.62267 10.4768 5.81998C10.4795 6.01903 10.4543 6.21747 10.4018 6.40948C10.355 6.57463 10.2769 6.72921 10.1715 6.86473C10.0624 7.00922 9.91549 7.12081 9.74703 7.18723C9.50637 7.26029 9.25505 7.29199 9.00378 7.28098H8.40378V4.36423L8.40828 4.36948ZM10.9103 4.36423H12.45V4.93273H11.4825V5.47498H12.3893V6.04348H11.4825V7.27948H10.9148V4.36423" fill="#FFF9F9"/>
<defs>
<linearGradient id="paint0_linear" x1="10.9851" y1="17.2828" x2="16.2907" y2="7.69385" gradientUnits="userSpaceOnUse">
<stop stop-color="white"/>
<stop offset="1" stop-color="#E1E1E1"/>
</linearGradient>
<linearGradient id="paint1_linear" x1="17.6678" y1="5.79833" x2="18.4838" y2="5.04608" gradientUnits="userSpaceOnUse">
<stop stop-color="white"/>
<stop offset="1" stop-color="#C8C8C8"/>
</linearGradient>
<linearGradient id="paint2_linear" x1="10.5442" y1="9.77332" x2="8.02875" y2="2.03107" gradientUnits="userSpaceOnUse">
<stop offset="0.127" stop-color="#8A0000"/>
<stop offset="0.244" stop-color="#900000" stop-opacity="0.999"/>
<stop offset="0.398" stop-color="#A00000" stop-opacity="0.999"/>
<stop offset="0.573" stop-color="#BC0000" stop-opacity="0.998"/>
<stop offset="0.761" stop-color="#E20000" stop-opacity="0.997"/>
<stop offset="0.867" stop-color="#FA0000" stop-opacity="0.996"/>
</linearGradient>
<linearGradient id="paint3_linear" x1="10.6501" y1="10.0801" x2="7.93582" y2="1.72434" gradientUnits="userSpaceOnUse">
<stop offset="0.315" stop-color="#5E0000"/>
<stop offset="0.444" stop-color="#830000" stop-opacity="0.999"/>
<stop offset="0.618" stop-color="#AE0000" stop-opacity="0.998"/>
<stop offset="0.775" stop-color="#CD0000" stop-opacity="0.997"/>
<stop offset="0.908" stop-color="#E00000" stop-opacity="0.996"/>
<stop offset="1" stop-color="#E70000" stop-opacity="0.996"/>
</linearGradient>
</defs>
</svg>
