<svg width="12" height="10" viewBox="0 0 12 10" fill="none" xmlns="http://www.w3.org/2000/svg">
<path fill-rule="evenodd" clip-rule="evenodd" d="M3.49935 0.833252V2.49992H5.16602V0.833252H3.49935ZM0.166016 0.833252V2.49992H1.83268V0.833252H0.166016ZM6.83268 0.833252V2.49992H8.49935V0.833252H6.83268ZM10.166 0.833252V2.49992H11.8327V0.833252H10.166ZM3.49935 4.16659V5.83325H5.16602V4.16659H3.49935ZM0.166016 4.16659V5.83325H1.83268V4.16659H0.166016ZM6.83268 4.16659V5.83325H8.49935V4.16659H6.83268ZM10.166 4.16659V5.83325H11.8327V4.16659H10.166ZM3.49935 9.16658V7.49992H5.16602V9.16658H3.49935ZM0.166016 9.16658V7.49992H1.83268V9.16658H0.166016ZM6.83268 9.16658V7.49992H8.49935V9.16658H6.83268ZM10.166 9.16658V7.49992H11.8327V9.16658H10.166Z"/>
</svg>
