<svg width="18" height="18" viewBox="0 0 18 18" fill="none" xmlns="http://www.w3.org/2000/svg">
<path fill-rule="evenodd" clip-rule="evenodd" d="M8.83957 0L8.96323 0.000847229C13.7882 0.0670015 17.6791 3.9989 17.6791 8.83957C17.6791 13.6428 13.8482 17.5512 9.07506 17.6761L8.83957 17.6791C3.95761 17.6791 0 13.7215 0 8.83957C0 3.95761 3.95761 0 8.83957 0ZM8.83957 13.2848C8.13366 13.2848 7.51716 13.3129 6.96932 13.3686C7.45367 14.9388 8.15028 15.9554 8.82188 16.0374L8.92961 16.0422C9.6189 16.0233 10.3437 14.9986 10.8426 13.3867C10.2537 13.3193 9.59162 13.2848 8.83957 13.2848ZM5.18161 13.7098L5.34498 13.6629L5.44872 13.9971C5.62761 14.5449 5.8363 15.0465 6.0716 15.4918C5.31201 15.1753 4.61821 14.7326 4.01645 14.1898L4.1641 14.1129C4.47876 13.9568 4.8128 13.8223 5.18161 13.7098ZM12.4644 13.6945L12.4203 13.8391C12.2404 14.4172 12.0281 14.9463 11.7864 15.4148C12.484 15.1012 13.1224 14.6805 13.6808 14.1734L13.6401 14.1523C13.3606 14.0096 13.0571 13.8829 12.7219 13.7734L12.4644 13.6945ZM1.68231 9.65764L4.72448 9.65765L4.75088 10.1585C4.79426 10.8208 4.87017 11.4601 4.97616 12.0672C4.3352 12.2403 3.77136 12.4669 3.24316 12.7463L3.11898 12.8141L2.91208 12.9335C2.25395 11.9825 1.81882 10.8653 1.68231 9.65764ZM15.9968 9.65764L13.0942 9.65765C13.06 10.5112 12.9725 11.3316 12.8368 12.1004C13.4109 12.259 13.9204 12.458 14.3843 12.695C14.5204 12.7644 14.6505 12.8359 14.7815 12.9126C15.3775 12.0447 15.7882 11.0401 15.9569 9.9554L15.9968 9.65764ZM6.36315 9.65728H11.4555L11.4294 10.1041C11.3875 10.6935 11.3173 11.2566 11.2244 11.7844C10.5181 11.6946 9.72963 11.6485 8.83957 11.6485C7.99515 11.6485 7.25406 11.6874 6.59117 11.7665C6.47656 11.111 6.39715 10.4025 6.36315 9.65728ZM2.99328 4.63093L2.9797 4.64958C2.28389 5.62096 1.82362 6.77252 1.68239 8.02077L4.72451 8.02067C4.76094 7.11193 4.8578 6.24068 5.00898 5.42933C4.35535 5.26553 3.78838 5.04932 3.27536 4.78412C3.17974 4.73468 3.08707 4.68428 2.99328 4.63093ZM6.62748 5.71312C7.28387 5.78494 8.01517 5.82144 8.83957 5.82144C9.73474 5.82144 10.5065 5.78137 11.188 5.70057L11.2591 6.10052C11.3567 6.70256 11.4247 7.34678 11.4555 8.02105H6.36319C6.4007 7.19959 6.4934 6.42273 6.62748 5.71312ZM14.6666 4.60407L14.5197 4.68921L14.4613 4.72148C13.9535 4.99725 13.416 5.22033 12.8023 5.39166C12.9578 6.21319 13.0571 7.0976 13.0941 8.02067L15.9968 8.02077C15.8643 6.8505 15.4515 5.7652 14.8271 4.8337L14.6666 4.60407ZM7.03448 4.10936C7.53221 2.59822 8.23094 1.64873 8.89631 1.63648L8.99661 1.64171C9.63789 1.71986 10.302 2.65017 10.7817 4.1005C10.2218 4.15692 9.58324 4.18507 8.83957 4.18507C8.16559 4.18507 7.56844 4.1598 7.03448 4.10936ZM6.07258 2.18719L6.03576 2.20243C5.33937 2.49698 4.69894 2.89793 4.13485 3.38489L4.02681 3.3305C4.4255 3.5366 4.87238 3.70798 5.39748 3.84182C5.55606 3.33281 5.73954 2.86182 5.94598 2.4367L6.07258 2.18719ZM11.8292 2.34845L11.7868 2.26496L12.0548 2.39201C12.5847 2.65675 13.0774 2.98486 13.5229 3.36626C13.1819 3.53947 12.8189 3.6851 12.4084 3.8021C12.2419 3.27303 12.048 2.78546 11.8292 2.34845Z" fill="#B3B1B7"/>
</svg>
