<svg width="44" height="44" viewBox="0 0 44 44" fill="none" xmlns="http://www.w3.org/2000/svg">
<circle cx="22" cy="22" r="22" fill="#5D9A05"/>
<path fill-rule="evenodd" clip-rule="evenodd" d="M19.4993 21.1667C17.6584 21.1667 16.166 19.6743 16.166 17.8333C16.166 15.9924 17.6584 14.5 19.4993 14.5C21.3403 14.5 22.8327 15.9924 22.8327 17.8333C22.8327 19.6743 21.3403 21.1667 19.4993 21.1667ZM27.8327 21.1667C27.3724 21.1667 26.9993 20.7936 26.9993 20.3333V18.6667H25.3327C24.8724 18.6667 24.4993 18.2936 24.4993 17.8333C24.4993 17.3731 24.8724 17 25.3327 17H26.9993V15.3333C26.9993 14.8731 27.3724 14.5 27.8327 14.5C28.2929 14.5 28.666 14.8731 28.666 15.3333V17H30.3327C30.7929 17 31.166 17.3731 31.166 17.8333C31.166 18.2936 30.7929 18.6667 30.3327 18.6667H28.666V20.3333C28.666 20.7936 28.2929 21.1667 27.8327 21.1667Z" fill="white"/>
<path d="M12.0005 28.8328C12.3235 24.8556 15.5516 22.8335 19.4861 22.8335C23.476 22.8335 26.7541 24.7445 26.9983 28.8335C27.008 28.9964 26.9983 29.5002 26.3722 29.5002C23.2843 29.5002 18.6956 29.5002 12.6063 29.5002C12.3973 29.5002 11.9829 29.0495 12.0005 28.8328Z" fill="white"/>
</svg>
