<svg width="24" height="24" viewBox="0 0 24 24" fill="none" xmlns="http://www.w3.org/2000/svg">
<path fill-rule="evenodd" clip-rule="evenodd" d="M11.6995 18.7756L7.01027 21.2409C6.44903 21.536 5.75486 21.3202 5.4598 20.7589C5.34231 20.5355 5.30176 20.2795 5.34444 20.0306L6.24001 14.809L2.44632 11.1111C1.99227 10.6685 1.98298 9.94163 2.42557 9.48758C2.60181 9.30677 2.83274 9.18911 3.08261 9.1528L8.32537 8.39098L10.67 3.64024C10.9506 3.07165 11.639 2.83819 12.2076 3.11881C12.4341 3.23056 12.6173 3.41383 12.7291 3.64024L15.0737 8.39098L20.3165 9.1528C20.9439 9.24398 21.3787 9.82657 21.2875 10.4541C21.2512 10.7039 21.1336 10.9349 20.9527 11.1111L17.1591 14.809L18.0546 20.0306C18.1618 20.6556 17.7421 21.2491 17.1171 21.3563C16.8683 21.3989 16.6123 21.3584 16.3888 21.2409L11.6995 18.7756Z" fill="#1F1F1F"/>
</svg>
