<svg width="24" height="24" viewBox="0 0 24 24" fill="none" xmlns="http://www.w3.org/2000/svg">
<path opacity="0.3" fill-rule="evenodd" clip-rule="evenodd" d="M17.835 13.168C17.6869 13.8026 17.0569 14.197 16.4223 14.049C15.7877 13.9009 15.3933 13.2664 15.5414 12.6318L17.6062 3.78241C17.7308 3.24839 18.2069 2.87061 18.7553 2.87061H20.8201C21.4718 2.87061 22.0001 3.39887 22.0001 4.05052C22.0001 4.70217 21.4718 5.23044 20.8201 5.23044H19.6916L17.835 13.168Z" fill="#919191"/>
<path fill-rule="evenodd" clip-rule="evenodd" d="M18.8561 7.57504C18.9577 6.96551 18.4876 6.41064 17.8697 6.41064L3.26708 6.41064C2.6027 6.41064 2.12304 7.04655 2.30555 7.68537L4.13035 14.0722C4.23495 14.4383 4.53838 14.7132 4.91299 14.7813L16.2818 16.8484C16.8309 16.9482 17.3554 16.5793 17.4471 16.0289L18.8561 7.57504Z" fill="#919191"/>
<path opacity="0.3" fill-rule="evenodd" clip-rule="evenodd" d="M8 19.5C8 20.3284 7.32843 21 6.5 21C5.67157 21 5 20.3284 5 19.5C5 18.6716 5.67157 18 6.5 18C7.32843 18 8 18.6716 8 19.5ZM17 19.5C17 20.3284 16.3284 21 15.5 21C14.6716 21 14 20.3284 14 19.5C14 18.6716 14.6716 18 15.5 18C16.3284 18 17 18.6716 17 19.5Z" fill="#919191"/>
</svg>
