<svg width="16" height="16" viewBox="0 0 16 16" fill="none" xmlns="http://www.w3.org/2000/svg">
<path opacity="0.5" d="M8 16C12.4183 16 16 12.4183 16 8C16 3.58172 12.4183 0 8 0C3.58172 0 0 3.58172 0 8C0 12.4183 3.58172 16 8 16Z" fill="#1F1F1F"/>
<path d="M11.1576 4.84224C11.3919 5.07655 11.3919 5.45645 11.1576 5.69077L8.84863 7.99984L11.1576 10.3089C11.3724 10.5237 11.3903 10.8608 11.2113 11.096L11.1576 11.1574C10.9233 11.3918 10.5434 11.3918 10.309 11.1574L7.99996 8.8485L5.69089 11.1574C5.45658 11.3918 5.07668 11.3918 4.84236 11.1574C4.60805 10.9231 4.60805 10.5432 4.84236 10.3089L7.15129 7.99984L4.84236 5.69077C4.62757 5.47598 4.60967 5.13886 4.78866 4.90368L4.84236 4.84224C5.07668 4.60793 5.45658 4.60793 5.69089 4.84224L7.99996 7.15117L10.309 4.84224C10.5434 4.60793 10.9233 4.60793 11.1576 4.84224Z" fill="white"/>
</svg>
