<svg width="16" height="16" viewBox="0 0 16 16" fill="none" xmlns="http://www.w3.org/2000/svg">
<path opacity="0.3" fill-rule="evenodd" clip-rule="evenodd" d="M8 14.6665C4.68629 14.6665 2 11.9802 2 8.6665C2 5.3528 4.68629 2.6665 8 2.6665C11.3137 2.6665 14 5.3528 14 8.6665C14 11.9802 11.3137 14.6665 8 14.6665Z" fill="#1F1F1F"/>
<path fill-rule="evenodd" clip-rule="evenodd" d="M7.64085 5.33617C7.65544 5.14648 7.81362 5 8.00388 5C8.19093 5 8.34755 5.14174 8.36617 5.32787L8.66671 8.33333L10.8223 9.56508C10.9322 9.6279 11 9.7448 11 9.87141C11 10.104 10.7788 10.273 10.5544 10.2118L7.73204 9.44206C7.50066 9.37896 7.34668 9.16045 7.36507 8.92133L7.64085 5.33617Z" fill="#1F1F1F"/>
</svg>
