<svg width="18" height="18" viewBox="0 0 18 18" fill="none" xmlns="http://www.w3.org/2000/svg">
<path d="M17.4006 8.9999C17.4006 4.3607 13.6398 0.599899 9.00059 0.599899C4.36139 0.599899 0.600586 4.3607 0.600586 8.9999C0.600586 13.1926 3.67234 16.6677 7.68809 17.2979V11.428H5.55527V8.9999H7.68809V7.14927C7.68809 5.04402 8.94215 3.88115 10.8609 3.88115C11.7799 3.88115 12.7412 4.04521 12.7412 4.04521V6.1124H11.682C10.6385 6.1124 10.3131 6.7599 10.3131 7.42419V8.9999H12.6428L12.2704 11.428H10.3131V17.2979C14.3288 16.6677 17.4006 13.1926 17.4006 8.9999Z" fill="#1877F2"/>
<path d="M12.2698 11.428L12.6422 8.9999H10.3125V7.4242C10.3125 6.75991 10.6379 6.1124 11.6814 6.1124H12.7406V4.04521C12.7406 4.04521 11.7793 3.88115 10.8603 3.88115C8.94156 3.88115 7.6875 5.04403 7.6875 7.14928V8.9999H5.55469V11.428H7.6875V17.2979C8.11516 17.365 8.55349 17.3999 9 17.3999C9.44651 17.3999 9.88484 17.365 10.3125 17.2979V11.428H12.2698Z" fill="white"/>
</svg>
