<svg width="16" height="16" viewBox="0 0 16 16" fill="none" xmlns="http://www.w3.org/2000/svg">
<path fill-rule="evenodd" clip-rule="evenodd" d="M3.79308 15.7066C3.449 15.6944 3.00554 15.6675 2.80398 15.6268C2.49631 15.5647 2.20575 15.4705 1.96412 15.3473C1.68021 15.2026 1.42577 15.018 1.20606 14.7987C0.985848 14.5789 0.800508 14.3242 0.655242 14.0399C0.53243 13.7995 0.438281 13.5107 0.375884 13.2048C0.334384 13.0012 0.306936 12.5544 0.294494 12.2081C0.289449 12.0666 0.28686 11.8834 0.28686 11.799L0.285645 4.20212C0.285645 4.11798 0.288207 3.93475 0.293226 3.79305C0.305457 3.449 0.332376 3.00554 0.373084 2.80398C0.43519 2.49633 0.529419 2.20575 0.652547 1.96411C0.797259 1.68019 0.981833 1.42579 1.2012 1.20606C1.42099 0.985874 1.6757 0.800534 1.95999 0.655242C2.20036 0.532457 2.48915 0.438281 2.79506 0.375884C2.99865 0.334384 3.44544 0.306936 3.79174 0.294521C3.93322 0.289449 4.11642 0.28686 4.20091 0.28686L11.7977 0.285645C11.8819 0.285645 12.0651 0.288181 12.2068 0.293226C12.5509 0.305484 12.9943 0.332376 13.1959 0.373084C13.5036 0.435216 13.7941 0.529445 14.0357 0.652547C14.3196 0.797258 14.5741 0.981859 14.7938 1.2012C15.014 1.42101 15.1993 1.67567 15.3446 1.95999C15.4674 2.20036 15.5616 2.48912 15.624 2.79505C15.6655 2.99865 15.6929 3.44546 15.7054 3.79173C15.7104 3.93325 15.713 4.11642 15.713 4.2009L15.7142 11.7977C15.7142 11.8819 15.7117 12.0651 15.7066 12.2068C15.6944 12.5509 15.6675 12.9943 15.6268 13.1959C15.5647 13.5035 15.4704 13.7941 15.3473 14.0357C15.2026 14.3197 15.018 14.5741 14.7987 14.7938C14.5789 15.014 14.3242 15.1993 14.0399 15.3446C13.7995 15.4674 13.5107 15.5616 13.2048 15.624C13.0012 15.6655 12.5544 15.6929 12.2082 15.7053C12.0666 15.7104 11.8834 15.713 11.799 15.713L4.20212 15.7142C4.11796 15.7142 3.93473 15.7117 3.79308 15.7066Z" fill="url(#paint0_radial_1398_6018)"/>
<mask id="mask0_1398_6018" style="mask-type:alpha" maskUnits="userSpaceOnUse" x="0" y="0" width="16" height="16">
<path fill-rule="evenodd" clip-rule="evenodd" d="M3.79308 15.7066C3.449 15.6944 3.00554 15.6675 2.80398 15.6268C2.49631 15.5647 2.20575 15.4705 1.96412 15.3473C1.68021 15.2026 1.42577 15.018 1.20606 14.7987C0.985848 14.5789 0.800508 14.3242 0.655242 14.0399C0.53243 13.7995 0.438281 13.5107 0.375884 13.2048C0.334384 13.0012 0.306936 12.5544 0.294494 12.2081C0.289449 12.0666 0.28686 11.8834 0.28686 11.799L0.285645 4.20212C0.285645 4.11798 0.288207 3.93475 0.293226 3.79305C0.305457 3.449 0.332376 3.00554 0.373084 2.80398C0.43519 2.49633 0.529419 2.20575 0.652547 1.96411C0.797259 1.68019 0.981833 1.42579 1.2012 1.20606C1.42099 0.985874 1.6757 0.800534 1.95999 0.655242C2.20036 0.532457 2.48915 0.438281 2.79506 0.375884C2.99865 0.334384 3.44544 0.306936 3.79174 0.294521C3.93322 0.289449 4.11642 0.28686 4.20091 0.28686L11.7977 0.285645C11.8819 0.285645 12.0651 0.288181 12.2068 0.293226C12.5509 0.305484 12.9943 0.332376 13.1959 0.373084C13.5036 0.435216 13.7941 0.529445 14.0357 0.652547C14.3196 0.797258 14.5741 0.981859 14.7938 1.2012C15.014 1.42101 15.1993 1.67567 15.3446 1.95999C15.4674 2.20036 15.5616 2.48912 15.624 2.79505C15.6655 2.99865 15.6929 3.44546 15.7054 3.79173C15.7104 3.93325 15.713 4.11642 15.713 4.2009L15.7142 11.7977C15.7142 11.8819 15.7117 12.0651 15.7066 12.2068C15.6944 12.5509 15.6675 12.9943 15.6268 13.1959C15.5647 13.5035 15.4704 13.7941 15.3473 14.0357C15.2026 14.3197 15.018 14.5741 14.7987 14.7938C14.5789 15.014 14.3242 15.1993 14.0399 15.3446C13.7995 15.4674 13.5107 15.5616 13.2048 15.624C13.0012 15.6655 12.5544 15.6929 12.2082 15.7053C12.0666 15.7104 11.8834 15.713 11.799 15.713L4.20212 15.7142C4.11796 15.7142 3.93473 15.7117 3.79308 15.7066Z" fill="white"/>
</mask>
<g mask="url(#mask0_1398_6018)">
<path fill-rule="evenodd" clip-rule="evenodd" d="M8.03177 2.27002C6.48182 2.27002 6.28731 2.27683 5.67855 2.30469C5.07099 2.33267 4.65627 2.4294 4.2934 2.57132C3.91804 2.71791 3.59963 2.91399 3.28241 3.23311C2.96496 3.55211 2.76996 3.8723 2.62372 4.24964C2.48223 4.61467 2.38593 5.03183 2.35858 5.64256C2.33135 6.25473 2.32422 6.45046 2.32422 8.0091C2.32422 9.56773 2.33111 9.76274 2.3587 10.3749C2.38664 10.9859 2.48283 11.4029 2.62384 11.7678C2.76973 12.1453 2.96472 12.4655 3.28206 12.7845C3.59916 13.1037 3.91756 13.3003 4.29268 13.4469C4.6558 13.5888 5.07063 13.6855 5.67808 13.7135C6.28683 13.7414 6.48123 13.7482 8.03105 13.7482C9.58112 13.7482 9.77504 13.7414 10.3838 13.7135C10.9914 13.6855 11.4066 13.5888 11.7697 13.4469C12.1449 13.3003 12.4628 13.1037 12.7799 12.7845C13.0974 12.4655 13.2924 12.1453 13.4386 11.768C13.5789 11.4029 13.6752 10.9858 13.7038 10.375C13.7311 9.76286 13.7382 9.56773 13.7382 8.0091C13.7382 6.45046 13.7311 6.25485 13.7038 5.64268C13.6752 5.03171 13.5789 4.61467 13.4386 4.24976C13.2924 3.8723 13.0974 3.55211 12.7799 3.23311C12.4625 2.91387 12.145 2.71779 11.7693 2.57132C11.4055 2.4294 10.9905 2.33267 10.383 2.30469C9.77421 2.27683 9.58041 2.27002 8.02998 2.27002H8.03177ZM7.52035 3.30446C7.61976 3.3043 7.7267 3.30435 7.84211 3.3044L8.03232 3.30446C9.55611 3.30446 9.73672 3.30996 10.3385 3.33746C10.8949 3.36304 11.1969 3.45654 11.3981 3.5351C11.6644 3.63912 11.8543 3.76346 12.0539 3.96433C12.2537 4.1652 12.3773 4.3565 12.481 4.62433C12.5591 4.82639 12.6522 5.13008 12.6775 5.68964C12.7049 6.29464 12.7108 6.47637 12.7108 8.00799C12.7108 9.53961 12.7049 9.72134 12.6775 10.3263C12.6521 10.8859 12.5591 11.1896 12.481 11.3917C12.3775 11.6595 12.2537 11.8502 12.0539 12.0509C11.8542 12.2518 11.6645 12.3761 11.3981 12.4802C11.1971 12.5591 10.8949 12.6523 10.3385 12.6779C9.73683 12.7054 9.55611 12.7114 8.03232 12.7114C6.50841 12.7114 6.32781 12.7054 5.72619 12.6779C5.16975 12.6521 4.86775 12.5586 4.66646 12.48C4.40013 12.376 4.20989 12.2517 4.01014 12.0508C3.81039 11.8499 3.68674 11.6591 3.58306 11.3912C3.50495 11.1891 3.41185 10.8854 3.38653 10.3259C3.35918 9.72087 3.35371 9.53913 3.35371 8.00656C3.35371 6.47398 3.35918 6.2932 3.38653 5.68821C3.41197 5.12865 3.50495 4.82495 3.58306 4.62265C3.6865 4.35483 3.81039 4.16353 4.01014 3.96266C4.20989 3.76179 4.40013 3.63744 4.66646 3.53318C4.86763 3.45427 5.16975 3.36101 5.72619 3.33531C6.25267 3.31139 6.45669 3.30422 7.52035 3.30302V3.30446ZM10.3936 4.94538C10.3936 4.56505 10.7003 4.25693 11.0784 4.25693V4.25669C11.4565 4.25669 11.7633 4.56516 11.7633 4.94538C11.7633 5.32559 11.4565 5.63407 11.0784 5.63407C10.7003 5.63407 10.3936 5.32559 10.3936 4.94538ZM8.03207 5.06196C6.41357 5.06203 5.10137 6.38163 5.10137 8.00922C5.10137 9.63684 6.41364 10.9559 8.03219 10.9559C9.65074 10.9559 10.9625 9.63684 10.9625 8.00922C10.9625 6.38159 9.65062 5.06196 8.03207 5.06196ZM9.9345 8.00902C9.9345 6.95243 9.08272 6.096 8.03214 6.096C6.98145 6.096 6.12979 6.95243 6.12979 8.00902C6.12979 9.06549 6.98145 9.92205 8.03214 9.92205C9.08272 9.92205 9.9345 9.06549 9.9345 8.00902Z" fill="white"/>
</g>
<defs>
<radialGradient id="paint0_radial_1398_6018" cx="0" cy="0" r="1" gradientUnits="userSpaceOnUse" gradientTransform="translate(4.38389 16.9025) rotate(-90) scale(15.2908)">
<stop stop-color="#FFDD55"/>
<stop offset="0.1" stop-color="#FFDD55"/>
<stop offset="0.5" stop-color="#FF543E"/>
<stop offset="1" stop-color="#C837AB"/>
</radialGradient>
</defs>
</svg>
