<svg width="4" height="16" viewBox="0 0 4 16" fill="none" xmlns="http://www.w3.org/2000/svg">
<path fill-rule="evenodd" clip-rule="evenodd" d="M1.77778 3.55556C2.75962 3.55556 3.55556 2.75962 3.55556 1.77778C3.55556 0.795938 2.75962 0 1.77778 0C0.795938 0 0 0.795938 0 1.77778C0 2.75962 0.795938 3.55556 1.77778 3.55556Z" fill="#919191"/>
<path fill-rule="evenodd" clip-rule="evenodd" d="M1.77778 9.77772C2.75962 9.77772 3.55556 8.98179 3.55556 7.99995C3.55556 7.01811 2.75962 6.22217 1.77778 6.22217C0.795938 6.22217 0 7.01811 0 7.99995C0 8.98179 0.795938 9.77772 1.77778 9.77772Z" fill="#919191"/>
<path fill-rule="evenodd" clip-rule="evenodd" d="M1.77778 15.9999C2.75962 15.9999 3.55556 15.204 3.55556 14.2221C3.55556 13.2403 2.75962 12.4443 1.77778 12.4443C0.795938 12.4443 0 13.2403 0 14.2221C0 15.204 0.795938 15.9999 1.77778 15.9999Z" fill="#919191"/>
</svg>
