<svg width="19" height="19" viewBox="0 0 19 19" fill="none" xmlns="http://www.w3.org/2000/svg">
<path fill-rule="evenodd" clip-rule="evenodd" d="M9.5 19C14.7467 19 19 14.7467 19 9.5C19 4.25329 14.7467 0 9.5 0C4.25329 0 0 4.25329 0 9.5C0 14.7467 4.25329 19 9.5 19ZM4 7C4 6.44772 4.44772 6 5 6H14C14.5523 6 15 6.44772 15 7C15 7.55228 14.5523 8 14 8H5C4.44771 8 4 7.55228 4 7ZM5 10C4.44772 10 4 10.4477 4 11C4 11.5523 4.44772 12 5 12H10C10.5523 12 11 11.5523 11 11C11 10.4477 10.5523 10 10 10H5Z" fill="#5D9A05"/>
</svg>
