<svg width="16" height="16" viewBox="0 0 16 16" fill="none" xmlns="http://www.w3.org/2000/svg">
<path d="M7.3335 1.3335C10.6455 1.3335 13.3335 4.0215 13.3335 7.3335C13.3335 10.6455 10.6455 13.3335 7.3335 13.3335C4.0215 13.3335 1.3335 10.6455 1.3335 7.3335C1.3335 4.0215 4.0215 1.3335 7.3335 1.3335ZM7.3335 12.0002C9.9115 12.0002 12.0002 9.9115 12.0002 7.3335C12.0002 4.75483 9.9115 2.66683 7.3335 2.66683C4.75483 2.66683 2.66683 4.75483 2.66683 7.3335C2.66683 9.9115 4.75483 12.0002 7.3335 12.0002ZM12.9902 12.0475L14.8762 13.9328L13.9328 14.8762L12.0475 12.9902L12.9902 12.0475Z" fill="#919191"/>
</svg>
