<svg width="17" height="16" viewBox="0 0 17 16" fill="none" xmlns="http://www.w3.org/2000/svg">
<path fill-rule="evenodd" clip-rule="evenodd" d="M8.33327 13.3794L4.50697 15.3921C4.04901 15.633 3.48259 15.4569 3.24182 14.9987C3.14595 14.8162 3.11287 14.6072 3.14769 14.404L3.87845 10.1411L0.782907 7.12202C0.412413 6.76068 0.404832 6.16725 0.765975 5.79656C0.909784 5.64894 1.09822 5.55288 1.3021 5.52324L5.58004 4.90128L7.4932 1.0227C7.72218 0.558492 8.28391 0.367898 8.74787 0.597001C8.93263 0.688231 9.08217 0.837853 9.17335 1.0227L11.0865 4.90128L15.3644 5.52324C15.8765 5.59768 16.2312 6.07332 16.1568 6.58561C16.1272 6.7896 16.0312 6.97814 15.8836 7.12202L12.7881 10.1411L13.5188 14.404C13.6063 14.9143 13.2638 15.3988 12.7539 15.4863C12.5508 15.5212 12.3419 15.4881 12.1596 15.3921L8.33327 13.3794Z"/>
</svg>
