<svg width="8" height="8" viewBox="0 0 8 8" fill="none" xmlns="http://www.w3.org/2000/svg">
<path fill-rule="evenodd" clip-rule="evenodd" d="M2.0797 7.19978C2.01346 7.19978 1.94754 7.1793 1.89186 7.13898C1.79586 7.06922 1.74594 6.95211 1.7629 6.83435L2.06018 4.75313L0.893454 3.58613C0.808653 3.50133 0.778573 3.37654 0.815053 3.2623C0.851533 3.14806 0.948814 3.06391 1.06689 3.04439L2.82626 2.75096L3.71331 0.97693C3.76803 0.867814 3.88803 0.795816 4.00131 0.799976C4.12323 0.800616 4.23395 0.870374 4.28739 0.98013L5.13668 2.72472L6.93573 3.04503C7.05317 3.06583 7.14917 3.1503 7.18501 3.2639C7.22085 3.37782 7.19045 3.50197 7.10597 3.58613L5.93892 4.75313L6.23652 6.83435C6.25316 6.95275 6.20324 7.0705 6.10596 7.13994C6.009 7.2097 5.881 7.21898 5.77508 7.16522L4.02211 6.27757L2.22146 7.1665C2.17666 7.1889 2.12802 7.19978 2.0797 7.19978Z" fill="#919191"/>
</svg>
