<svg width="18" height="14" viewBox="0 0 18 14" fill="none" xmlns="http://www.w3.org/2000/svg">
<path d="M5.84169 13.9631C12.268 13.9631 15.7823 8.66831 15.7823 4.07683C15.7823 3.92643 15.7792 3.77672 15.7724 3.62769C16.4546 3.13723 17.0475 2.52517 17.5151 1.82842C16.8891 2.10516 16.2155 2.29145 15.5088 2.37545C16.2301 1.94528 16.7839 1.2648 17.0451 0.453595C16.3701 0.851588 15.6226 1.14085 14.8266 1.29702C14.1891 0.621644 13.2814 0.199219 12.2764 0.199219C10.347 0.199219 8.78245 1.75531 8.78245 3.67341C8.78245 3.94607 8.8131 4.21129 8.87304 4.46569C5.96933 4.32038 3.39453 2.93773 1.67133 0.835327C1.37129 1.34882 1.19827 1.9453 1.19827 2.58174C1.19827 3.78724 1.81507 4.85146 2.75302 5.47404C2.17982 5.45643 1.64136 5.29994 1.17073 5.03947C1.17022 5.05404 1.17021 5.06826 1.17021 5.08384C1.17021 6.7666 2.3745 8.17158 3.97313 8.48994C3.67955 8.56954 3.37067 8.61222 3.05187 8.61222C2.8271 8.61222 2.6081 8.59022 2.39524 8.54956C2.84003 9.93016 4.12981 10.9348 5.65896 10.9629C4.46319 11.895 2.95685 12.4502 1.3197 12.4502C1.03804 12.4502 0.759797 12.4343 0.486328 12.4021C2.03256 13.3878 3.86856 13.9629 5.84187 13.9629" fill="#1DA1F2"/>
</svg>
