<svg width="20" height="12" viewBox="0 0 20 12" fill="none" xmlns="http://www.w3.org/2000/svg">
<path fill-rule="evenodd" clip-rule="evenodd" d="M9.54013 11.6041H10.6834C10.6834 11.6041 11.0264 11.5469 11.1979 11.3754C11.3694 11.2039 11.3694 10.8609 11.3694 10.8609C11.3694 10.8609 11.3694 9.37462 12.0554 9.14595C12.7414 8.91729 13.6561 10.6323 14.5707 11.2611C15.2567 11.7756 15.7712 11.6612 15.7712 11.6612L18.2865 11.6041C18.2865 11.6041 19.6013 11.5469 18.9725 10.4608C18.9153 10.4036 18.6295 9.71761 17.086 8.28847C15.4854 6.80216 15.714 7.08799 17.6005 4.51554C18.7438 2.97206 19.2011 2.05741 19.0868 1.60009C18.9725 1.19993 18.115 1.31426 18.115 1.31426H15.2567C15.2567 1.31426 15.028 1.25709 14.9137 1.37142C14.7422 1.48576 14.685 1.65725 14.685 1.65725C14.685 1.65725 14.2277 2.85773 13.6561 3.88671C12.3984 6.00184 11.8839 6.11617 11.7124 6.00184C11.2551 5.71601 11.3694 4.7442 11.3694 4.11538C11.3694 2.05741 11.7124 1.19993 10.7406 0.971264C10.4548 0.914099 10.2261 0.856934 9.4258 0.856934C8.39682 0.856934 7.53933 0.856933 7.08201 1.0856C6.73902 1.25709 6.51035 1.60009 6.68185 1.60009C6.85335 1.60009 7.31067 1.71442 7.53934 2.00025C7.768 2.51474 7.768 3.37222 7.768 3.37222C7.768 3.37222 7.93949 5.83034 7.36784 6.11617C6.96768 6.34484 6.45319 5.88751 5.30987 3.94388C4.73822 2.97206 4.28089 1.82875 4.28089 1.82875C4.28089 1.82875 4.22373 1.60009 4.05223 1.48576C3.88073 1.37142 3.5949 1.31426 3.5949 1.31426H0.908115C0.908115 1.31426 0.507956 1.31426 0.336458 1.48576C0.222127 1.65725 0.336458 1.94308 0.336458 1.94308C0.336458 1.94308 2.45159 6.85933 4.85255 9.37462C7.08201 11.7756 9.54013 11.6041 9.54013 11.6041Z" fill="#5181B8"/>
</svg>
