<svg width="20" height="20" viewBox="0 0 20 20" fill="none" xmlns="http://www.w3.org/2000/svg">
<path d="M9.9979 7.22112C8.4677 7.22112 7.21894 8.46988 7.21894 10.0001C7.21894 11.5303 8.4677 12.779 9.9979 12.779C11.5281 12.779 12.7769 11.5303 12.7769 10.0001C12.7769 8.46988 11.5281 7.22112 9.9979 7.22112ZM18.3327 10.0001C18.3327 8.8493 18.3431 7.70895 18.2785 6.56026C18.2139 5.22602 17.9095 4.04189 16.9338 3.06623C15.9561 2.08849 14.774 1.7862 13.4398 1.72157C12.289 1.65694 11.1487 1.66737 9.99999 1.66737C8.84921 1.66737 7.70886 1.65694 6.56017 1.72157C5.22593 1.7862 4.0418 2.09057 3.06614 3.06623C2.08839 4.04397 1.78611 5.22602 1.72148 6.56026C1.65685 7.71104 1.66728 8.85139 1.66728 10.0001C1.66728 11.1488 1.65685 12.2912 1.72148 13.4399C1.78611 14.7741 2.09048 15.9583 3.06614 16.9339C4.04388 17.9117 5.22593 18.214 6.56017 18.2786C7.71094 18.3432 8.8513 18.3328 9.99999 18.3328C11.1508 18.3328 12.2911 18.3432 13.4398 18.2786C14.774 18.214 15.9582 17.9096 16.9338 16.9339C17.9116 15.9562 18.2139 14.7741 18.2785 13.4399C18.3452 12.2912 18.3327 11.1509 18.3327 10.0001ZM9.9979 14.2759C7.63172 14.2759 5.7221 12.3663 5.7221 10.0001C5.7221 7.6339 7.63172 5.72428 9.9979 5.72428C12.3641 5.72428 14.2737 7.6339 14.2737 10.0001C14.2737 12.3663 12.3641 14.2759 9.9979 14.2759ZM14.4488 6.54775C13.8964 6.54775 13.4502 6.10161 13.4502 5.54916C13.4502 4.9967 13.8964 4.55057 14.4488 4.55057C15.0013 4.55057 15.4474 4.9967 15.4474 5.54916C15.4476 5.68034 15.4219 5.81027 15.3717 5.9315C15.3216 6.05273 15.2481 6.16288 15.1553 6.25564C15.0625 6.3484 14.9524 6.42195 14.8312 6.47207C14.7099 6.5222 14.58 6.54791 14.4488 6.54775Z" fill="#ffffff"/>
</svg>
