<svg width="28" height="28" viewBox="0 0 28 28" fill="none" xmlns="http://www.w3.org/2000/svg">
<path d="M9.625 24.5C10.5915 24.5 11.375 23.7165 11.375 22.75C11.375 21.7835 10.5915 21 9.625 21C8.6585 21 7.875 21.7835 7.875 22.75C7.875 23.7165 8.6585 24.5 9.625 24.5Z" fill="#03041D"/>
<path d="M21.875 24.5C22.8415 24.5 23.625 23.7165 23.625 22.75C23.625 21.7835 22.8415 21 21.875 21C20.9085 21 20.125 21.7835 20.125 22.75C20.125 23.7165 20.9085 24.5 21.875 24.5Z" fill="#03041D"/>
<path d="M9.17547 16.625H23.4675L25.5675 6.125H7.32211L6.85891 3.5H1.75V5.25H5.39109L8.01609 20.125H23.625V18.375H9.48391L9.17547 16.625Z" fill="#03041D"/>
</svg>
