<svg width="16" height="16" viewBox="0 0 16 16" fill="none" xmlns="http://www.w3.org/2000/svg">
<path d="M5.41582 15.9998C3.63723 10.1391 7.39534 7.9992 7.39534 7.9992C7.13239 11.1265 8.90958 13.5629 8.90958 13.5629C9.5632 13.3657 10.8108 12.444 10.8108 12.444C10.8108 13.5629 10.1525 15.9984 10.1525 15.9984C10.1525 15.9984 12.457 14.2165 13.1824 11.2571C13.9069 8.29757 11.8024 5.32643 11.8024 5.32643C11.9292 7.4211 11.2206 9.48127 9.83221 11.0552C9.90167 10.975 9.95995 10.886 10.0047 10.7895C10.2541 10.2906 10.6546 8.99409 10.4201 5.99171C10.09 1.77719 6.27131 0 6.27131 0C6.60045 2.56787 5.61349 3.15949 3.30156 8.0337C0.989637 12.907 5.41582 15.9998 5.41582 15.9998Z" fill="#6A3093"/>
</svg>
