<svg width="28" height="28" viewBox="0 0 26 26" fill="none" xmlns="http://www.w3.org/2000/svg">
<path opacity="0.44" d="M19.102 24.265H6.21997C5.68954 24.265 5.18083 24.0543 4.80576 23.6792C4.43068 23.3041 4.21997 22.7954 4.21997 22.265V5.16498C4.21997 4.63455 4.43068 4.12584 4.80576 3.75076C5.18083 3.37569 5.68954 3.16498 6.21997 3.16498H8.43997V3.69198C8.44023 4.11131 8.60665 4.51345 8.90279 4.81033C9.19893 5.10722 9.60064 5.27466 10.02 5.27598H15.295C15.5031 5.27611 15.7092 5.23524 15.9016 5.15571C16.094 5.07618 16.2688 4.95954 16.416 4.81245C16.5633 4.66536 16.6802 4.49071 16.7599 4.29846C16.8397 4.1062 16.8808 3.90012 16.881 3.69198V3.16498H19.101C19.6314 3.16498 20.1401 3.37569 20.5152 3.75076C20.8903 4.12584 21.101 4.63455 21.101 5.16498V22.265C21.101 22.7952 20.8904 23.3038 20.5155 23.6788C20.1407 24.0539 19.6322 24.2647 19.102 24.265Z"/>
<path d="M9.99597 4.21999C9.86336 4.21999 9.73619 4.16731 9.64242 4.07355C9.54865 3.97978 9.49597 3.8526 9.49597 3.71999V2.60999C9.49597 2.47738 9.54865 2.35021 9.64242 2.25644C9.73619 2.16267 9.86336 2.10999 9.99597 2.10999H11.606C11.606 1.83019 11.7171 1.56185 11.915 1.364C12.1128 1.16614 12.3812 1.05499 12.661 1.05499C12.9408 1.05499 13.2091 1.16614 13.407 1.364C13.6048 1.56185 13.716 1.83019 13.716 2.10999H15.326C15.4586 2.10999 15.5858 2.16267 15.6795 2.25644C15.7733 2.35021 15.826 2.47738 15.826 2.60999V3.71999C15.826 3.8526 15.7733 3.97978 15.6795 4.07355C15.5858 4.16731 15.4586 4.21999 15.326 4.21999H9.99597Z"/>
<path d="M11.606 10.551H8.44099C7.85833 10.551 7.38599 11.0234 7.38599 11.606C7.38599 12.1887 7.85833 12.661 8.44099 12.661H11.606C12.1886 12.661 12.661 12.1887 12.661 11.606C12.661 11.0234 12.1886 10.551 11.606 10.551Z"/>
<path d="M15.827 14.771H8.44099C7.85833 14.771 7.38599 15.2433 7.38599 15.826C7.38599 16.4087 7.85833 16.881 8.44099 16.881H15.827C16.4096 16.881 16.882 16.4087 16.882 15.826C16.882 15.2433 16.4096 14.771 15.827 14.771Z"/>
</svg>
