<?xml version="1.0" encoding="iso-8859-1"?>
<!-- Generator: Adobe Illustrator 19.0.0, SVG Export Plug-In . SVG Version: 6.00 Build 0)  -->
<svg xmlns="http://www.w3.org/2000/svg" xmlns:xlink="http://www.w3.org/1999/xlink" version="1.1" id="Layer_1" x="0px" y="0px" viewBox="0 0 509.469 509.469" style="enable-background:new 0 0 509.469 509.469;" xml:space="preserve" width="20" height="20">
<g>
	<path d="M213.32,108.397v23.497h-55v270.015h192.539V131.894h-55v-23.497H213.32z M320.858,371.908H188.319V161.894h132.539   V371.908z"/>
	<rect x="214.983" y="311.905" width="79.212" height="30"/>
	<rect x="214.983" y="251.901" width="79.212" height="30"/>
	<rect x="214.983" y="191.898" width="79.212" height="30"/>
	<path d="M509.469,144.689l-76.696-22.436l-22.434,76.696l28.793,8.422l8.514-29.107c9.714,24.329,14.77,50.43,14.77,76.889   c0,114.15-92.868,207.019-207.019,207.019c-37.633,0-74.474-10.194-106.539-29.48L133.397,458.4   c36.733,22.094,78.92,33.771,122.001,33.771c63.31,0,122.831-24.654,167.597-69.421c44.767-44.768,69.421-104.288,69.421-167.598   c0-30.744-5.964-61.073-17.421-89.291l26.05,7.62L509.469,144.689z"/>
	<path d="M108.884,107.251c39.048-38.685,90.745-59.953,145.672-59.953c0.331,0,0.663,0.001,0.994,0.003   c37.634,0.176,74.427,10.542,106.4,29.977l15.583-25.635c-36.629-22.266-78.761-34.141-121.843-34.342   c-0.382-0.002-0.755-0.003-1.137-0.003c-62.882,0-122.078,24.354-166.782,68.642c-44.975,44.558-69.907,103.963-70.203,167.271   c-0.143,30.736,5.685,61.094,17.022,89.377l-26.032-7.747L0,363.595l76.59,22.792l22.792-76.59l-28.754-8.557l-8.644,29.046   c-9.605-24.377-14.542-50.493-14.418-76.934C47.825,198.055,69.601,146.169,108.884,107.251z"/>
</g>















</svg>
