<svg width="20" height="21" viewBox="0 0 20 21" fill="none" xmlns="http://www.w3.org/2000/svg">
<path d="M8.63633 3C7.42268 3 6.23628 3.35989 5.22717 4.03416C4.21806 4.70843 3.43155 5.66679 2.9671 6.78806C2.50266 7.90932 2.38114 9.14314 2.61791 10.3335C2.85468 11.5238 3.43911 12.6172 4.29729 13.4754C5.15547 14.3335 6.24886 14.918 7.43919 15.1547C8.62952 15.3915 9.86334 15.27 10.9846 14.8056C12.1059 14.3411 13.0642 13.5546 13.7385 12.5455C14.4128 11.5364 14.7727 10.35 14.7727 9.13633C14.7726 7.5089 14.126 5.94817 12.9753 4.7974C11.8245 3.64664 10.2638 3.0001 8.63633 3V3Z" stroke="#03041D" stroke-opacity="0.6" stroke-width="1.25" stroke-miterlimit="10"/>
<path d="M13.2145 13.7144L17.5 18" stroke="#03041D" stroke-opacity="0.6" stroke-width="1.25" stroke-miterlimit="10" stroke-linecap="round"/>
</svg>
