<svg width="16" height="16" viewBox="0 0 16 16" fill="none" xmlns="http://www.w3.org/2000/svg">
<g clip-path="url(#clip0)">
<path d="M15.7206 4.91497L14.3975 3.59191L15.3921 2.59769C15.48 2.50984 15.5295 2.39081 15.5295 2.26631C15.5295 2.14181 15.48 2.02278 15.3921 1.9349L14.0605 0.603275C13.8847 0.427493 13.5734 0.427493 13.3976 0.603275L12.4034 1.59787L11.0802 0.274556C10.7141 -0.0915389 10.1205 -0.0915389 9.75435 0.274556C9.3882 0.64065 9.3882 1.23425 9.75435 1.60037L14.3947 6.24079C14.7609 6.60688 15.3545 6.60688 15.7206 6.24079C16.0866 5.87469 16.0866 5.2811 15.7206 4.91497Z" fill="#27AE60"/>
<path d="M6.24565 14.3996L1.6053 9.75918C1.23914 9.39308 0.645611 9.39308 0.279454 9.75918C-0.0866408 10.1253 -0.0866408 10.7189 0.279454 11.085L1.60274 12.4083L0.610079 13.4006C0.522173 13.4885 0.472735 13.6075 0.472735 13.732C0.472735 13.8565 0.522173 13.9755 0.610079 14.0634L1.94171 15.3946C2.03324 15.4862 2.15318 15.5319 2.27311 15.5319C2.39305 15.5319 2.51299 15.4862 2.60452 15.3946L3.59677 14.4023L4.91984 15.7254C5.28593 16.0915 5.87953 16.0915 6.24565 15.7254C6.61181 15.3593 6.61181 14.7657 6.24565 14.3996Z" fill="#27AE60"/>
<path d="M8.42858 5.57788L5.58276 8.43339L7.57152 10.4221L10.4173 7.56657L8.42858 5.57788Z" fill="#27AE60"/>
<path d="M14.3948 7.56661L8.42856 1.60038C8.06246 1.23428 7.46884 1.23428 7.10274 1.60038C6.73659 1.96653 6.73659 2.56007 7.10274 2.92622L13.069 8.89245C13.4351 9.25855 14.0287 9.25855 14.3948 8.89245C14.7609 8.52636 14.7609 7.93276 14.3948 7.56661Z" fill="#27AE60"/>
<path d="M8.8973 13.0738L2.93103 7.10752C2.56494 6.74142 1.97134 6.74142 1.60525 7.10752C1.23909 7.47367 1.23909 8.06727 1.60525 8.43336L7.57148 14.3996C7.93758 14.7657 8.53117 14.7657 8.8973 14.3996C9.26346 14.0335 9.26346 13.4399 8.8973 13.0738Z" fill="#27AE60"/>
</g>
<defs>
<clipPath id="clip0">
<rect width="16" height="16" fill="white"/>
</clipPath>
</defs>
</svg>
