<svg width="20" height="29" viewBox="0 0 20 29" fill="none" xmlns="http://www.w3.org/2000/svg">
<path fill-rule="evenodd" clip-rule="evenodd" d="M6.95692 0C6.79651 0.29872 6.73022 0.638974 6.76673 0.976066C6.80325 1.31316 6.94088 1.63132 7.16154 1.88876C7.59845 2.43568 8.21945 2.80492 8.90864 2.92757C8.4376 3.02121 8.01588 3.28095 7.7203 3.65947C7.58739 3.8359 7.49993 4.04233 7.46562 4.26054C7.43131 4.47875 7.4512 4.70206 7.52355 4.91077C7.52355 4.91077 8.55449 4.16314 9.62479 4.60385C10.6951 5.04456 11.5608 6.28799 11.5608 6.28799C8.90077 5.09177 4.72976 5.20195 2.75444 7.53929C2.75444 7.53929 3.44698 8.23183 4.72189 8.37349L6.50047 8.56237C3.9113 9.04242 2.95118 11.907 1.42444 12.8829C0.93651 13.1977 0.369882 13.7801 0 13.8666C0.550887 14.6064 2.01468 15.5193 2.82527 16.4873C3.63586 17.4553 4.20248 18.3209 5.01308 18.6279C5.5601 18.8354 6.12712 18.9857 6.70509 19.0764C6.70509 19.0764 5.78432 19.1158 4.63533 19.7139C3.48633 20.312 3.5729 21.0754 3.5729 21.0754C3.5729 21.0754 5.17834 22.2244 8.03509 22.1535C10.8918 22.0827 11.8283 21.6184 11.8283 21.6184C11.8283 21.6184 11.8126 22.7989 10.2465 23.2789C8.68041 23.759 7.57864 22.9877 7.57864 22.9877C7.57864 22.9877 7.60225 23.8928 7.86982 24.365C8.06637 24.6885 8.30449 24.9848 8.5781 25.2464C8.5781 25.2464 7.93278 25.1834 7.2481 26.3718C6.56343 27.5601 6.78379 28.4573 6.78379 28.4573L15.1258 20.1153C15.1258 20.1153 15.6924 19.5959 15.8734 17.7779C16.0544 15.96 15.5665 14.9684 15.5665 14.9684C15.5665 14.9684 16.322 15.6295 17.6284 15.1888C18.9348 14.748 19.6352 13.9847 19.6352 13.9847C19.6352 13.9847 18.7144 12.6861 17.5654 12.6704C16.9056 12.6516 16.2463 12.7231 15.6059 12.8829C15.6059 12.8829 17.0146 10.0576 15.0707 8.11378L6.95692 0ZM3.01414 14.0161C3.57719 13.8708 4.11745 13.6484 4.61959 13.3551C7.55503 11.7103 7.99574 10.0262 7.99574 10.0262C7.98791 10.4918 8.09257 10.9524 8.30083 11.3689C8.50908 11.7854 8.81477 12.1455 9.19195 12.4186C10.4826 13.3787 12.3163 12.757 12.938 11.6316C13.5597 10.5062 13.2764 9.87662 13.2764 9.87662C13.2764 9.87662 12.269 10.9154 11.2066 9.8058C10.1442 8.69615 11.8598 7.2481 13.3 8.43645C14.7402 9.62479 15.0707 10.9154 14.3309 12.1904C13.9079 12.9438 13.3597 13.6198 12.7098 14.1893C12.7098 14.1893 15.4012 15.4642 14.2129 18.3209C13.0246 21.1777 11.2696 19.8477 11.0177 18.9663C10.7659 18.0848 11.6473 17.5025 12.2533 17.5733C12.8593 17.6441 13.2292 18.4232 13.2292 18.4232C13.4624 17.9387 13.5392 17.3936 13.449 16.8634C13.3587 16.3333 13.1059 15.8443 12.7255 15.4642C11.3955 14.0398 9.97893 14.6693 9.19982 15.4012C8.42071 16.1331 8.16888 17.4867 8.16888 17.4867C7.8226 15.6137 4.61172 14.3546 3.01414 14.0161Z" fill="black"/>
</svg>
