<svg width="100" height="100" viewBox="0 0 100 100" fill="none" xmlns="http://www.w3.org/2000/svg">
<circle opacity="0.1" cx="50" cy="50" r="50" fill="#4C6FFF"/>
<path fill-rule="evenodd" clip-rule="evenodd" d="M51.5625 18.75C68.8214 18.75 82.8125 32.7411 82.8125 50C82.8125 67.2589 68.8214 81.25 51.5625 81.25C34.3036 81.25 20.3125 67.2589 20.3125 50C20.3125 32.7411 34.3036 18.75 51.5625 18.75Z" fill="white"/>
<path fill-rule="evenodd" clip-rule="evenodd" d="M71.1915 25.683C78.2794 31.4118 82.8121 40.1766 82.8121 50C82.8121 67.2589 68.821 81.25 51.5621 81.25C41.7387 81.25 32.9739 76.7174 27.2451 69.6294C32.6101 73.9656 39.4391 76.5625 46.8746 76.5625C64.1335 76.5625 78.1246 62.5714 78.1246 45.3125C78.1246 37.877 75.5277 31.048 71.1915 25.683V25.683Z" fill="url(#paint0_linear)"/>
<path fill-rule="evenodd" clip-rule="evenodd" d="M84.375 50C84.375 31.8782 69.6843 17.1875 51.5625 17.1875C33.4407 17.1875 18.75 31.8782 18.75 50C18.75 68.1218 33.4407 82.8125 51.5625 82.8125C69.6843 82.8125 84.375 68.1218 84.375 50ZM21.875 50C21.875 33.604 35.1665 20.3125 51.5625 20.3125C67.9585 20.3125 81.25 33.604 81.25 50C81.25 66.396 67.9585 79.6875 51.5625 79.6875C35.1665 79.6875 21.875 66.396 21.875 50Z" fill="url(#paint1_linear)"/>
<path fill-rule="evenodd" clip-rule="evenodd" d="M71.1915 25.683C78.2794 31.4118 82.8121 40.1766 82.8121 50C82.8121 67.2589 68.821 81.25 51.5621 81.25C41.7387 81.25 32.9739 76.7174 27.2451 69.6294C32.6101 73.9656 39.4391 76.5625 46.8746 76.5625C64.1335 76.5625 78.1246 62.5714 78.1246 45.3125C78.1246 37.877 75.5277 31.048 71.1915 25.683V25.683Z" fill="url(#paint2_linear)"/>
<path fill-rule="evenodd" clip-rule="evenodd" d="M51.5625 17.1875C69.6843 17.1875 84.375 31.8782 84.375 50C84.375 68.1218 69.6843 82.8125 51.5625 82.8125C33.4407 82.8125 18.75 68.1218 18.75 50C18.75 31.8782 33.4407 17.1875 51.5625 17.1875ZM51.5625 20.3125C35.1665 20.3125 21.875 33.604 21.875 50C21.875 66.396 35.1665 79.6875 51.5625 79.6875C67.9585 79.6875 81.25 66.396 81.25 50C81.25 33.604 67.9585 20.3125 51.5625 20.3125Z" fill="#4C6FFF"/>
<path fill-rule="evenodd" clip-rule="evenodd" d="M48.4389 57.063L40.126 48.8571C39.5119 48.2508 38.5226 48.2572 37.9163 48.8714C37.3101 49.4855 37.3165 50.4748 37.9306 51.081L47.4592 60.487C48.1124 61.1318 49.178 61.0774 49.7621 60.3695L65.2335 41.6195C65.7827 40.9539 65.6884 39.969 65.0228 39.4198C64.3572 38.8706 63.3724 38.965 62.8231 39.6306L48.4389 57.063Z" fill="url(#paint3_linear)"/>
<defs>
<linearGradient id="paint0_linear" x1="27.2451" y1="25.683" x2="82.8121" y2="81.25" gradientUnits="userSpaceOnUse">
<stop stop-color="#FFEF5E"/>
<stop offset="1" stop-color="#F7936F"/>
</linearGradient>
<linearGradient id="paint1_linear" x1="18.75" y1="17.1875" x2="84.375" y2="82.8125" gradientUnits="userSpaceOnUse">
<stop stop-color="#D665FF"/>
<stop offset="0.619792" stop-color="#4C6FFF"/>
</linearGradient>
<linearGradient id="paint2_linear" x1="27.2451" y1="25.683" x2="82.8121" y2="81.25" gradientUnits="userSpaceOnUse">
<stop stop-color="#67E9F1"/>
<stop offset="0.713542" stop-color="#24E795"/>
</linearGradient>
<linearGradient id="paint3_linear" x1="37.4658" y1="39.0625" x2="58.6678" y2="66.3221" gradientUnits="userSpaceOnUse">
<stop stop-color="#D665FF"/>
<stop offset="0.619792" stop-color="#4C6FFF"/>
</linearGradient>
</defs>
</svg>
