<svg width="16" height="15" viewBox="0 0 16 15" fill="none" xmlns="http://www.w3.org/2000/svg">
<path d="M6.96507 6.85669L13.5059 0.315857L14.6842 1.49419L13.5059 2.67336L15.5676 4.73502L14.3892 5.91419L12.3267 3.85169L11.1484 5.03002L12.9159 6.79752L11.7376 7.97669L9.97007 6.20836L8.14341 8.03502C8.71045 8.89669 8.93786 9.93801 8.78167 10.9576C8.62548 11.9772 8.09678 12.9027 7.2978 13.5551C6.49882 14.2075 5.48631 14.5405 4.45605 14.4897C3.4258 14.4389 2.45097 14.0079 1.72007 13.28C0.987596 12.5503 0.552596 11.5743 0.499618 10.5417C0.44664 9.50913 0.779468 8.49374 1.43342 7.69287C2.08736 6.89201 3.01572 6.36289 4.03804 6.20835C5.06036 6.05382 6.10363 6.2849 6.96507 6.85669ZM6.43424 12.1009C6.677 11.8712 6.87127 11.5953 7.00556 11.2893C7.13984 10.9833 7.21143 10.6535 7.21607 10.3194C7.22072 9.98526 7.15834 9.65359 7.03261 9.34399C6.90688 9.03439 6.72037 8.75313 6.48408 8.51685C6.2478 8.28057 5.96654 8.09405 5.65694 7.96832C5.34734 7.84259 5.01568 7.78021 4.68155 7.78486C4.34743 7.7895 4.01763 7.86109 3.71164 7.99537C3.40565 8.12966 3.1297 8.32393 2.90007 8.56669C2.44468 9.0382 2.19269 9.6697 2.19839 10.3252C2.20408 10.9807 2.46701 11.6077 2.93053 12.0712C3.39405 12.5348 4.02108 12.7977 4.67657 12.8034C5.33206 12.8091 5.96357 12.5571 6.43507 12.1017L6.43424 12.1009Z" fill="#1A202C"/>
</svg>
