<svg width="20" height="11" viewBox="0 0 20 11" fill="none" xmlns="http://www.w3.org/2000/svg">
<path d="M7.78547 10.6517L6.1763 10.22L6.83214 7.77086C5.85044 7.4088 4.93807 6.88116 4.13464 6.21086L2.34047 8.00586L1.1613 6.8267L2.9563 5.03253C1.94303 3.81899 1.26221 2.36316 0.980469 0.807528L2.62047 0.508362C3.25297 4.01003 6.3163 6.6667 10.0005 6.6667C13.6838 6.6667 16.748 4.01003 17.3805 0.508362L19.0205 0.806695C18.7391 2.36254 18.0586 3.81867 17.0455 5.03253L18.8396 6.8267L17.6605 8.00586L15.8663 6.21086C15.0629 6.88116 14.1505 7.4088 13.1688 7.77086L13.8246 10.2209L12.2155 10.6517L11.5588 8.2017C10.5274 8.37843 9.47351 8.37843 8.44214 8.2017L7.78547 10.6517Z" fill="#718096"/>
</svg>
