<svg width="14" height="19" viewBox="0 0 14 19" fill="none" xmlns="http://www.w3.org/2000/svg">
<path d="M6.16673 13.9484C4.48566 13.7345 2.94911 12.8885 1.86939 11.5823C0.789667 10.2762 0.247798 8.60797 0.353915 6.91667C0.460033 5.22536 1.20617 3.63793 2.44069 2.47701C3.6752 1.31608 5.30544 0.66879 7.00006 0.666689C8.69676 0.665425 10.3301 1.31114 11.5673 2.47225C12.8045 3.63337 13.5524 5.22252 13.6586 6.91589C13.7649 8.60926 13.2215 10.2794 12.1391 11.5861C11.0568 12.8927 9.51695 13.7375 7.8334 13.9484V16.5H6.16673V13.9484ZM7.00006 12.3334C8.32615 12.3334 9.59792 11.8066 10.5356 10.8689C11.4733 9.93121 12.0001 8.65944 12.0001 7.33335C12.0001 6.00727 11.4733 4.7355 10.5356 3.79782C9.59792 2.86014 8.32615 2.33336 7.00006 2.33336C5.67398 2.33336 4.40221 2.86014 3.46453 3.79782C2.52685 4.7355 2.00006 6.00727 2.00006 7.33335C2.00006 8.65944 2.52685 9.93121 3.46453 10.8689C4.40221 11.8066 5.67398 12.3334 7.00006 12.3334ZM1.16673 17.3334H12.8334V19H1.16673V17.3334Z" fill="#1A202C"/>
</svg>
