<svg width="15" height="15" viewBox="0 0 15 15" fill="none" xmlns="http://www.w3.org/2000/svg">
<path d="M14.5243 13.5765L13.499 10.5H12.3741L12.9988 13.5H1.9993L2.62405 10.5H1.49905L0.47305 13.5765C0.2128 14.3595 0.67405 15 1.49905 15H13.499C14.324 15 14.7853 14.3595 14.5243 13.5765ZM11.2491 3.75C11.2491 2.75544 10.854 1.80161 10.1507 1.09835C9.44744 0.395088 8.49361 0 7.49905 0C6.50449 0 5.55066 0.395088 4.8474 1.09835C4.14414 1.80161 3.74905 2.75544 3.74905 3.75C3.74905 7.33125 7.49905 11.25 7.49905 11.25C7.49905 11.25 11.2491 7.33125 11.2491 3.75ZM5.47405 3.795C5.47405 2.67675 6.38005 1.77075 7.49905 1.77075C8.03601 1.77075 8.55099 1.98406 8.93068 2.36375C9.31037 2.74344 9.52367 3.25841 9.52367 3.79538C9.52367 4.33234 9.31037 4.84731 8.93068 5.227C8.55099 5.60669 8.03601 5.82 7.49905 5.82C6.96199 5.82 6.44692 5.60665 6.06716 5.22689C5.6874 4.84713 5.47405 4.33206 5.47405 3.795Z" fill="#2E3E5C"/>
</svg>
