<?xml version="1.0" standalone="no"?>
<!DOCTYPE svg PUBLIC "-//W3C//DTD SVG 20010904//EN"
 "http://www.w3.org/TR/2001/REC-SVG-20010904/DTD/svg10.dtd">
<svg version="1.0" xmlns="http://www.w3.org/2000/svg"
 width="134.000000pt" height="139.000000pt" viewBox="0 0 134.000000 139.000000"
 preserveAspectRatio="xMidYMid meet">

<g transform="translate(0.000000,139.000000) scale(0.100000,-0.100000)"
fill="#000000" stroke="none">
<path d="M657 1180 c-3 -13 -14 -20 -29 -20 -22 -1 -22 -1 -5 -15 13 -9 17
-20 12 -34 -7 -23 4 -28 23 -9 9 9 15 9 24 0 18 -18 27 -14 21 8 -4 13 1 26
13 35 18 14 17 14 -8 15 -18 0 -28 5 -28 14 0 24 -17 28 -23 6z"/>
<path d="M436 1123 c-5 -16 -15 -23 -34 -23 -26 0 -26 0 -5 -15 15 -10 19 -21
16 -36 -5 -19 -4 -20 13 -11 13 7 24 7 38 0 16 -9 18 -8 12 7 -4 11 0 25 10
36 16 18 16 19 -3 19 -11 0 -24 10 -30 23 l-10 22 -7 -22z"/>
<path d="M886 1123 c-5 -16 -15 -23 -34 -23 -26 0 -26 0 -5 -15 15 -10 19 -21
16 -36 -5 -19 -4 -20 13 -11 13 7 24 7 38 0 16 -9 18 -8 12 7 -4 11 0 25 10
36 16 18 16 19 -3 19 -11 0 -24 10 -30 23 l-10 22 -7 -22z"/>
<path d="M1050 961 c0 -16 -6 -21 -27 -21 -25 0 -25 -1 -9 -19 12 -13 15 -27
11 -41 -6 -19 -5 -20 14 -8 16 10 25 10 40 1 16 -10 18 -9 14 8 -3 11 2 28 12
39 18 19 17 20 -8 20 -17 0 -27 5 -27 14 0 8 -4 18 -10 21 -5 3 -10 -3 -10
-14z"/>
<path d="M270 955 c0 -10 -10 -15 -27 -15 -25 0 -25 -1 -9 -19 12 -13 15 -27
11 -41 -6 -19 -5 -20 14 -8 17 10 25 10 42 0 19 -12 20 -11 14 8 -4 14 -1 28
11 41 16 18 16 19 -9 19 -17 0 -27 5 -27 15 0 8 -4 15 -10 15 -5 0 -10 -7 -10
-15z"/>
<path d="M430 840 c-13 -13 -20 -33 -20 -60 0 -27 7 -47 20 -60 31 -31 109
-22 98 11 -3 8 -19 14 -39 14 -30 0 -34 3 -37 28 -4 37 14 58 43 51 26 -7 44
14 24 27 -24 15 -68 10 -89 -11z"/>
<path d="M550 780 l0 -80 55 0 c48 0 55 2 55 20 0 16 -7 20 -36 20 -42 0 -43
23 -1 28 39 5 35 32 -4 32 -41 0 -33 24 9 28 20 2 32 9 32 18 0 10 -14 14 -55
14 l-55 0 0 -80z"/>
<path d="M680 780 c0 -73 2 -80 20 -80 16 0 20 7 20 30 0 27 3 30 30 30 38 0
41 27 3 32 -42 5 -41 28 1 28 29 0 36 4 36 20 0 18 -7 20 -55 20 l-55 0 0 -80z"/>
<path d="M810 780 c0 -73 2 -80 20 -80 15 0 20 7 20 25 0 14 4 25 8 25 5 0 14
-11 20 -25 7 -15 20 -25 32 -25 24 0 25 8 5 37 -13 18 -13 22 0 33 8 7 15 23
15 36 0 35 -26 54 -76 54 l-44 0 0 -80z m69 41 c17 -11 7 -41 -14 -41 -9 0
-15 9 -15 25 0 27 6 30 29 16z"/>
<path d="M208 732 c-4 -15 -14 -22 -30 -22 -22 -1 -22 -1 -5 -15 13 -9 17 -20
12 -35 -6 -20 -5 -21 15 -10 16 9 25 9 33 1 17 -17 26 -13 20 10 -4 15 0 27
12 35 18 13 18 14 -2 14 -11 0 -27 10 -35 22 l-15 22 -5 -22z"/>
<path d="M1108 732 c-4 -15 -14 -22 -30 -22 -22 -1 -22 -1 -5 -15 13 -9 17
-20 12 -35 -6 -20 -5 -21 15 -10 16 9 25 9 33 1 17 -17 26 -13 20 10 -4 15 0
27 12 35 18 13 18 14 -2 14 -11 0 -27 10 -35 22 l-15 22 -5 -22z"/>
<path d="M333 649 c-15 -15 -5 -39 16 -38 10 0 11 2 4 6 -7 2 -13 11 -13 18 0
7 6 16 13 18 6 3 7 6 2 6 -6 1 -16 -4 -22 -10z"/>
<path d="M374 646 c-7 -19 3 -36 22 -36 10 0 14 8 12 22 -4 26 -26 36 -34 14z
m26 -11 c0 -8 -4 -15 -10 -15 -5 0 -10 7 -10 15 0 8 5 15 10 15 6 0 10 -7 10
-15z"/>
<path d="M420 634 c0 -20 3 -25 9 -16 11 17 21 17 32 0 6 -9 9 -4 9 15 0 15
-4 27 -10 27 -5 0 -10 -5 -10 -11 0 -8 -5 -8 -15 1 -13 11 -15 8 -15 -16z"/>
<path d="M480 630 c0 -20 2 -22 10 -10 9 13 11 13 20 0 8 -12 10 -10 10 10 0
19 -5 26 -20 26 -15 0 -20 -7 -20 -26z"/>
<path d="M534 645 c-3 -8 -3 -19 1 -25 9 -14 35 -13 35 3 0 7 3 8 8 2 4 -5 15
-11 25 -11 12 -1 17 6 17 25 0 18 -3 22 -9 12 -7 -11 -9 -11 -14 0 -5 12 -7
12 -15 0 -7 -9 -12 -10 -16 -2 -10 15 -26 14 -32 -4z m22 -22 c-10 -10 -19 5
-10 18 6 11 8 11 12 0 2 -7 1 -15 -2 -18z"/>
<path d="M650 635 c0 -17 5 -25 18 -25 14 0 15 2 2 10 -13 9 -13 10 0 10 12 0
13 2 1 9 -11 7 -11 9 0 14 10 4 9 6 -3 6 -13 1 -18 -7 -18 -24z"/>
<path d="M694 635 c1 -11 9 -21 19 -23 13 -3 17 3 16 25 -1 23 -2 24 -6 6 -5
-27 -20 -30 -26 -5 -3 13 -4 12 -3 -3z"/>
<path d="M740 637 c0 -14 6 -24 15 -24 8 0 15 5 15 10 0 5 7 4 15 -3 18 -15
45 -6 45 15 0 20 -30 32 -40 15 -5 -8 -9 -9 -14 -1 -13 20 -36 12 -36 -12z
m75 4 c3 -5 1 -12 -5 -16 -5 -3 -10 1 -10 9 0 18 6 21 15 7z"/>
<path d="M840 633 c0 -25 1 -26 16 -11 9 9 13 21 10 27 -13 20 -26 11 -26 -16z"/>
<path d="M880 635 c0 -17 5 -25 18 -25 14 0 15 2 2 10 -13 9 -13 10 0 10 12 0
13 2 1 9 -11 7 -11 9 0 14 10 4 9 6 -3 6 -13 1 -18 -7 -18 -24z"/>
<path d="M930 651 c0 -5 -2 -16 -5 -23 -4 -9 2 -14 15 -14 21 0 24 5 14 30 -7
17 -24 22 -24 7z"/>
<path d="M971 634 c0 -16 3 -23 6 -16 4 10 8 10 19 1 11 -9 14 -6 13 17 0 16
-3 23 -6 16 -4 -10 -8 -10 -19 -1 -11 9 -14 6 -13 -17z"/>
<path d="M450 545 c0 -21 2 -23 13 -13 8 7 14 18 14 25 0 7 -6 13 -14 13 -7 0
-13 -11 -13 -25z"/>
<path d="M490 547 c0 -20 5 -23 45 -23 34 0 44 4 40 14 -3 7 -5 18 -5 23 0 5
-5 9 -11 9 -6 0 -8 -7 -5 -16 3 -8 2 -12 -4 -9 -6 3 -10 1 -10 -4 0 -6 -4 -11
-9 -11 -5 0 -7 9 -4 20 4 15 0 20 -16 20 -15 0 -21 -6 -21 -23z"/>
<path d="M590 540 c0 -20 2 -22 10 -10 9 13 11 13 20 0 8 -12 10 -10 10 10 0
19 -5 26 -20 26 -15 0 -20 -7 -20 -26z"/>
<path d="M640 545 c0 -14 6 -25 13 -25 8 0 14 7 14 15 0 8 -5 15 -11 15 -6 0
-4 5 4 10 13 8 12 10 -2 10 -13 0 -18 -8 -18 -25z"/>
<path d="M685 552 c3 -7 5 -18 5 -24 0 -6 6 -6 15 2 11 9 15 9 15 1 0 -7 5 -9
10 -6 6 3 10 16 10 28 0 18 -2 19 -10 7 -5 -8 -10 -10 -10 -5 0 6 -9 11 -20
11 -13 0 -19 -5 -15 -14z"/>
<path d="M753 554 c-7 -18 11 -39 26 -30 17 11 13 46 -4 46 -9 0 -18 -7 -22
-16z m27 -10 c0 -8 -4 -12 -10 -9 -5 3 -10 10 -10 16 0 5 5 9 10 9 6 0 10 -7
10 -16z"/>
<path d="M800 547 c0 -31 35 -31 38 0 1 17 -4 23 -18 23 -14 0 -20 -7 -20 -23z"/>
<path d="M850 541 c0 -21 2 -23 10 -11 6 10 10 11 10 3 0 -7 4 -13 9 -13 4 0
6 11 4 23 -6 33 -33 31 -33 -2z"/>
<path d="M1047 510 c-3 -13 -14 -20 -28 -20 -21 0 -21 -1 -5 -19 12 -14 16
-27 11 -43 -7 -22 -7 -22 12 -6 17 16 21 16 40 3 19 -14 21 -13 16 5 -3 12 2
29 12 40 18 19 17 20 -8 20 -17 0 -27 5 -27 14 0 24 -17 28 -23 6z"/>
<path d="M270 505 c0 -10 -10 -15 -27 -15 -25 0 -25 -1 -9 -19 12 -14 16 -27
11 -43 -7 -22 -7 -22 12 -6 18 16 21 16 42 1 22 -15 23 -15 16 6 -4 15 -1 29
11 42 16 18 16 19 -9 19 -17 0 -27 5 -27 15 0 8 -4 15 -10 15 -5 0 -10 -7 -10
-15z"/>
<path d="M437 347 c-5 -19 -14 -27 -28 -27 -19 0 -20 -2 -8 -17 8 -9 13 -25
11 -35 -3 -17 -1 -18 16 -7 17 10 24 10 38 -2 16 -13 17 -12 11 10 -4 17 -1
29 11 37 16 12 15 13 -5 14 -14 0 -24 9 -30 27 l-10 28 -6 -28z"/>
<path d="M885 348 c-5 -19 -14 -28 -27 -28 -18 0 -19 -2 -7 -17 8 -9 13 -25
11 -35 -3 -17 -1 -18 16 -7 17 10 24 10 38 -2 16 -13 17 -12 11 10 -4 17 -1
29 11 37 16 12 15 13 -5 14 -14 0 -25 9 -31 28 l-10 27 -7 -27z"/>
<path d="M657 280 c-3 -13 -14 -20 -29 -20 -21 -1 -21 -2 -5 -11 14 -8 17 -18
13 -35 -6 -23 -5 -24 14 -14 14 7 26 8 39 1 16 -9 18 -8 13 11 -3 14 1 26 13
34 18 13 18 14 -4 14 -14 0 -25 7 -28 20 -3 11 -9 20 -13 20 -4 0 -10 -9 -13
-20z"/>
</g>
</svg>
