<svg width="24" height="24" viewBox="0 0 24 24" fill="none" xmlns="http://www.w3.org/2000/svg">
<path d="M12.9982 12.9975L19.0723 13.0045C19.3386 13.0045 19.594 12.8988 19.7823 12.7105C19.9706 12.5221 20.0764 12.2668 20.0764 12.0005C20.0764 11.7342 19.9706 11.4788 19.7823 11.2905C19.594 11.1021 19.3386 10.9964 19.0723 10.9964L12.9982 11.0034L13.0053 4.92939C13.0053 4.66308 12.8995 4.40769 12.7112 4.21939C12.5229 4.03108 12.2675 3.92529 12.0012 3.92529C11.7349 3.92529 11.4795 4.03108 11.2912 4.21939C11.1029 4.40769 10.9971 4.66308 10.9971 4.92939L11.0042 11.0034L4.93014 10.9964C4.79813 10.9958 4.66732 11.0214 4.54525 11.0717C4.42318 11.122 4.31228 11.1959 4.21893 11.2892C4.12559 11.3826 4.05165 11.4935 4.00138 11.6156C3.95111 11.7376 3.92551 11.8684 3.92605 12.0005C3.92551 12.1325 3.95111 12.2633 4.00138 12.3853C4.05165 12.5074 4.12559 12.6183 4.21893 12.7117C4.31228 12.805 4.42318 12.8789 4.54525 12.9292C4.66732 12.9795 4.79813 13.0051 4.93014 13.0045L11.0042 12.9975L10.9971 19.0715C10.9966 19.2035 11.0222 19.3343 11.0724 19.4564C11.1227 19.5785 11.1967 19.6894 11.29 19.7827C11.3833 19.8761 11.4943 19.95 11.6163 20.0003C11.7384 20.0506 11.8692 20.0762 12.0012 20.0756C12.1332 20.0762 12.264 20.0506 12.3861 20.0003C12.5082 19.95 12.6191 19.8761 12.7124 19.7827C12.8058 19.6894 12.8797 19.5785 12.93 19.4564C12.9802 19.3343 13.0058 19.2035 13.0053 19.0715L12.9982 12.9975Z" fill="#3E5481"/>
</svg>
