<svg width="15" height="15" viewBox="0 0 15 15" fill="none" xmlns="http://www.w3.org/2000/svg">
<path d="M2.14258 2.14899C2.14258 1.58092 2.36834 1.03612 2.7702 0.634432C3.17206 0.232745 3.7171 0.00708008 4.28542 0.00708008C4.85373 0.00708008 5.39877 0.232745 5.80063 0.634432C6.20249 1.03612 6.42826 1.58092 6.42826 2.14899C6.42826 2.71707 6.20249 3.26187 5.80063 3.66356C5.39877 4.06524 4.85373 4.29091 4.28542 4.29091C3.7171 4.29091 3.17206 4.06524 2.7702 3.66356C2.36834 3.26187 2.14258 2.71707 2.14258 2.14899ZM4.28542 1.07804C4.00126 1.07804 3.72874 1.19087 3.52781 1.39171C3.32688 1.59256 3.214 1.86496 3.214 2.14899C3.214 2.43303 3.32688 2.70543 3.52781 2.90628C3.72874 3.10712 4.00126 3.21995 4.28542 3.21995C4.56958 3.21995 4.8421 3.10712 5.04303 2.90628C5.24396 2.70543 5.35684 2.43303 5.35684 2.14899C5.35684 1.86496 5.24396 1.59256 5.04303 1.39171C4.8421 1.19087 4.56958 1.07804 4.28542 1.07804Z" fill="#2E3E5C"/>
<path d="M9.40575 3.84495C9.18128 3.6738 8.99285 3.46001 8.8513 3.21584C8.70976 2.97168 8.61787 2.70197 8.58093 2.4222C8.54398 2.14243 8.56271 1.85812 8.63603 1.58561C8.70936 1.3131 8.83583 1.05776 9.00819 0.834259C9.18054 0.610758 9.39538 0.423503 9.64037 0.283255C9.88535 0.143007 10.1556 0.0525302 10.4357 0.0170231C10.7158 -0.0184841 11.0001 0.00167856 11.2724 0.0763526C11.5446 0.151027 11.7994 0.27874 12.0221 0.452154C12.4607 0.80279 12.744 1.31148 12.8111 1.86878C12.8782 2.42608 12.7238 2.98745 12.381 3.43209C12.0383 3.87673 11.5346 4.16911 10.9784 4.24632C10.4221 4.32354 9.85781 4.17941 9.40682 3.84495H9.40575ZM10.7139 1.07759C10.4298 1.07759 10.1573 1.19043 9.95634 1.39127C9.75541 1.59211 9.64253 1.86452 9.64253 2.14855C9.64253 2.43259 9.75541 2.70499 9.95634 2.90583C10.1573 3.10668 10.4298 3.21951 10.7139 3.21951C10.9981 3.21951 11.2706 3.10668 11.4715 2.90583C11.6725 2.70499 11.7854 2.43259 11.7854 2.14855C11.7854 1.86452 11.6725 1.59211 11.4715 1.39127C11.2706 1.19043 10.9981 1.07759 10.7139 1.07759Z" fill="#2E3E5C"/>
<path d="M1.60713 5.36145H4.46782C4.34996 5.69666 4.28567 6.05757 4.28567 6.43241H1.60713C1.46505 6.43241 1.32879 6.48882 1.22832 6.58925C1.12786 6.68967 1.07142 6.82587 1.07142 6.96789C1.07142 7.84286 1.41963 8.49186 1.96927 8.93309C2.22212 9.13657 2.52533 9.30043 2.86819 9.42038C2.61641 9.68788 2.42239 10.0043 2.29819 10.35C1.93855 10.2056 1.60182 10.0097 1.29856 9.76844C0.492852 9.12051 0 8.16307 0 6.96789C0 6.54183 0.169322 6.13323 0.470717 5.83196C0.772112 5.5307 1.18089 5.36145 1.60713 5.36145Z" fill="#2E3E5C"/>
<path d="M5.64438 5.36139C5.36022 5.85363 5.28332 6.43853 5.4306 6.98744C5.57789 7.53634 5.93728 8.00429 6.42973 8.28832C6.92217 8.57236 7.50733 8.64922 8.05647 8.502C8.60561 8.35478 9.07375 7.99554 9.35791 7.50331C9.64207 7.01108 9.71897 6.42617 9.57168 5.87726C9.4244 5.32836 9.06501 4.86042 8.57256 4.57638C8.08012 4.29235 7.49496 4.21548 6.94582 4.3627C6.39668 4.50992 5.92853 4.86916 5.64438 5.36139ZM7.26007 5.38817C7.41706 5.35272 7.58 5.35297 7.73687 5.3889C7.89374 5.42483 8.04054 5.49552 8.16642 5.59575C8.2923 5.69598 8.39406 5.82319 8.46417 5.96799C8.53428 6.11279 8.57095 6.27148 8.57149 6.43235C8.57141 6.63386 8.51445 6.83125 8.40717 7.00185C8.29989 7.17245 8.14663 7.30934 7.96501 7.39678C7.78339 7.48422 7.58077 7.51867 7.38044 7.49617C7.18011 7.47367 6.9902 7.39514 6.83252 7.26959C6.67484 7.14404 6.55579 6.97657 6.48906 6.78643C6.42233 6.59629 6.41062 6.39118 6.45527 6.19468C6.49993 5.99818 6.59913 5.81826 6.7415 5.6756C6.88386 5.53293 7.06361 5.43331 7.26007 5.38817Z" fill="#2E3E5C"/>
<path d="M13.0298 8.93309C12.7769 9.13657 12.4737 9.30043 12.1309 9.42038C12.3823 9.68798 12.5759 10.0044 12.6998 10.35C13.0641 10.2011 13.4016 10.0073 13.7005 9.76844C14.5062 9.12051 14.9991 8.16307 14.9991 6.96789C14.9991 6.54183 14.8297 6.13323 14.5283 5.83196C14.227 5.5307 13.8182 5.36145 13.3919 5.36145H10.5312C10.6491 5.69666 10.7134 6.05757 10.7134 6.43241H13.3919C13.534 6.43241 13.6703 6.48882 13.7707 6.58925C13.8712 6.68967 13.9276 6.82587 13.9276 6.96789C13.9276 7.84286 13.5794 8.49186 13.0298 8.93309Z" fill="#2E3E5C"/>
<path d="M10.1771 9.64527C10.6033 9.64527 11.0121 9.81452 11.3135 10.1158C11.6149 10.417 11.7842 10.8257 11.7842 11.2517C11.7842 12.4469 11.2925 13.4043 10.4857 14.0523C9.69176 14.6895 8.62677 15.0001 7.49857 15.0001C6.37036 15.0001 5.30537 14.6895 4.51145 14.0523C3.70575 13.4043 3.2129 12.4469 3.2129 11.2517C3.21233 11.0406 3.25351 10.8314 3.33408 10.6363C3.41465 10.4411 3.533 10.2638 3.68235 10.1145C3.8317 9.96524 4.00909 9.84693 4.20433 9.7664C4.39957 9.68587 4.60881 9.6447 4.82002 9.64527H10.1771ZM10.1771 10.7162H4.82002C4.67794 10.7162 4.54168 10.7726 4.44122 10.8731C4.34075 10.9735 4.28431 11.1097 4.28431 11.2517C4.28431 12.1267 4.63252 12.7757 5.18216 13.2169C5.74573 13.6689 6.55572 13.9291 7.49857 13.9291C8.44141 13.9291 9.2514 13.6689 9.81497 13.2169C10.3646 12.7757 10.7128 12.1267 10.7128 11.2517C10.7128 11.1097 10.6564 10.9735 10.5559 10.8731C10.4554 10.7726 10.3192 10.7162 10.1771 10.7162Z" fill="#2E3E5C"/>
</svg>
