<svg width="3" height="3" viewBox="0 0 3 3" fill="none" xmlns="http://www.w3.org/2000/svg">
<path d="M1.5 2.58943C1.23481 2.58943 0.986189 2.53681 0.754144 2.43157C0.522098 2.32634 0.338398 2.18304 0.203039 2.00168C0.0676789 1.82031 0 1.61992 0 1.40049C0 1.1945 0.0649165 0.9997 0.194751 0.816096C0.324586 0.632493 0.504143 0.484716 0.733425 0.372763C0.962708 0.26081 1.21823 0.204834 1.5 0.204834C1.76519 0.204834 2.01243 0.257451 2.24171 0.362687C2.471 0.467924 2.6547 0.611222 2.79282 0.792586C2.93094 0.97395 3 1.17658 3 1.40049C3 1.61544 2.93232 1.81359 2.79696 1.99496C2.6616 2.17632 2.47928 2.32074 2.25 2.42822C2.02072 2.53569 1.77072 2.58943 1.5 2.58943Z" fill="#373A42"/>
</svg>
