<svg width="16" height="13" viewBox="0 0 16 13" fill="none" xmlns="http://www.w3.org/2000/svg">
<path fill-rule="evenodd" clip-rule="evenodd" d="M8.01708 6.99516L7.23537 6.54776C6.91155 6.3629 6.83887 6.00473 7.07144 5.74797C7.30401 5.49057 7.75462 5.43216 8.07764 5.61767L8.85935 6.06506C9.18317 6.24993 9.25666 6.6081 9.02328 6.86486C8.79071 7.12161 8.3401 7.18003 8.01708 6.99516ZM10.9662 7.27053L11.3571 7.49455L13.527 5.09902C13.7337 4.87051 13.6691 4.55149 13.3808 4.38717L12.4715 3.86595C12.2583 3.74464 11.9636 3.72217 11.7512 3.84413C11.3232 4.08997 10.7288 4.10345 10.2774 3.84477C9.82598 3.58609 9.65316 3.13356 9.81064 2.73366C9.88897 2.53468 9.76864 2.31964 9.55626 2.19768L8.64615 1.67711C8.35867 1.51215 7.95732 1.56414 7.74978 1.79265L5.58071 4.18818L5.97156 4.4122C6.29458 4.59707 6.36807 4.95524 6.1355 5.212C5.90292 5.46875 5.45231 5.52716 5.12849 5.3423L4.73764 5.11828L2.47247 7.61844C2.26574 7.84759 2.33034 8.16597 2.61864 8.33094L3.52793 8.85151C3.74112 8.97347 4.03588 8.99593 4.24826 8.87397C4.67626 8.62813 5.27062 8.61465 5.72203 8.87333C6.17345 9.13201 6.34627 9.5839 6.18879 9.98444C6.11046 10.1828 6.23079 10.3985 6.44317 10.5204L7.35327 11.041C7.64076 11.2053 8.04211 11.154 8.24965 10.9248L10.514 8.42465L10.1232 8.20063C9.80014 8.01577 9.72665 7.65759 9.95922 7.40084C10.1918 7.14408 10.6424 7.08567 10.9662 7.27053Z" fill="#C1C1C1"/>
<mask id="mask0_639:3808" style="mask-type:alpha" maskUnits="userSpaceOnUse" x="2" y="1" width="12" height="11">
<path fill-rule="evenodd" clip-rule="evenodd" d="M8.01708 6.99516L7.23537 6.54776C6.91155 6.3629 6.83887 6.00473 7.07144 5.74797C7.30401 5.49057 7.75462 5.43216 8.07764 5.61767L8.85935 6.06506C9.18317 6.24993 9.25666 6.6081 9.02328 6.86486C8.79071 7.12161 8.3401 7.18003 8.01708 6.99516ZM10.9662 7.27053L11.3571 7.49455L13.527 5.09902C13.7337 4.87051 13.6691 4.55149 13.3808 4.38717L12.4715 3.86595C12.2583 3.74464 11.9636 3.72217 11.7512 3.84413C11.3232 4.08997 10.7288 4.10345 10.2774 3.84477C9.82598 3.58609 9.65316 3.13356 9.81064 2.73366C9.88897 2.53468 9.76864 2.31964 9.55626 2.19768L8.64615 1.67711C8.35867 1.51215 7.95732 1.56414 7.74978 1.79265L5.58071 4.18818L5.97156 4.4122C6.29458 4.59707 6.36807 4.95524 6.1355 5.212C5.90292 5.46875 5.45231 5.52716 5.12849 5.3423L4.73764 5.11828L2.47247 7.61844C2.26574 7.84759 2.33034 8.16597 2.61864 8.33094L3.52793 8.85151C3.74112 8.97347 4.03588 8.99593 4.24826 8.87397C4.67626 8.62813 5.27062 8.61465 5.72203 8.87333C6.17345 9.13201 6.34627 9.5839 6.18879 9.98444C6.11046 10.1828 6.23079 10.3985 6.44317 10.5204L7.35327 11.041C7.64076 11.2053 8.04211 11.154 8.24965 10.9248L10.514 8.42465L10.1232 8.20063C9.80014 8.01577 9.72665 7.65759 9.95922 7.40084C10.1918 7.14408 10.6424 7.08567 10.9662 7.27053Z" fill="white"/>
</mask>
<g mask="url(#mask0_639:3808)">
<rect x="-40" y="-31.7946" width="96" height="76.307" fill="#373A42"/>
</g>
</svg>
