<svg width="10" height="9" viewBox="0 0 10 9" fill="none" xmlns="http://www.w3.org/2000/svg">
<path d="M0.316499 0.82033C0.275294 0.819965 0.23439 0.825237 0.196144 0.835841C0.157898 0.846446 0.123064 0.862175 0.0936472 0.882122C0.0642306 0.902068 0.0408123 0.92584 0.0247404 0.952067C0.00866848 0.978295 0.000260351 1.00646 0 1.03494V1.98394C0 2.10421 0.1425 2.2027 0.316499 2.2027H9.68948C9.73068 2.20252 9.77143 2.19671 9.80938 2.1856C9.84732 2.17449 9.88172 2.1583 9.91057 2.13797C9.93943 2.11764 9.96219 2.09356 9.97753 2.06713C9.99288 2.04069 10.0005 2.01242 9.99997 1.98394V1.03494C10.0003 1.0067 9.9925 0.978685 9.97702 0.952543C9.96153 0.926401 9.93867 0.90265 9.90977 0.882676C9.88087 0.862701 9.84651 0.846901 9.80869 0.836198C9.77087 0.825494 9.73034 0.8201 9.68948 0.82033H0.316499ZM0.316499 3.23948C0.233549 3.23938 0.153868 3.26183 0.0946546 3.30198C0.0354411 3.34213 0.00144363 3.39676 0 3.45409V4.40308C0 4.52335 0.1425 4.62184 0.316499 4.62184H3.99999V8.55434C3.99999 8.67426 4.13699 8.76895 4.31049 8.76895H5.68949C5.73035 8.76918 5.77088 8.76379 5.8087 8.75308C5.84652 8.74238 5.88089 8.72658 5.90978 8.70661C5.93868 8.68663 5.96154 8.66288 5.97703 8.63674C5.99251 8.6106 6.00032 8.58259 5.99998 8.55434V4.62184H9.68948C9.73068 4.62167 9.77143 4.61585 9.80938 4.60474C9.84732 4.59364 9.88172 4.57745 9.91057 4.55712C9.93943 4.53678 9.96219 4.51271 9.97753 4.48627C9.99288 4.45984 10.0005 4.43157 9.99997 4.40308V3.45409C9.99984 3.3972 9.96709 3.34266 9.90889 3.30244C9.85068 3.26221 9.77178 3.23957 9.68948 3.23948H0.316499Z" fill="#373A42"/>
</svg>
